<svg version="1.1" xmlns="http://www.w3.org/2000/svg" xmlns:xlink="http://www.w3.org/1999/xlink" width="800" height="800"><defs/><g transform="scale(2,2)"><g id="background-0647b534"><rect fill="white" stroke="none" x="0" y="0" width="400" height="400" class="dcg-svg-background"/></g><g id="graphpaper-0647b534"><g id="grid-0647b534"><g><path fill="none" stroke="rgb(0,0,0)" class="dcg-svg-minor-gridline" paint-order="fill stroke markers" d=" M 61.5 0 L 61.5 400" stroke-opacity="0.2" stroke-miterlimit="10" stroke-dasharray=""/><path fill="none" stroke="rgb(0,0,0)" class="dcg-svg-minor-gridline" paint-order="fill stroke markers" d=" M 98.5 0 L 98.5 400" stroke-opacity="0.2" stroke-miterlimit="10" stroke-dasharray=""/><path fill="none" stroke="rgb(0,0,0)" class="dcg-svg-minor-gridline" paint-order="fill stroke markers" d=" M 136.5 0 L 136.5 400" stroke-opacity="0.2" stroke-miterlimit="10" stroke-dasharray=""/><path fill="none" stroke="rgb(0,0,0)" class="dcg-svg-minor-gridline" paint-order="fill stroke markers" d=" M 174.5 0 L 174.5 400" stroke-opacity="0.2" stroke-miterlimit="10" stroke-dasharray=""/><path fill="none" stroke="rgb(0,0,0)" class="dcg-svg-minor-gridline" paint-order="fill stroke markers" d=" M 211.5 0 L 211.5 400" stroke-opacity="0.2" stroke-miterlimit="10" stroke-dasharray=""/><path fill="none" stroke="rgb(0,0,0)" class="dcg-svg-minor-gridline" paint-order="fill stroke markers" d=" M 249.5 0 L 249.5 400" stroke-opacity="0.2" stroke-miterlimit="10" stroke-dasharray=""/><path fill="none" stroke="rgb(0,0,0)" class="dcg-svg-minor-gridline" paint-order="fill stroke markers" d=" M 287.5 0 L 287.5 400" stroke-opacity="0.2" stroke-miterlimit="10" stroke-dasharray=""/><path fill="none" stroke="rgb(0,0,0)" class="dcg-svg-minor-gridline" paint-order="fill stroke markers" d=" M 325.5 0 L 325.5 400" stroke-opacity="0.2" stroke-miterlimit="10" stroke-dasharray=""/><path fill="none" stroke="rgb(0,0,0)" class="dcg-svg-minor-gridline" paint-order="fill stroke markers" d=" M 362.5 0 L 362.5 400" stroke-opacity="0.2" stroke-miterlimit="10" stroke-dasharray=""/><path fill="none" stroke="rgb(0,0,0)" class="dcg-svg-minor-gridline" paint-order="fill stroke markers" d=" M 0 381.5 L 400 381.5" stroke-opacity="0.2" stroke-miterlimit="10" stroke-dasharray=""/><path fill="none" stroke="rgb(0,0,0)" class="dcg-svg-minor-gridline" paint-order="fill stroke markers" d=" M 0 352.5 L 400 352.5" stroke-opacity="0.2" stroke-miterlimit="10" stroke-dasharray=""/><path fill="none" stroke="rgb(0,0,0)" class="dcg-svg-minor-gridline" paint-order="fill stroke markers" d=" M 0 324.5 L 400 324.5" stroke-opacity="0.2" stroke-miterlimit="10" stroke-dasharray=""/><path fill="none" stroke="rgb(0,0,0)" class="dcg-svg-minor-gridline" paint-order="fill stroke markers" d=" M 0 296.5 L 400 296.5" stroke-opacity="0.2" stroke-miterlimit="10" stroke-dasharray=""/><path fill="none" stroke="rgb(0,0,0)" class="dcg-svg-minor-gridline" paint-order="fill stroke markers" d=" M 0 267.5 L 400 267.5" stroke-opacity="0.2" stroke-miterlimit="10" stroke-dasharray=""/><path fill="none" stroke="rgb(0,0,0)" class="dcg-svg-minor-gridline" paint-order="fill stroke markers" d=" M 0 239.5 L 400 239.5" stroke-opacity="0.2" stroke-miterlimit="10" stroke-dasharray=""/><path fill="none" stroke="rgb(0,0,0)" class="dcg-svg-minor-gridline" paint-order="fill stroke markers" d=" M 0 183.5 L 400 183.5" stroke-opacity="0.2" stroke-miterlimit="10" stroke-dasharray=""/><path fill="none" stroke="rgb(0,0,0)" class="dcg-svg-minor-gridline" paint-order="fill stroke markers" d=" M 0 154.5 L 400 154.5" stroke-opacity="0.2" stroke-miterlimit="10" stroke-dasharray=""/><path fill="none" stroke="rgb(0,0,0)" class="dcg-svg-minor-gridline" paint-order="fill stroke markers" d=" M 0 126.5 L 400 126.5" stroke-opacity="0.2" stroke-miterlimit="10" stroke-dasharray=""/><path fill="none" stroke="rgb(0,0,0)" class="dcg-svg-minor-gridline" paint-order="fill stroke markers" d=" M 0 98.5 L 400 98.5" stroke-opacity="0.2" stroke-miterlimit="10" stroke-dasharray=""/><path fill="none" stroke="rgb(0,0,0)" class="dcg-svg-minor-gridline" paint-order="fill stroke markers" d=" M 0 69.5 L 400 69.5" stroke-opacity="0.2" stroke-miterlimit="10" stroke-dasharray=""/><path fill="none" stroke="rgb(0,0,0)" class="dcg-svg-minor-gridline" paint-order="fill stroke markers" d=" M 0 41.5 L 400 41.5" stroke-opacity="0.2" stroke-miterlimit="10" stroke-dasharray=""/><path fill="none" stroke="rgb(0,0,0)" class="dcg-svg-minor-gridline" paint-order="fill stroke markers" d=" M 0 13.5 L 400 13.5" stroke-opacity="0.2" stroke-miterlimit="10" stroke-dasharray=""/><path fill="none" stroke="rgb(0,0,0)" class="dcg-svg-major-gridline" paint-order="fill stroke markers" d=" M 174.5 0 L 174.5 400" stroke-opacity="0.2500000000000001" stroke-miterlimit="10" stroke-dasharray=""/><path fill="none" stroke="rgb(0,0,0)" class="dcg-svg-major-gridline" paint-order="fill stroke markers" d=" M 325.5 0 L 325.5 400" stroke-opacity="0.2500000000000001" stroke-miterlimit="10" stroke-dasharray=""/><path fill="none" stroke="rgb(0,0,0)" class="dcg-svg-major-gridline" paint-order="fill stroke markers" d=" M 0 352.5 L 400 352.5" stroke-opacity="0.2500000000000001" stroke-miterlimit="10" stroke-dasharray=""/><path fill="none" stroke="rgb(0,0,0)" class="dcg-svg-major-gridline" paint-order="fill stroke markers" d=" M 0 69.5 L 400 69.5" stroke-opacity="0.2500000000000001" stroke-miterlimit="10" stroke-dasharray=""/></g></g><g id="axis-0647b534"><g id="yaxis-0647b534"><title>Y axis</title><g><path fill="none" stroke="rgb(0,0,0)" class="dcg-svg-axis-line" paint-order="fill stroke markers" d=" M 24 0 L 24 400" stroke-opacity="0.9" stroke-miterlimit="10" stroke-width="1.5" stroke-dasharray=""/></g></g><g id="xaxis-0647b534"><title>X axis</title><g><path fill="none" stroke="rgb(0,0,0)" class="dcg-svg-axis-line" paint-order="fill stroke markers" d=" M 0 211 L 400 211" stroke-opacity="0.9" stroke-miterlimit="10" stroke-width="1.5" stroke-dasharray=""/></g></g><g><g class="dcg-svg-axis-value"><text fill="none" stroke="#ffffff" font-family="Arial" font-size="14px" font-style="normal" font-weight="normal" text-decoration="normal" x="14.657786580759108" y="227.17331572770735" text-anchor="middle" stroke-miterlimit="2" stroke-width="3" stroke-dasharray="">0</text><text fill="#000000" stroke="none" font-family="Arial" font-size="14px" font-style="normal" font-weight="normal" text-decoration="normal" x="14.657786580759108" y="227.17331572770735" text-anchor="middle">0</text></g><g class="dcg-svg-axis-value"><text fill="none" stroke="#ffffff" font-family="Arial" font-size="14px" font-style="normal" font-weight="normal" text-decoration="normal" x="174.27980520465206" y="227.17331572770735" text-anchor="middle" stroke-miterlimit="2" stroke-width="3" stroke-dasharray="">2π</text><text fill="#000000" stroke="none" font-family="Arial" font-size="14px" font-style="normal" font-weight="normal" text-decoration="normal" x="174.27980520465206" y="227.17331572770735" text-anchor="middle">2π</text></g><g class="dcg-svg-axis-value"><text fill="none" stroke="#ffffff" font-family="Arial" font-size="14px" font-style="normal" font-weight="normal" text-decoration="normal" x="325.00875742229505" y="227.17331572770735" text-anchor="middle" stroke-miterlimit="2" stroke-width="3" stroke-dasharray="">4π</text><text fill="#000000" stroke="none" font-family="Arial" font-size="14px" font-style="normal" font-weight="normal" text-decoration="normal" x="325.00875742229505" y="227.17331572770735" text-anchor="middle">4π</text></g><g class="dcg-svg-axis-value"><text fill="none" stroke="#ffffff" font-family="Arial" font-size="14px" font-style="normal" font-weight="normal" text-decoration="normal" x="13.1171875" y="356.5525676044525" text-anchor="middle" stroke-miterlimit="2" stroke-width="3" stroke-dasharray="">-10</text><text fill="rgb(150,150,150)" stroke="none" font-family="Arial" font-size="14px" font-style="normal" font-weight="normal" text-decoration="normal" x="13.1171875" y="356.5525676044525" text-anchor="middle" fill-opacity="1">-10</text></g><g class="dcg-svg-axis-value"><text fill="none" stroke="#ffffff" font-family="Arial" font-size="14px" font-style="normal" font-weight="normal" text-decoration="normal" x="10.7861328125" y="73.79406385096219" text-anchor="middle" stroke-miterlimit="2" stroke-width="3" stroke-dasharray="">10</text><text fill="rgb(150,150,150)" stroke="none" font-family="Arial" font-size="14px" font-style="normal" font-weight="normal" text-decoration="normal" x="10.7861328125" y="73.79406385096219" text-anchor="middle" fill-opacity="1">10</text></g></g></g></g><g id="expressions-0647b534"><g id="sketch-0647b534"><title>Expression 1</title><path fill="#c74440" stroke="none" paint-order="stroke fill markers" d="" fill-opacity="0.4"/><g><path fill="none" stroke="#c74440" class="dcg-svg-curve" paint-order="fill stroke markers" d=" M 23.550852987009108 69.98606385096218 L 23.550852987009108 69.98606385096218 L 25.01563566021141 71.9623597415083 L 26.578070511627192 74.6057141089016 L 28.238157541256466 77.9914837078395 L 29.995896749099227 82.18871729171622 L 31.85128813515547 87.25751327417966 L 33.901983877638685 93.56213300870799 L 36.147983976548886 101.23056077157878 L 38.58928843188605 110.3596794483802 L 41.421201600077154 121.81882557526531 L 44.7413756593357 136.17786454407397 L 49.1357236789426 156.17561764644887 L 60.0727676388531 206.32402014277412 L 63.68589823275211 221.69190001706363 L 66.81076793558367 234.07803941936024 L 69.5450289255613 244.08532501565136 L 72.08398555911197 252.59376496044734 L 74.42763783623563 259.71897291366867 L 76.67363793514582 265.85018587880086 L 78.82198585584254 271.0484339641811 L 80.87268159832576 275.38413472787363 L 82.82572516259548 278.93358844903446 L 84.68111654865174 281.77605299804907 L 86.53650793470797 284.10082057754875 L 88.29424714255074 285.82704416120043 L 89.85668199396653 286.9756253577788 L 91.32146466716883 287.7265670326431 L 92.68859516215764 288.14717290344805 L 94.05572565714644 288.3019597985682 L 95.42285615213525 288.1964019443191 L 96.78998664712407 287.83671936148335 L 98.25476932032636 287.1772295155806 L 99.81720417174215 286.1715801549015 L 101.47729120137143 284.7749103551776 L 103.33268258742767 282.8332931487396 L 105.3833783299109 280.2480527442116 L 107.72703060703458 276.7722526961744 L 110.16833506237174 272.6176126232907 L 112.80494387413587 267.5932909198016 L 115.83216139875395 261.2451018258786 L 119.34763981443948 253.2646982615142 L 123.93729219047334 242.1963689398633 L 136.33911882358615 211.96009668979994 L 140.14755377391214 203.47956853708047 L 143.46772783317067 196.66945833429014 L 146.49494535778877 191.02541710533922 L 149.32685852597984 186.29292345543047 L 152.0611195159575 182.26672572127484 L 154.69772832772162 178.91756733531093 L 157.1390327830588 176.29986402361567 L 159.38503288196898 174.31025374290306 L 161.4357286244522 172.84686126355538 L 163.38877218872196 171.7663076193114 L 165.34181575299166 170.98879033082437 L 167.1972071390479 170.5268146628785 L 169.05259852510417 170.3289554222209 L 170.90798991116043 170.38837816731356 L 172.86103347543013 170.719843985538 L 174.81407703969987 171.31619724138193 L 176.8647727821831 172.2137254249992 L 179.11077288109328 173.4969055862903 L 181.55207733643044 175.22138768942364 L 184.1886861481946 177.43365268623708 L 187.1182514945992 180.26680936431686 L 190.5360777320712 183.9911792863095 L 194.63746921703765 188.91918507600508 L 200.39894773163337 196.36250534149696 L 211.8242525826113 211.19631170615352 L 216.41390495864513 216.5905729485091 L 220.22233990897118 220.62618424807258 L 223.64016614644316 223.83856151325446 L 226.76503584927474 226.39717350672353 L 229.69460119567935 228.44386880588763 L 232.428862185657 230.03334792849373 L 235.06547099742113 231.26577081581075 L 237.60442763097177 232.17151563754786 L 240.1433842645224 232.80262197121485 L 242.68234089807308 233.16328224898731 L 245.22129753162372 233.2605969523427 L 247.85790634338787 233.09346042027536 L 250.494515155152 232.666736072211 L 253.32642832334312 231.93803213303082 L 256.25599366974774 230.91377567974175 L 259.47851555079274 229.50333732581677 L 262.99399396647823 227.67295041965068 L 267.0953854514447 225.22707935775918 L 272.2709508967595 221.8034088225655 L 291.6060821830299 208.68056707336828 L 296.0004302026367 206.20578990186777 L 300.0041695093897 204.25260835922495 L 303.7149522815022 202.73191762909408 L 307.23043069718767 201.566975850758 L 310.6482569346597 200.70132829715203 L 314.0660831721318 200.1020773679536 L 317.4839094096038 199.76674099148158 L 320.9993878252893 199.6889564913625 L 324.6125184191884 199.8769029953188 L 328.32330119130086 200.3315231193299 L 332.32704049805375 201.08854201147003 L 336.72138851766067 202.19225298337912 L 341.79930178476195 203.7499330110838 L 348.2443455468522 206.02053651999356 L 367.091215942055 212.83605101285022 L 372.6573901002238 214.4721390787189 L 377.73530336732506 215.69524575010587 L 382.5202600997859 216.58094825457854 L 387.20756465403326 217.18233826721817 L 391.8948692082806 217.5170793144334 L 396.67982594074147 217.59139269818695 L 400 217.49316595585913" stroke-linecap="round" stroke-linejoin="round" stroke-miterlimit="10" stroke-width="2.5" stroke-dasharray=""/></g></g></g><g id="labels-0647b534"/><g id="labels-0647b534"/></g></svg>