<svg version="1.1" xmlns="http://www.w3.org/2000/svg" xmlns:xlink="http://www.w3.org/1999/xlink" width="800" height="800"><defs/><g transform="scale(2,2)"><g id="background-df0ce340"><rect fill="white" stroke="none" x="0" y="0" width="400" height="400" class="dcg-svg-background"/></g><g id="graphpaper-df0ce340"><g id="grid-df0ce340"><g><path fill="none" stroke="rgb(0,0,0)" class="dcg-svg-minor-gridline" paint-order="fill stroke markers" d=" M 8.5 0 L 8.5 400" stroke-opacity="0.2" stroke-miterlimit="10" stroke-dasharray=""/><path fill="none" stroke="rgb(0,0,0)" class="dcg-svg-minor-gridline" paint-order="fill stroke markers" d=" M 24.5 0 L 24.5 400" stroke-opacity="0.2" stroke-miterlimit="10" stroke-dasharray=""/><path fill="none" stroke="rgb(0,0,0)" class="dcg-svg-minor-gridline" paint-order="fill stroke markers" d=" M 40.5 0 L 40.5 400" stroke-opacity="0.2" stroke-miterlimit="10" stroke-dasharray=""/><path fill="none" stroke="rgb(0,0,0)" class="dcg-svg-minor-gridline" paint-order="fill stroke markers" d=" M 56.5 0 L 56.5 400" stroke-opacity="0.2" stroke-miterlimit="10" stroke-dasharray=""/><path fill="none" stroke="rgb(0,0,0)" class="dcg-svg-minor-gridline" paint-order="fill stroke markers" d=" M 72.5 0 L 72.5 400" stroke-opacity="0.2" stroke-miterlimit="10" stroke-dasharray=""/><path fill="none" stroke="rgb(0,0,0)" class="dcg-svg-minor-gridline" paint-order="fill stroke markers" d=" M 88.5 0 L 88.5 400" stroke-opacity="0.2" stroke-miterlimit="10" stroke-dasharray=""/><path fill="none" stroke="rgb(0,0,0)" class="dcg-svg-minor-gridline" paint-order="fill stroke markers" d=" M 104.5 0 L 104.5 400" stroke-opacity="0.2" stroke-miterlimit="10" stroke-dasharray=""/><path fill="none" stroke="rgb(0,0,0)" class="dcg-svg-minor-gridline" paint-order="fill stroke markers" d=" M 120.5 0 L 120.5 400" stroke-opacity="0.2" stroke-miterlimit="10" stroke-dasharray=""/><path fill="none" stroke="rgb(0,0,0)" class="dcg-svg-minor-gridline" paint-order="fill stroke markers" d=" M 136.5 0 L 136.5 400" stroke-opacity="0.2" stroke-miterlimit="10" stroke-dasharray=""/><path fill="none" stroke="rgb(0,0,0)" class="dcg-svg-minor-gridline" paint-order="fill stroke markers" d=" M 152.5 0 L 152.5 400" stroke-opacity="0.2" stroke-miterlimit="10" stroke-dasharray=""/><path fill="none" stroke="rgb(0,0,0)" class="dcg-svg-minor-gridline" paint-order="fill stroke markers" d=" M 168.5 0 L 168.5 400" stroke-opacity="0.2" stroke-miterlimit="10" stroke-dasharray=""/><path fill="none" stroke="rgb(0,0,0)" class="dcg-svg-minor-gridline" paint-order="fill stroke markers" d=" M 184.5 0 L 184.5 400" stroke-opacity="0.2" stroke-miterlimit="10" stroke-dasharray=""/><path fill="none" stroke="rgb(0,0,0)" class="dcg-svg-minor-gridline" paint-order="fill stroke markers" d=" M 216.5 0 L 216.5 400" stroke-opacity="0.2" stroke-miterlimit="10" stroke-dasharray=""/><path fill="none" stroke="rgb(0,0,0)" class="dcg-svg-minor-gridline" paint-order="fill stroke markers" d=" M 232.5 0 L 232.5 400" stroke-opacity="0.2" stroke-miterlimit="10" stroke-dasharray=""/><path fill="none" stroke="rgb(0,0,0)" class="dcg-svg-minor-gridline" paint-order="fill stroke markers" d=" M 248.5 0 L 248.5 400" stroke-opacity="0.2" stroke-miterlimit="10" stroke-dasharray=""/><path fill="none" stroke="rgb(0,0,0)" class="dcg-svg-minor-gridline" paint-order="fill stroke markers" d=" M 264.5 0 L 264.5 400" stroke-opacity="0.2" stroke-miterlimit="10" stroke-dasharray=""/><path fill="none" stroke="rgb(0,0,0)" class="dcg-svg-minor-gridline" paint-order="fill stroke markers" d=" M 280.5 0 L 280.5 400" stroke-opacity="0.2" stroke-miterlimit="10" stroke-dasharray=""/><path fill="none" stroke="rgb(0,0,0)" class="dcg-svg-minor-gridline" paint-order="fill stroke markers" d=" M 296.5 0 L 296.5 400" stroke-opacity="0.2" stroke-miterlimit="10" stroke-dasharray=""/><path fill="none" stroke="rgb(0,0,0)" class="dcg-svg-minor-gridline" paint-order="fill stroke markers" d=" M 312.5 0 L 312.5 400" stroke-opacity="0.2" stroke-miterlimit="10" stroke-dasharray=""/><path fill="none" stroke="rgb(0,0,0)" class="dcg-svg-minor-gridline" paint-order="fill stroke markers" d=" M 328.5 0 L 328.5 400" stroke-opacity="0.2" stroke-miterlimit="10" stroke-dasharray=""/><path fill="none" stroke="rgb(0,0,0)" class="dcg-svg-minor-gridline" paint-order="fill stroke markers" d=" M 344.5 0 L 344.5 400" stroke-opacity="0.2" stroke-miterlimit="10" stroke-dasharray=""/><path fill="none" stroke="rgb(0,0,0)" class="dcg-svg-minor-gridline" paint-order="fill stroke markers" d=" M 360.5 0 L 360.5 400" stroke-opacity="0.2" stroke-miterlimit="10" stroke-dasharray=""/><path fill="none" stroke="rgb(0,0,0)" class="dcg-svg-minor-gridline" paint-order="fill stroke markers" d=" M 376.5 0 L 376.5 400" stroke-opacity="0.2" stroke-miterlimit="10" stroke-dasharray=""/><path fill="none" stroke="rgb(0,0,0)" class="dcg-svg-minor-gridline" paint-order="fill stroke markers" d=" M 392.5 0 L 392.5 400" stroke-opacity="0.2" stroke-miterlimit="10" stroke-dasharray=""/><path fill="none" stroke="rgb(0,0,0)" class="dcg-svg-minor-gridline" paint-order="fill stroke markers" d=" M 0 366.5 L 400 366.5" stroke-opacity="0.2" stroke-miterlimit="10" stroke-dasharray=""/><path fill="none" stroke="rgb(0,0,0)" class="dcg-svg-minor-gridline" paint-order="fill stroke markers" d=" M 0 333.5 L 400 333.5" stroke-opacity="0.2" stroke-miterlimit="10" stroke-dasharray=""/><path fill="none" stroke="rgb(0,0,0)" class="dcg-svg-minor-gridline" paint-order="fill stroke markers" d=" M 0 300.5 L 400 300.5" stroke-opacity="0.2" stroke-miterlimit="10" stroke-dasharray=""/><path fill="none" stroke="rgb(0,0,0)" class="dcg-svg-minor-gridline" paint-order="fill stroke markers" d=" M 0 233.5 L 400 233.5" stroke-opacity="0.2" stroke-miterlimit="10" stroke-dasharray=""/><path fill="none" stroke="rgb(0,0,0)" class="dcg-svg-minor-gridline" paint-order="fill stroke markers" d=" M 0 200.5 L 400 200.5" stroke-opacity="0.2" stroke-miterlimit="10" stroke-dasharray=""/><path fill="none" stroke="rgb(0,0,0)" class="dcg-svg-minor-gridline" paint-order="fill stroke markers" d=" M 0 166.5 L 400 166.5" stroke-opacity="0.2" stroke-miterlimit="10" stroke-dasharray=""/><path fill="none" stroke="rgb(0,0,0)" class="dcg-svg-minor-gridline" paint-order="fill stroke markers" d=" M 0 133.5 L 400 133.5" stroke-opacity="0.2" stroke-miterlimit="10" stroke-dasharray=""/><path fill="none" stroke="rgb(0,0,0)" class="dcg-svg-minor-gridline" paint-order="fill stroke markers" d=" M 0 100.5 L 400 100.5" stroke-opacity="0.2" stroke-miterlimit="10" stroke-dasharray=""/><path fill="none" stroke="rgb(0,0,0)" class="dcg-svg-minor-gridline" paint-order="fill stroke markers" d=" M 0 66.5 L 400 66.5" stroke-opacity="0.2" stroke-miterlimit="10" stroke-dasharray=""/><path fill="none" stroke="rgb(0,0,0)" class="dcg-svg-minor-gridline" paint-order="fill stroke markers" d=" M 0 33.5 L 400 33.5" stroke-opacity="0.2" stroke-miterlimit="10" stroke-dasharray=""/><path fill="none" stroke="rgb(0,0,0)" class="dcg-svg-major-gridline" paint-order="fill stroke markers" d=" M 40.5 0 L 40.5 400" stroke-opacity="0.2500000000000001" stroke-miterlimit="10" stroke-dasharray=""/><path fill="none" stroke="rgb(0,0,0)" class="dcg-svg-major-gridline" paint-order="fill stroke markers" d=" M 120.5 0 L 120.5 400" stroke-opacity="0.2500000000000001" stroke-miterlimit="10" stroke-dasharray=""/><path fill="none" stroke="rgb(0,0,0)" class="dcg-svg-major-gridline" paint-order="fill stroke markers" d=" M 280.5 0 L 280.5 400" stroke-opacity="0.2500000000000001" stroke-miterlimit="10" stroke-dasharray=""/><path fill="none" stroke="rgb(0,0,0)" class="dcg-svg-major-gridline" paint-order="fill stroke markers" d=" M 360.5 0 L 360.5 400" stroke-opacity="0.2500000000000001" stroke-miterlimit="10" stroke-dasharray=""/><path fill="none" stroke="rgb(0,0,0)" class="dcg-svg-major-gridline" paint-order="fill stroke markers" d=" M 0 100.5 L 400 100.5" stroke-opacity="0.2500000000000001" stroke-miterlimit="10" stroke-dasharray=""/></g></g><g id="axis-df0ce340"><g id="yaxis-df0ce340"><title>Y axis</title><g><path fill="none" stroke="rgb(0,0,0)" class="dcg-svg-axis-line" paint-order="fill stroke markers" d=" M 200 0 L 200 400" stroke-opacity="0.9" stroke-miterlimit="10" stroke-width="1.5" stroke-dasharray=""/></g></g><g id="xaxis-df0ce340"><title>X axis</title><g><path fill="none" stroke="rgb(0,0,0)" class="dcg-svg-axis-line" paint-order="fill stroke markers" d=" M 0 267 L 400 267" stroke-opacity="0.9" stroke-miterlimit="10" stroke-width="1.5" stroke-dasharray=""/></g></g><g><g class="dcg-svg-axis-value"><text fill="none" stroke="#ffffff" font-family="Arial" font-size="14px" font-style="normal" font-weight="normal" text-decoration="normal" x="191.10693359375" y="282.4746666666667" text-anchor="middle" stroke-miterlimit="2" stroke-width="3" stroke-dasharray="">0</text><text fill="#000000" stroke="none" font-family="Arial" font-size="14px" font-style="normal" font-weight="normal" text-decoration="normal" x="191.10693359375" y="282.4746666666667" text-anchor="middle">0</text></g><g class="dcg-svg-axis-value"><text fill="none" stroke="#ffffff" font-family="Arial" font-size="14px" font-style="normal" font-weight="normal" text-decoration="normal" x="37.6689453125" y="282.4746666666667" text-anchor="middle" stroke-miterlimit="2" stroke-width="3" stroke-dasharray="">-20</text><text fill="#000000" stroke="none" font-family="Arial" font-size="14px" font-style="normal" font-weight="normal" text-decoration="normal" x="37.6689453125" y="282.4746666666667" text-anchor="middle">-20</text></g><g class="dcg-svg-axis-value"><text fill="none" stroke="#ffffff" font-family="Arial" font-size="14px" font-style="normal" font-weight="normal" text-decoration="normal" x="117.6689453125" y="282.4746666666667" text-anchor="middle" stroke-miterlimit="2" stroke-width="3" stroke-dasharray="">-10</text><text fill="#000000" stroke="none" font-family="Arial" font-size="14px" font-style="normal" font-weight="normal" text-decoration="normal" x="117.6689453125" y="282.4746666666667" text-anchor="middle">-10</text></g><g class="dcg-svg-axis-value"><text fill="none" stroke="#ffffff" font-family="Arial" font-size="14px" font-style="normal" font-weight="normal" text-decoration="normal" x="280" y="282.4746666666667" text-anchor="middle" stroke-miterlimit="2" stroke-width="3" stroke-dasharray="">10</text><text fill="#000000" stroke="none" font-family="Arial" font-size="14px" font-style="normal" font-weight="normal" text-decoration="normal" x="280" y="282.4746666666667" text-anchor="middle">10</text></g><g class="dcg-svg-axis-value"><text fill="none" stroke="#ffffff" font-family="Arial" font-size="14px" font-style="normal" font-weight="normal" text-decoration="normal" x="360" y="282.4746666666667" text-anchor="middle" stroke-miterlimit="2" stroke-width="3" stroke-dasharray="">20</text><text fill="#000000" stroke="none" font-family="Arial" font-size="14px" font-style="normal" font-weight="normal" text-decoration="normal" x="360" y="282.4746666666667" text-anchor="middle">20</text></g><g class="dcg-svg-axis-value"><text fill="none" stroke="#ffffff" font-family="Arial" font-size="14px" font-style="normal" font-weight="normal" text-decoration="normal" x="187.2138671875" y="103.808" text-anchor="middle" stroke-miterlimit="2" stroke-width="3" stroke-dasharray="">50</text><text fill="#000000" stroke="none" font-family="Arial" font-size="14px" font-style="normal" font-weight="normal" text-decoration="normal" x="187.2138671875" y="103.808" text-anchor="middle">50</text></g></g></g></g><g id="expressions-df0ce340"><g id="sketch-df0ce340"><title>Expression 1</title><path fill="#c74440" stroke="none" paint-order="stroke fill markers" d="" fill-opacity="0.4"/><g><path fill="none" stroke="#c74440" class="dcg-svg-curve" paint-order="fill stroke markers" d=" M 113.23342015071317 405.5 L 113.23342015071317 405.5 L 114.453125 376.04378020684334 L 116.40625 333.53353423105244 L 118.26171875 297.2392871387025 L 120.1171875 264.7206858452061 L 121.875 237.21359024445218 L 123.6328125 212.746528813697 L 125.29296875 192.2823920468569 L 126.953125 174.24866390708002 L 128.515625 159.37761426381866 L 129.98046875 147.1892195782881 L 131.4453125 136.6086523372739 L 132.8125 128.1089992883305 L 134.1796875 120.86806555056836 L 135.44921875 115.21335834763943 L 136.62109375 110.8610407018001 L 137.79296875 107.30009487097288 L 138.8671875 104.69736571362017 L 139.94140625 102.696569553225 L 141.015625 101.26836504265765 L 141.9921875 100.44261216502645 L 142.87109375 100.06606787008207 L 143.65234375 100.01012508403403 L 144.43359375 100.20553430101938 L 145.3125 100.71284190441173 L 146.2890625 101.61637678687993 L 147.4609375 103.1459864403966 L 148.73046875 105.31474850686448 L 150.09765625 108.19911628934972 L 151.5625 111.86505720640224 L 153.22265625 116.66506120511951 L 155.078125 122.74061599806981 L 157.2265625 130.56781785930224 L 159.765625 140.6929987663413 L 162.890625 154.08436819622392 L 167.96875 176.9249959945834 L 173.53515625 201.69369103107567 L 176.85546875 215.53805234780395 L 179.6875 226.45852581287426 L 182.12890625 235.0585071044203 L 184.375 242.20547924439114 L 186.42578125 248.0255741860243 L 188.37890625 252.89582692401166 L 190.13671875 256.6869239816266 L 191.89453125 259.8933124632846 L 193.5546875 262.36745770769784 L 195.1171875 264.19239165956395 L 196.484375 265.3816926706592 L 197.75390625 266.14156662979224 L 198.92578125 266.5464856394034 L 200.09765625 266.6656732574007 L 201.171875 266.52364621465193 L 202.34375 266.0949532039619 L 203.515625 265.3816926706592 L 204.78515625 264.2900210846416 L 206.25 262.62249151865643 L 207.8125 260.3694708707432 L 209.47265625 257.4507146166321 L 211.23046875 253.78771448195278 L 213.0859375 249.30625772835054 L 215.0390625 243.93952867252818 L 217.08984375 237.63181958450116 L 219.3359375 229.9961401601119 L 221.77734375 220.9260797373896 L 224.609375 209.5507917058664 L 228.02734375 194.88371963255088 L 233.30078125 171.16737347201035 L 238.671875 147.28634131667303 L 241.69921875 134.74988338962487 L 244.140625 125.49667379995907 L 246.19140625 118.50766323412029 L 248.046875 112.93568249154004 L 249.70703125 108.65476476474453 L 251.171875 105.50246669505822 L 252.5390625 103.1459864403966 L 253.80859375 101.51045945028966 L 254.8828125 100.5745072685765 L 255.76171875 100.13369023077087 L 256.5685424949238 100 L 257.32421875 100.12056259561413 L 258.10546875 100.50557415034072 L 258.984375 101.26836504265762 L 259.9609375 102.54350877370749 L 260.9375 104.28967938447991 L 262.01171875 106.78076031658983 L 263.0859375 109.89816769291943 L 264.2578125 114.04890137750195 L 265.4296875 119.02109608821925 L 266.69921875 125.3819324377697 L 267.96875 132.8075005769885 L 269.3359375 142.05675402048809 L 270.703125 152.67180869183602 L 272.16796875 165.64014244713928 L 273.6328125 180.34432923708817 L 275.1953125 198.0429752617435 L 276.85546875 219.24749924856098 L 278.515625 243.05771593414346 L 280.2734375 271.26300660678834 L 282.03125 302.7137070059932 L 283.88671875 339.6228461186662 L 285.7421875 380.54689975946684 L 286.7650302603931 405.5" stroke-linecap="round" stroke-linejoin="round" stroke-miterlimit="10" stroke-width="2.5" stroke-dasharray=""/></g></g><g id="sketch-df0ce340"><title>Expression 2</title><path fill="#000000" stroke="none" paint-order="stroke fill markers" d="" fill-opacity="0.4"/><g><path fill="none" stroke="#000000" class="dcg-svg-curve" paint-order="fill stroke markers" d=" M 19.650049088720767 -5.5 L 19.650049088720767 -5.5 L 25.68359375 16.810317834218353 L 31.93359375 39.100865523020445 L 38.0859375 60.24829546610516 L 44.140625 80.290158589681 L 50.09765625 99.26340977350873 L 55.95703125 117.2044078509013 L 61.71875 134.14891560872397 L 67.48046875 150.40181080500287 L 73.14453125 165.70510466893515 L 78.7109375 180.09336789449057 L 84.1796875 193.6005751291911 L 89.6484375 206.48471514383954 L 95.01953125 218.53230396906537 L 100.29296875 229.77612415949505 L 105.56640625 240.44058720270795 L 110.7421875 250.34419695536297 L 115.91796875 259.6897085507711 L 120.99609375 268.31648747126263 L 126.07421875 276.40602986017865 L 131.0546875 283.81816546122235 L 136.03515625 290.7135287920634 L 141.015625 297.09211985270184 L 145.80078125 302.7337988217672 L 150.390625 307.69697825113934 L 154.8828125 312.1295770009359 L 159.1796875 315.9760634104411 L 163.37890625 319.3634947141012 L 167.48046875 322.31750090916955 L 171.484375 324.86311594645184 L 175.390625 327.024777730306 L 179.19921875 328.8263281186422 L 182.91015625 330.2910129229228 L 186.5234375 331.4414819081625 L 190.13671875 332.3199550310771 L 193.75 332.9264322916667 L 197.265625 333.25544993082684 L 200.78125 333.3269755045573 L 204.296875 333.1410090128581 L 207.8125 332.6975504557292 L 211.328125 331.9965998331706 L 214.94140625 331.0078581174215 L 218.5546875 329.74712053934735 L 222.265625 328.1691869099935 L 225.9765625 326.3043562571208 L 229.78515625 324.09212986628216 L 233.69140625 321.50926192601526 L 237.6953125 318.53191057840985 L 241.796875 315.1356379191081 L 245.99609375 311.2954099973043 L 250.390625 306.883176167806 L 254.8828125 301.9570509592692 L 259.5703125 296.3685194651286 L 264.35546875 290.191392103831 L 269.3359375 283.25549761454266 L 274.31640625 275.8028308550517 L 279.296875 267.8333918253581 L 284.375 259.17561848958337 L 289.453125 249.9806086222331 L 294.62890625 240.05593856175742 L 299.8046875 229.57317034403485 L 305.078125 218.3186213175456 L 310.3515625 206.48471514383954 L 315.72265625 193.8361128171285 L 321.19140625 180.34003178278607 L 326.66015625 166.22088352839154 L 332.2265625 151.2097517649333 L 337.890625 135.27266184488934 L 343.65234375 118.37504307428998 L 349.4140625 100.78581174214682 L 355.2734375 82.18916257222494 L 361.23046875 62.54933277765912 L 367.28515625 41.82996352513632 L 373.4375 19.994099934895843 L 379.6875 -2.9958089192708144 L 380.3450106837607 -5.5" stroke-linecap="round" stroke-linejoin="round" stroke-miterlimit="10" stroke-width="2.5" stroke-dasharray=""/></g></g></g><g id="labels-df0ce340"/><g id="labels-df0ce340"/></g></svg>