<svg version="1.1" xmlns="http://www.w3.org/2000/svg" xmlns:xlink="http://www.w3.org/1999/xlink" width="800" height="800"><defs/><g transform="scale(2,2)"><g id="background-88267a49"><rect fill="white" stroke="none" x="0" y="0" width="400" height="400" class="dcg-svg-background"/></g><g id="graphpaper-88267a49"><g id="grid-88267a49"><g><path fill="none" stroke="rgb(0,0,0)" class="dcg-svg-minor-gridline" paint-order="fill stroke markers" d=" M 0 237.5 L 400 237.5" stroke-opacity="0.2" stroke-miterlimit="10" stroke-dasharray=""/><path fill="none" stroke="rgb(0,0,0)" class="dcg-svg-minor-gridline" paint-order="fill stroke markers" d=" M 0 129.5 L 400 129.5" stroke-opacity="0.2" stroke-miterlimit="10" stroke-dasharray=""/><path fill="none" stroke="rgb(0,0,0)" class="dcg-svg-minor-gridline" paint-order="fill stroke markers" d=" M 0 21.5 L 400 21.5" stroke-opacity="0.2" stroke-miterlimit="10" stroke-dasharray=""/><path fill="none" stroke="rgb(0,0,0)" class="dcg-svg-major-gridline" paint-order="fill stroke markers" d=" M 19.5 0 L 19.5 400" stroke-opacity="0.3726188414410926" stroke-miterlimit="10" stroke-dasharray=""/><path fill="none" stroke="rgb(0,0,0)" class="dcg-svg-major-gridline" paint-order="fill stroke markers" d=" M 95.5 0 L 95.5 400" stroke-opacity="0.3726188414410926" stroke-miterlimit="10" stroke-dasharray=""/><path fill="none" stroke="rgb(0,0,0)" class="dcg-svg-major-gridline" paint-order="fill stroke markers" d=" M 171.5 0 L 171.5 400" stroke-opacity="0.3726188414410926" stroke-miterlimit="10" stroke-dasharray=""/><path fill="none" stroke="rgb(0,0,0)" class="dcg-svg-major-gridline" paint-order="fill stroke markers" d=" M 247.5 0 L 247.5 400" stroke-opacity="0.3726188414410926" stroke-miterlimit="10" stroke-dasharray=""/><path fill="none" stroke="rgb(0,0,0)" class="dcg-svg-major-gridline" paint-order="fill stroke markers" d=" M 323.5 0 L 323.5 400" stroke-opacity="0.3726188414410926" stroke-miterlimit="10" stroke-dasharray=""/><path fill="none" stroke="rgb(0,0,0)" class="dcg-svg-major-gridline" paint-order="fill stroke markers" d=" M 38.5 0 L 38.5 400" stroke-opacity="0.3726188414410926" stroke-miterlimit="10" stroke-dasharray=""/><path fill="none" stroke="rgb(0,0,0)" class="dcg-svg-major-gridline" paint-order="fill stroke markers" d=" M 57.5 0 L 57.5 400" stroke-opacity="0.3726188414410926" stroke-miterlimit="10" stroke-dasharray=""/><path fill="none" stroke="rgb(0,0,0)" class="dcg-svg-major-gridline" paint-order="fill stroke markers" d=" M 76.5 0 L 76.5 400" stroke-opacity="0.3726188414410926" stroke-miterlimit="10" stroke-dasharray=""/><path fill="none" stroke="rgb(0,0,0)" class="dcg-svg-major-gridline" paint-order="fill stroke markers" d=" M 114.5 0 L 114.5 400" stroke-opacity="0.3726188414410926" stroke-miterlimit="10" stroke-dasharray=""/><path fill="none" stroke="rgb(0,0,0)" class="dcg-svg-major-gridline" paint-order="fill stroke markers" d=" M 133.5 0 L 133.5 400" stroke-opacity="0.3726188414410926" stroke-miterlimit="10" stroke-dasharray=""/><path fill="none" stroke="rgb(0,0,0)" class="dcg-svg-major-gridline" paint-order="fill stroke markers" d=" M 152.5 0 L 152.5 400" stroke-opacity="0.3726188414410926" stroke-miterlimit="10" stroke-dasharray=""/><path fill="none" stroke="rgb(0,0,0)" class="dcg-svg-major-gridline" paint-order="fill stroke markers" d=" M 190.5 0 L 190.5 400" stroke-opacity="0.3726188414410926" stroke-miterlimit="10" stroke-dasharray=""/><path fill="none" stroke="rgb(0,0,0)" class="dcg-svg-major-gridline" paint-order="fill stroke markers" d=" M 209.5 0 L 209.5 400" stroke-opacity="0.3726188414410926" stroke-miterlimit="10" stroke-dasharray=""/><path fill="none" stroke="rgb(0,0,0)" class="dcg-svg-major-gridline" paint-order="fill stroke markers" d=" M 228.5 0 L 228.5 400" stroke-opacity="0.3726188414410926" stroke-miterlimit="10" stroke-dasharray=""/><path fill="none" stroke="rgb(0,0,0)" class="dcg-svg-major-gridline" paint-order="fill stroke markers" d=" M 266.5 0 L 266.5 400" stroke-opacity="0.3726188414410926" stroke-miterlimit="10" stroke-dasharray=""/><path fill="none" stroke="rgb(0,0,0)" class="dcg-svg-major-gridline" paint-order="fill stroke markers" d=" M 285.5 0 L 285.5 400" stroke-opacity="0.3726188414410926" stroke-miterlimit="10" stroke-dasharray=""/><path fill="none" stroke="rgb(0,0,0)" class="dcg-svg-major-gridline" paint-order="fill stroke markers" d=" M 304.5 0 L 304.5 400" stroke-opacity="0.3726188414410926" stroke-miterlimit="10" stroke-dasharray=""/><path fill="none" stroke="rgb(0,0,0)" class="dcg-svg-major-gridline" paint-order="fill stroke markers" d=" M 342.5 0 L 342.5 400" stroke-opacity="0.3726188414410926" stroke-miterlimit="10" stroke-dasharray=""/><path fill="none" stroke="rgb(0,0,0)" class="dcg-svg-major-gridline" paint-order="fill stroke markers" d=" M 361.5 0 L 361.5 400" stroke-opacity="0.3726188414410926" stroke-miterlimit="10" stroke-dasharray=""/><path fill="none" stroke="rgb(0,0,0)" class="dcg-svg-major-gridline" paint-order="fill stroke markers" d=" M 380.5 0 L 380.5 400" stroke-opacity="0.3726188414410926" stroke-miterlimit="10" stroke-dasharray=""/><path fill="none" stroke="rgb(0,0,0)" class="dcg-svg-major-gridline" paint-order="fill stroke markers" d=" M 0 237.5 L 400 237.5" stroke-opacity="0.2500000000000001" stroke-miterlimit="10" stroke-dasharray=""/><path fill="none" stroke="rgb(0,0,0)" class="dcg-svg-major-gridline" paint-order="fill stroke markers" d=" M 0 129.5 L 400 129.5" stroke-opacity="0.2500000000000001" stroke-miterlimit="10" stroke-dasharray=""/><path fill="none" stroke="rgb(0,0,0)" class="dcg-svg-major-gridline" paint-order="fill stroke markers" d=" M 0 21.5 L 400 21.5" stroke-opacity="0.2500000000000001" stroke-miterlimit="10" stroke-dasharray=""/></g></g><g id="axis-88267a49"><g id="yaxis-88267a49"><title>Y axis</title><g><path fill="none" stroke="rgb(0,0,0)" class="dcg-svg-axis-line" paint-order="fill stroke markers" d=" M -Infinity 0 L -Infinity 400" stroke-opacity="0.9" stroke-miterlimit="10" stroke-width="1.5" stroke-dasharray=""/></g></g><g id="xaxis-88267a49"><title>X axis</title><g><path fill="none" stroke="rgb(0,0,0)" class="dcg-svg-axis-line" paint-order="fill stroke markers" d=" M 0 346 L 400 346" stroke-opacity="0.9" stroke-miterlimit="10" stroke-width="1.5" stroke-dasharray=""/></g></g><g><g class="dcg-svg-axis-value"><text fill="none" stroke="#ffffff" font-family="Arial" font-size="14px" font-style="normal" font-weight="normal" text-decoration="normal" x="-Infinity" y="361.75394594594593" text-anchor="middle" stroke-miterlimit="2" stroke-width="3" stroke-dasharray="">0</text><text fill="#000000" stroke="none" font-family="Arial" font-size="14px" font-style="normal" font-weight="normal" text-decoration="normal" x="-Infinity" y="361.75394594594593" text-anchor="middle">0</text></g><g class="dcg-svg-axis-value"><text fill="none" stroke="#ffffff" font-family="Arial" font-size="14px" font-style="normal" font-weight="normal" text-decoration="normal" x="95.23809523809526" y="366.55394594594594" text-anchor="middle" stroke-miterlimit="2" stroke-width="3" stroke-dasharray="">10</text><text fill="none" stroke="#ffffff" font-family="Arial" font-size="14px" font-style="normal" font-weight="normal" text-decoration="normal" x="107.91460890997026" y="360.25394594594593" text-anchor="middle" stroke-miterlimit="2" stroke-width="3" stroke-dasharray="">-4</text><text fill="#000000" stroke="none" font-family="Arial" font-size="14px" font-style="normal" font-weight="normal" text-decoration="normal" x="95.23809523809526" y="366.55394594594594" text-anchor="middle">10</text><text fill="#000000" stroke="none" font-family="Arial" font-size="14px" font-style="normal" font-weight="normal" text-decoration="normal" x="107.91460890997026" y="360.25394594594593" text-anchor="middle">-4</text></g><g class="dcg-svg-axis-value"><text fill="none" stroke="#ffffff" font-family="Arial" font-size="14px" font-style="normal" font-weight="normal" text-decoration="normal" x="171.42857142857144" y="361.75394594594593" text-anchor="middle" stroke-miterlimit="2" stroke-width="3" stroke-dasharray="">1</text><text fill="#000000" stroke="none" font-family="Arial" font-size="14px" font-style="normal" font-weight="normal" text-decoration="normal" x="171.42857142857144" y="361.75394594594593" text-anchor="middle">1</text></g><g class="dcg-svg-axis-value"><text fill="none" stroke="#ffffff" font-family="Arial" font-size="14px" font-style="normal" font-weight="normal" text-decoration="normal" x="247.61904761904765" y="366.55394594594594" text-anchor="middle" stroke-miterlimit="2" stroke-width="3" stroke-dasharray="">10</text><text fill="none" stroke="#ffffff" font-family="Arial" font-size="14px" font-style="normal" font-weight="normal" text-decoration="normal" x="258.46401832217265" y="360.25394594594593" text-anchor="middle" stroke-miterlimit="2" stroke-width="3" stroke-dasharray="">4</text><text fill="#000000" stroke="none" font-family="Arial" font-size="14px" font-style="normal" font-weight="normal" text-decoration="normal" x="247.61904761904765" y="366.55394594594594" text-anchor="middle">10</text><text fill="#000000" stroke="none" font-family="Arial" font-size="14px" font-style="normal" font-weight="normal" text-decoration="normal" x="258.46401832217265" y="360.25394594594593" text-anchor="middle">4</text></g><g class="dcg-svg-axis-value"><text fill="none" stroke="#ffffff" font-family="Arial" font-size="14px" font-style="normal" font-weight="normal" text-decoration="normal" x="323.80952380952385" y="366.55394594594594" text-anchor="middle" stroke-miterlimit="2" stroke-width="3" stroke-dasharray="">10</text><text fill="none" stroke="#ffffff" font-family="Arial" font-size="14px" font-style="normal" font-weight="normal" text-decoration="normal" x="334.65449451264885" y="360.25394594594593" text-anchor="middle" stroke-miterlimit="2" stroke-width="3" stroke-dasharray="">8</text><text fill="#000000" stroke="none" font-family="Arial" font-size="14px" font-style="normal" font-weight="normal" text-decoration="normal" x="323.80952380952385" y="366.55394594594594" text-anchor="middle">10</text><text fill="#000000" stroke="none" font-family="Arial" font-size="14px" font-style="normal" font-weight="normal" text-decoration="normal" x="334.65449451264885" y="360.25394594594593" text-anchor="middle">8</text></g><g class="dcg-svg-axis-value dcg-svg-offcenter-axis-value"><text fill="none" stroke="#ffffff" font-family="Arial" font-size="14px" font-style="normal" font-weight="normal" text-decoration="normal" x="376.978515625" y="366.55394594594594" text-anchor="middle" stroke-miterlimit="2" stroke-width="3" stroke-dasharray="">10</text><text fill="none" stroke="#ffffff" font-family="Arial" font-size="14px" font-style="normal" font-weight="normal" text-decoration="normal" x="390.88232421875" y="360.25394594594593" text-anchor="middle" stroke-miterlimit="2" stroke-width="3" stroke-dasharray="">12</text><text fill="#000000" stroke="none" font-family="Arial" font-size="14px" font-style="normal" font-weight="normal" text-decoration="normal" x="376.978515625" y="366.55394594594594" text-anchor="middle">10</text><text fill="#000000" stroke="none" font-family="Arial" font-size="14px" font-style="normal" font-weight="normal" text-decoration="normal" x="390.88232421875" y="360.25394594594593" text-anchor="middle">12</text></g><g class="dcg-svg-axis-value"><text fill="none" stroke="#ffffff" font-family="Arial" font-size="14px" font-style="normal" font-weight="normal" text-decoration="normal" x="14.67919921875" y="241.6458378378378" text-anchor="middle" stroke-miterlimit="2" stroke-width="3" stroke-dasharray="">100</text><text fill="#000000" stroke="none" font-family="Arial" font-size="14px" font-style="normal" font-weight="normal" text-decoration="normal" x="14.67919921875" y="241.6458378378378" text-anchor="middle">100</text></g><g class="dcg-svg-axis-value"><text fill="none" stroke="#ffffff" font-family="Arial" font-size="14px" font-style="normal" font-weight="normal" text-decoration="normal" x="14.67919921875" y="133.5377297297297" text-anchor="middle" stroke-miterlimit="2" stroke-width="3" stroke-dasharray="">200</text><text fill="#000000" stroke="none" font-family="Arial" font-size="14px" font-style="normal" font-weight="normal" text-decoration="normal" x="14.67919921875" y="133.5377297297297" text-anchor="middle">200</text></g><g class="dcg-svg-axis-value"><text fill="none" stroke="#ffffff" font-family="Arial" font-size="14px" font-style="normal" font-weight="normal" text-decoration="normal" x="14.67919921875" y="25.429621621621614" text-anchor="middle" stroke-miterlimit="2" stroke-width="3" stroke-dasharray="">300</text><text fill="#000000" stroke="none" font-family="Arial" font-size="14px" font-style="normal" font-weight="normal" text-decoration="normal" x="14.67919921875" y="25.429621621621614" text-anchor="middle">300</text></g></g></g></g><g id="expressions-88267a49"><g id="sketch-88267a49"><title>Expression 1</title><path fill="#c74440" stroke="none" paint-order="stroke fill markers" d="" fill-opacity="0.4"/><g><path fill="none" stroke="#c74440" class="dcg-svg-curve" paint-order="fill stroke markers" d=" M 29.90057134598061 405 L 29.92701256770337 404.9699856402066 M 32.042310305524154 402.5688368567343 L 32.06875152724692 402.5388224969409 M 34.184049265067706 400.13767371346864 L 34.21049048679047 400.1076593536752 M 36.32578822461126 397.70651057020297 L 36.35222944633402 397.67649621040954 M 38.46752718415481 395.2753474269373 L 38.493968405877574 395.24533306714386 M 40.60926614369836 392.8441842836716 L 40.635707365421126 392.8141699238782 M 42.751005103241916 390.41302114040593 L 42.77744632496468 390.3830067806125 M 44.89274406278547 387.98185799714025 L 44.91918528450823 387.9518436373468 M 47.03448302232902 385.5506948538746 L 47.06092424405178 385.52068049408115 M 49.17622198187257 383.1195317106089 L 49.202663203595336 383.08951735081547 M 51.317960941416125 380.6883685673432 L 51.34440216313889 380.6583542075498 M 53.45969990095968 378.25720542407754 L 53.48614112268244 378.2271910642841 M 55.60143886050323 375.82604228081186 L 55.62788008222599 375.79602792101844 M 57.74317782004678 373.3948791375462 L 57.769619041769545 373.36486477775276 M 59.884916779590334 370.9637159942805 L 59.9113580013131 370.9337016344871 M 62.026655739133886 368.5325528510148 L 62.05309696085665 368.5025384912214 M 64.16839469867743 366.10138970774915 L 64.1948359204002 366.0713753479557 M 66.31013365822098 363.67022656448347 L 66.33657487994374 363.64021220469004 M 68.45187261776452 361.2390634212178 L 68.47831383948729 361.20904906142437 M 70.59361157730808 358.8079002779521 L 70.62005279903084 358.7778859181587 M 72.73535053685163 356.37673713468644 L 72.76179175857439 356.346722774893 M 74.87708949639517 353.94557399142076 L 74.90353071811793 353.91555963162733 M 77.01882845593872 351.5144108481551 L 77.04526967766148 351.48439648836165 M 79.16056741548226 349.0832477048894 L 79.18700863720503 349.053233345096 M 81.30230637502581 346.6520845616237 L 81.32874759674857 346.6220702018303 M 83.44404533456935 344.22092141835805 L 83.47048655629212 344.1909070585646 M 85.5857842941129 341.78975827509237 L 85.61222551583566 341.75974391529894 M 87.72752325365644 339.3585951318267 L 87.7539644753792 339.32858077203326 M 89.8692622132 336.927431988561 L 89.89570343492277 336.8974176287676 M 92.01100117274356 334.49626884529533 L 92.03744239446632 334.4662544855019 M 94.15274013228711 332.06510570202965 L 94.17918135400987 332.0350913422362 M 96.29447909183065 329.633942558764 L 96.32092031355342 329.60392819897055 M 98.43621805137421 327.2027794154983 L 98.46265927309697 327.1727650557049 M 100.57795701091777 324.7716162722326 L 100.60439823264053 324.7416019124392 M 102.71969597046132 322.34045312896694 L 102.74613719218408 322.3104387691735 M 104.86143493000486 319.90928998570126 L 104.88787615172762 319.87927562590784 M 107.00317388954842 317.4781268424356 L 107.02961511127118 317.44811248264216 M 109.14491284909198 315.0469636991699 L 109.17135407081474 315.0169493393765 M 111.28665180863554 312.61580055590423 L 111.3130930303583 312.5857861961108 M 113.4283907681791 310.18463741263855 L 113.45483198990186 310.1546230528451 M 115.57012972772266 307.7534742693729 L 115.59657094944542 307.72345990957945 M 117.71186868726622 305.3223111261072 L 117.73830990898898 305.29229676631377 M 119.85360764680976 302.8911479828415 L 119.88004886853253 302.8611336230481 M 121.99534660635332 300.45998483957584 L 122.02178782807609 300.4299704797824 M 124.13708556589688 298.02882169631016 L 124.16352678761965 297.99880733651673 M 126.27882452544043 295.5976585530445 L 126.30526574716319 295.56764419325106 M 128.42056348498397 293.1664954097788 L 128.44700470670674 293.1364810499854 M 130.56230244452752 290.7353322665131 L 130.58874366625028 290.7053179067197 M 132.70404140407106 288.30416912324745 L 132.73048262579383 288.274154763454 M 134.8457803636146 285.87300597998177 L 134.87222158533737 285.84299162018834 M 136.98751932315815 283.4418428367161 L 137.01396054488092 283.41182847692266 M 139.1292582827017 281.0106796934504 L 139.15569950442446 280.980665333657 M 141.27099724224524 278.57951655018474 L 141.297438463968 278.5495021903913 M 143.4127362017888 276.14835340691906 L 143.43917742351155 276.11833904712563 M 145.55447516133233 273.7171902636534 L 145.5809163830551 273.68717590385995 M 147.69621412087588 271.2860271203877 L 147.72265534259864 271.2560127605943 M 149.83795308041942 268.854863977122 L 149.8643943021422 268.8248496173286 M 151.97969203996297 266.42370083385634 L 152.00613326168573 266.3936864740629 M 154.12143099950652 263.99253769059067 L 154.14787222122928 263.96252333079724 M 156.26316995905006 261.561374547325 L 156.28961118077282 261.53136018753156 M 158.4049089185936 259.1302114040593 L 158.43135014031637 259.1001970442659 M 160.54664787813715 256.69904826079363 L 160.5730890998599 256.6690339010002 M 162.6883868376807 254.26788511752798 L 162.71482805940346 254.23787075773458 M 164.83012579722424 251.83672197426236 L 164.856567018947 251.80670761446896 M 166.9718647567678 249.40555883099674 L 166.99830597849055 249.37554447120334 M 169.11360371631133 246.97439568773112 L 169.1400449380341 246.94438132793772 M 171.25534267585488 244.5432325444655 L 171.28178389757764 244.5132181846721 M 173.39708163539842 242.11206940119988 L 173.42352285712118 242.08205504140648 M 175.53882059494197 239.68090625793425 L 175.56526181666473 239.65089189814086 M 177.6805595544855 237.24974311466863 L 177.70700077620828 237.21972875487523 M 179.82229851402906 234.818579971403 L 179.84873973575182 234.7885656116096 M 181.9640374735726 232.3874168281374 L 181.99047869529537 232.357402468344 M 184.10577643311615 229.95625368487177 L 184.1322176548389 229.92623932507837 M 186.2475153926597 227.52509054160612 L 186.27395661438246 227.49507618181272 M 188.38925435220324 225.0939273983405 L 188.415695573926 225.0639130385471 M 190.53099331174678 222.66276425507488 L 190.55743453346955 222.63274989528148 M 192.67273227129033 220.23160111180923 L 192.6991734930131 220.20158675201583 M 194.81447123083387 217.80043796854358 L 194.84091245255664 217.77042360875018 M 196.95621019037742 215.36927482527796 L 196.98265141210018 215.33926046548456 M 199.09794914992096 212.9381116820123 L 199.12439037164373 212.9080973222189 M 201.2396881094645 210.50694853874666 L 201.26612933118727 210.47693417895326 M 203.38142706900805 208.075785395481 L 203.40786829073082 208.0457710356876 M 205.5231660285516 205.64462225221536 L 205.54960725027436 205.61460789242196 M 207.66490498809515 203.2134591089497 L 207.6913462098179 203.1834447491563 M 209.8066439476387 200.78229596568406 L 209.83308516936145 200.75228160589066 M 211.94838290718224 198.3511328224184 L 211.974824128905 198.321118462625 M 214.09012186672578 195.91996967915276 L 214.11656308844854 195.88995531935936 M 216.23186082626933 193.4888065358871 L 216.2583020479921 193.4587921760937 M 218.37359978581287 191.05764339262146 L 218.40004100753563 191.02762903282806 M 220.51533874535642 188.6264802493558 L 220.54177996707918 188.5964658895624 M 222.65707770489996 186.19531710609016 L 222.68351892662272 186.16530274629676 M 224.7988166644435 183.76415396282454 L 224.82525788616627 183.73413960303114 M 226.94055562398705 181.3329908195589 L 226.96699684570982 181.3029764597655 M 229.0822945835306 178.90182767629327 L 229.10873580525336 178.87181331649987 M 231.22403354307414 176.47066453302762 L 231.2504747647969 176.44065017323422 M 233.3657725026177 174.039501389762 L 233.39221372434045 174.0094870299686 M 235.50751146216123 171.60833824649637 L 235.533952683884 171.57832388670298 M 237.64925042170478 169.17717510323075 L 237.67569164342754 169.14716074343735 M 239.79098938124832 166.74601195996513 L 239.8174306029711 166.71599760017173 M 241.93272834079187 164.3148488166995 L 241.95916956251463 164.2848344569061 M 244.0744673003354 161.8836856734339 L 244.10090852205818 161.8536713136405 M 246.21620625987896 159.45252253016827 L 246.24264748160172 159.42250817037487 M 248.3579452194225 157.02135938690265 L 248.38438644114527 156.99134502710925 M 250.49968417896605 154.59019624363702 L 250.5261254006888 154.56018188384363 M 252.6414231385096 152.1590331003714 L 252.66786436023236 152.129018740578 M 254.78316209805314 149.72786995710578 L 254.8096033197759 149.69785559731238 M 256.9249010575967 147.29670681384013 L 256.9513422793194 147.26669245404673 M 259.06664001714023 144.86554367057448 L 259.09308123886296 144.83552931078108 M 261.2083789766838 142.43438052730886 L 261.2348201984065 142.40436616751546 M 263.3501179362273 140.00321738404324 L 263.37655915795006 139.97320302424984 M 265.49185689577087 137.57205424077762 L 265.5182981174936 137.54203988098422 M 267.6335958553144 135.140891097512 L 267.66003707703715 135.1108767377186 M 269.77533481485796 132.70972795424638 L 269.8017760365807 132.67971359445298 M 271.9170737744015 130.27856481098075 L 271.94351499612424 130.24855045118736 M 274.05881273394505 127.84740166771512 L 274.0852539556678 127.81738730792172 M 276.2005516934886 125.41623852444948 L 276.2269929152113 125.38622416465608 M 278.34229065303214 122.98507538118385 L 278.36873187475487 122.95506102139045 M 280.4840296125757 120.55391223791821 L 280.5104708342984 120.52389787812481 M 282.6257685721192 118.12274909465258 L 282.65220979384196 118.09273473485918 M 284.7675075316628 115.69158595138694 L 284.7939487533855 115.66157159159354 M 286.9092464912063 113.2604228081213 L 286.93568771292905 113.2304084483279 M 289.05098545074986 110.82925966485567 L 289.0774266724726 110.79924530506227 M 291.1927244102934 108.39809652159003 L 291.21916563201614 108.36808216179664 M 293.33446336983695 105.9669333783244 L 293.3609045915597 105.936919018531 M 295.4762023293805 103.53577023505876 L 295.50264355110323 103.50575587526536 M 297.61794128892404 101.10460709179313 L 297.6443825106468 101.07459273199973 M 299.7596802484676 98.67344394852749 L 299.7861214701903 98.6434295887341 M 301.90141920801113 96.24228080526186 L 301.92786042973387 96.21226644546846 M 304.0431581675547 93.81111766199622 L 304.0695993892774 93.78110330220282 M 306.1848971270982 91.37995451873059 L 306.21133834882096 91.34994015893719 M 308.32663608664177 88.94879137546495 L 308.3530773083645 88.91877701567155 M 310.4683750461853 86.51762823219931 L 310.49481626790805 86.48761387240592 M 312.61011400572886 84.08646508893368 L 312.6365552274516 84.05645072914028 M 314.7518529652724 81.65530194566804 L 314.77829418699514 81.62528758587464 M 316.89359192481595 79.22413880240241 L 316.9200331465387 79.19412444260901 M 319.0353308843595 76.79297565913677 L 319.06177210608223 76.76296129934337 M 321.17706984390304 74.36181251587114 L 321.2035110656258 74.33179815607774 M 323.3188088034466 71.9306493726055 L 323.3452500251693 71.9006350128121 M 325.46054776299013 69.49948622933987 L 325.48698898471287 69.46947186954647 M 327.6022867225337 67.06832308607423 L 327.6287279442564 67.03830872628083 M 329.7440256820772 64.6371599428086 L 329.77046690379996 64.6071455830152 M 331.88576464162077 62.20599679954296 L 331.9122058633435 62.17598243974955 M 334.0275036011643 59.774833656277316 L 334.05394482288705 59.74481929648391 M 336.16924256070786 57.34367051301167 L 336.1956837824306 57.31365615321827 M 338.3109815202514 54.91250736974603 L 338.33742274197414 54.882493009952626 M 340.45272047979495 52.48134422648039 L 340.4791617015177 52.45132986668698 M 342.5944594393385 50.050181083214746 L 342.6209006610612 50.02016672342134 M 344.73619839888204 47.6190179399491 L 344.7626396206048 47.5890035801557 M 346.8779373584256 45.18785479668346 L 346.9043785801483 45.157840436890055 M 349.01967631796913 42.75669165341782 L 349.04611753969186 42.72667729362441 M 351.1614152775127 40.325528510152175 L 351.1878564992354 40.29551415035877 M 353.3031542370562 37.89436536688653 L 353.32959545877895 37.86435100709313 M 355.44489319659976 35.46320222362089 L 355.4713344183225 35.433187863827484 M 357.5866321561433 33.03203908035525 L 357.61307337786604 33.00202472056184 M 359.72837111568685 30.600875937089604 L 359.7548123374096 30.570861577296203 M 361.8701100752304 28.169712793823965 L 361.89655129695313 28.139698434030564 M 364.01184903477395 25.738549650558326 L 364.0382902564967 25.708535290764924 M 366.1535879943175 23.307386507292684 L 366.1800292160402 23.277372147499282 M 368.29532695386104 20.876223364027044 L 368.32176817558377 20.846209004233643 M 370.4370659134046 18.445060220761405 L 370.4635071351273 18.415045860968004 M 372.5788048729481 16.013897077495763 L 372.60524609467086 15.98388271770236 M 374.72054383249167 13.58273393423012 L 374.7469850542144 13.552719574436717 M 376.8622827920353 11.151570790964477 L 376.888724013758 11.121556431171074 M 379.0040217515789 8.720407647698835 L 379.0304629733016 8.690393287905431 M 381.1457607111225 6.289244504433192 L 381.1722019328452 6.2592301446397896 M 383.2874996706661 3.858081361167551 L 383.3139408923888 3.828067001374148 M 385.4292386302097 1.42691821790191 L 385.4556798519324 1.396903858108507 M 387.5709775897533 -1.0042449253637304 L 387.597418811476 -1.0342592851571335 M 389.7127165492969 -3.4354080686293704 L 389.7391577710196 -3.4654224284227735" stroke-linecap="round" stroke-linejoin="round" stroke-miterlimit="10" stroke-width="2" stroke-dasharray=""/></g></g><g id="sketch-88267a49"><title>Expression 2</title><path fill="#c74440" stroke="none" paint-order="stroke fill markers" d="" fill-opacity="0.4"/><g><path fill="none" stroke="#c74440" class="dcg-svg-curve" paint-order="fill stroke markers" d=" M 29.460095155504405 405.5 L 29.460095155504405 405.5 L 391.53152372693296 -5.5" stroke-linecap="round" stroke-linejoin="round" stroke-miterlimit="10" stroke-width="2.5" stroke-dasharray=""/></g></g></g><g id="labels-88267a49"/><g id="labels-88267a49"/></g></svg>