<svg version="1.1" xmlns="http://www.w3.org/2000/svg" xmlns:xlink="http://www.w3.org/1999/xlink" width="800" height="800"><defs/><g transform="scale(2,2)"><g id="background-0e05f504"><rect fill="white" stroke="none" x="0" y="0" width="400" height="400" class="dcg-svg-background"/></g><g id="graphpaper-0e05f504"><g id="grid-0e05f504"><g><path fill="none" stroke="rgb(0,0,0)" class="dcg-svg-minor-gridline" paint-order="fill stroke markers" d=" M -0.5 0 L -0.5 400" stroke-opacity="0.2" stroke-miterlimit="10" stroke-dasharray=""/><path fill="none" stroke="rgb(0,0,0)" class="dcg-svg-minor-gridline" paint-order="fill stroke markers" d=" M 33.5 0 L 33.5 400" stroke-opacity="0.2" stroke-miterlimit="10" stroke-dasharray=""/><path fill="none" stroke="rgb(0,0,0)" class="dcg-svg-minor-gridline" paint-order="fill stroke markers" d=" M 100.5 0 L 100.5 400" stroke-opacity="0.2" stroke-miterlimit="10" stroke-dasharray=""/><path fill="none" stroke="rgb(0,0,0)" class="dcg-svg-minor-gridline" paint-order="fill stroke markers" d=" M 133.5 0 L 133.5 400" stroke-opacity="0.2" stroke-miterlimit="10" stroke-dasharray=""/><path fill="none" stroke="rgb(0,0,0)" class="dcg-svg-minor-gridline" paint-order="fill stroke markers" d=" M 166.5 0 L 166.5 400" stroke-opacity="0.2" stroke-miterlimit="10" stroke-dasharray=""/><path fill="none" stroke="rgb(0,0,0)" class="dcg-svg-minor-gridline" paint-order="fill stroke markers" d=" M 200.5 0 L 200.5 400" stroke-opacity="0.2" stroke-miterlimit="10" stroke-dasharray=""/><path fill="none" stroke="rgb(0,0,0)" class="dcg-svg-minor-gridline" paint-order="fill stroke markers" d=" M 233.5 0 L 233.5 400" stroke-opacity="0.2" stroke-miterlimit="10" stroke-dasharray=""/><path fill="none" stroke="rgb(0,0,0)" class="dcg-svg-minor-gridline" paint-order="fill stroke markers" d=" M 266.5 0 L 266.5 400" stroke-opacity="0.2" stroke-miterlimit="10" stroke-dasharray=""/><path fill="none" stroke="rgb(0,0,0)" class="dcg-svg-minor-gridline" paint-order="fill stroke markers" d=" M 300.5 0 L 300.5 400" stroke-opacity="0.2" stroke-miterlimit="10" stroke-dasharray=""/><path fill="none" stroke="rgb(0,0,0)" class="dcg-svg-minor-gridline" paint-order="fill stroke markers" d=" M 333.5 0 L 333.5 400" stroke-opacity="0.2" stroke-miterlimit="10" stroke-dasharray=""/><path fill="none" stroke="rgb(0,0,0)" class="dcg-svg-minor-gridline" paint-order="fill stroke markers" d=" M 366.5 0 L 366.5 400" stroke-opacity="0.2" stroke-miterlimit="10" stroke-dasharray=""/><path fill="none" stroke="rgb(0,0,0)" class="dcg-svg-minor-gridline" paint-order="fill stroke markers" d=" M 0 366.5 L 400 366.5" stroke-opacity="0.2" stroke-miterlimit="10" stroke-dasharray=""/><path fill="none" stroke="rgb(0,0,0)" class="dcg-svg-minor-gridline" paint-order="fill stroke markers" d=" M 0 300.5 L 400 300.5" stroke-opacity="0.2" stroke-miterlimit="10" stroke-dasharray=""/><path fill="none" stroke="rgb(0,0,0)" class="dcg-svg-minor-gridline" paint-order="fill stroke markers" d=" M 0 266.5 L 400 266.5" stroke-opacity="0.2" stroke-miterlimit="10" stroke-dasharray=""/><path fill="none" stroke="rgb(0,0,0)" class="dcg-svg-minor-gridline" paint-order="fill stroke markers" d=" M 0 233.5 L 400 233.5" stroke-opacity="0.2" stroke-miterlimit="10" stroke-dasharray=""/><path fill="none" stroke="rgb(0,0,0)" class="dcg-svg-minor-gridline" paint-order="fill stroke markers" d=" M 0 200.5 L 400 200.5" stroke-opacity="0.2" stroke-miterlimit="10" stroke-dasharray=""/><path fill="none" stroke="rgb(0,0,0)" class="dcg-svg-minor-gridline" paint-order="fill stroke markers" d=" M 0 166.5 L 400 166.5" stroke-opacity="0.2" stroke-miterlimit="10" stroke-dasharray=""/><path fill="none" stroke="rgb(0,0,0)" class="dcg-svg-minor-gridline" paint-order="fill stroke markers" d=" M 0 133.5 L 400 133.5" stroke-opacity="0.2" stroke-miterlimit="10" stroke-dasharray=""/><path fill="none" stroke="rgb(0,0,0)" class="dcg-svg-minor-gridline" paint-order="fill stroke markers" d=" M 0 100.5 L 400 100.5" stroke-opacity="0.2" stroke-miterlimit="10" stroke-dasharray=""/><path fill="none" stroke="rgb(0,0,0)" class="dcg-svg-minor-gridline" paint-order="fill stroke markers" d=" M 0 66.5 L 400 66.5" stroke-opacity="0.2" stroke-miterlimit="10" stroke-dasharray=""/><path fill="none" stroke="rgb(0,0,0)" class="dcg-svg-minor-gridline" paint-order="fill stroke markers" d=" M 0 33.5 L 400 33.5" stroke-opacity="0.2" stroke-miterlimit="10" stroke-dasharray=""/><path fill="none" stroke="rgb(0,0,0)" class="dcg-svg-major-gridline" paint-order="fill stroke markers" d=" M 233.5 0 L 233.5 400" stroke-opacity="0.2500000000000001" stroke-miterlimit="10" stroke-dasharray=""/><path fill="none" stroke="rgb(0,0,0)" class="dcg-svg-major-gridline" paint-order="fill stroke markers" d=" M 0 200.5 L 400 200.5" stroke-opacity="0.2500000000000001" stroke-miterlimit="10" stroke-dasharray=""/><path fill="none" stroke="rgb(0,0,0)" class="dcg-svg-major-gridline" paint-order="fill stroke markers" d=" M 0 66.5 L 400 66.5" stroke-opacity="0.2500000000000001" stroke-miterlimit="10" stroke-dasharray=""/></g></g><g id="axis-0e05f504"><g id="yaxis-0e05f504"><title>V (L)</title><g><path fill="none" stroke="rgb(0,0,0)" class="dcg-svg-axis-line" paint-order="fill stroke markers" d=" M 67 3 L 67 400" stroke-opacity="0.9" stroke-miterlimit="10" stroke-width="1.5" stroke-dasharray=""/><g class="dcg-svg-axis-line"><path fill="rgb(0,0,0)" stroke="rgb(0,0,0)" class="dcg-svg-axis-line" paint-order="stroke fill markers" d=" M 67 1.5 L 70.10582854123025 13.09110991546882 L 63.894171458769755 13.09110991546882 L 67 1.5 L 70.10582854123025 13.09110991546882" stroke-opacity="0.9" stroke-linejoin="round" stroke-miterlimit="10" stroke-width="1.5" stroke-dasharray="" fill-opacity="0.9"/></g></g></g><g id="xaxis-0e05f504"><title>t (min)</title><g><path fill="none" stroke="rgb(0,0,0)" class="dcg-svg-axis-line" paint-order="fill stroke markers" d=" M 0 333 L 397 333" stroke-opacity="0.9" stroke-miterlimit="10" stroke-width="1.5" stroke-dasharray=""/><g class="dcg-svg-axis-line"><path fill="rgb(0,0,0)" stroke="rgb(0,0,0)" class="dcg-svg-axis-line" paint-order="stroke fill markers" d=" M 398.5 333 L 386.9088900845312 336.10582854123027 L 386.9088900845312 329.89417145876973 L 398.5 333 L 386.9088900845312 336.10582854123027" stroke-opacity="0.9" stroke-linejoin="round" stroke-miterlimit="10" stroke-width="1.5" stroke-dasharray="" fill-opacity="0.9"/></g></g></g><g><g class="dcg-svg-axis-value"><text fill="none" stroke="#ffffff" font-family="Arial" font-size="14px" font-style="normal" font-weight="normal" text-decoration="normal" x="57.77360026041666" y="349.14133333333336" text-anchor="middle" stroke-miterlimit="2" stroke-width="3" stroke-dasharray="">0</text><text fill="#000000" stroke="none" font-family="Arial" font-size="14px" font-style="normal" font-weight="normal" text-decoration="normal" x="57.77360026041666" y="349.14133333333336" text-anchor="middle">0</text></g><g class="dcg-svg-axis-value"><text fill="none" stroke="#ffffff" font-family="Arial" font-size="14px" font-style="normal" font-weight="normal" text-decoration="normal" x="233.33333333333334" y="349.14133333333336" text-anchor="middle" stroke-miterlimit="2" stroke-width="3" stroke-dasharray="">5</text><text fill="#000000" stroke="none" font-family="Arial" font-size="14px" font-style="normal" font-weight="normal" text-decoration="normal" x="233.33333333333334" y="349.14133333333336" text-anchor="middle">5</text></g><g class="dcg-svg-axis-value dcg-svg-offcenter-axis-value"><text fill="none" stroke="#ffffff" font-family="Arial" font-size="14px" font-style="normal" font-weight="normal" text-decoration="normal" x="389.2138671875" y="349.14133333333336" text-anchor="middle" stroke-miterlimit="2" stroke-width="3" stroke-dasharray="">10</text><text fill="#000000" stroke="none" font-family="Arial" font-size="14px" font-style="normal" font-weight="normal" text-decoration="normal" x="389.2138671875" y="349.14133333333336" text-anchor="middle">10</text></g><g class="dcg-svg-axis-value"><text fill="none" stroke="#ffffff" font-family="Arial" font-size="14px" font-style="normal" font-weight="normal" text-decoration="normal" x="53.88053385416666" y="203.80800000000002" text-anchor="middle" stroke-miterlimit="2" stroke-width="3" stroke-dasharray="">20</text><text fill="#000000" stroke="none" font-family="Arial" font-size="14px" font-style="normal" font-weight="normal" text-decoration="normal" x="53.88053385416666" y="203.80800000000002" text-anchor="middle">20</text></g><g class="dcg-svg-axis-value"><text fill="none" stroke="#ffffff" font-family="Arial" font-size="14px" font-style="normal" font-weight="normal" text-decoration="normal" x="53.88053385416666" y="70.47466666666669" text-anchor="middle" stroke-miterlimit="2" stroke-width="3" stroke-dasharray="">40</text><text fill="#000000" stroke="none" font-family="Arial" font-size="14px" font-style="normal" font-weight="normal" text-decoration="normal" x="53.88053385416666" y="70.47466666666669" text-anchor="middle">40</text></g></g><g class="dcg-svg-axis-label"><text fill="none" stroke="#ffffff" font-family="Arial" font-size="17px" font-style="normal" font-weight="normal" text-decoration="normal" x="336.8388671875" y="366.33333333333337" text-anchor="start" stroke-miterlimit="2" stroke-width="3" stroke-dasharray="">t (min)</text><text fill="#000000" stroke="none" font-family="Arial" font-size="17px" font-style="normal" font-weight="normal" text-decoration="normal" x="336.8388671875" y="366.33333333333337" text-anchor="start">t (min)</text></g><g class="dcg-svg-axis-label" transform="translate(39.09440104166666,51.8388671875) rotate(-90,0,0)"><text fill="none" stroke="#ffffff" font-family="Arial" font-size="17px" font-style="normal" font-weight="normal" text-decoration="normal" x="0" y="0" text-anchor="start" stroke-miterlimit="2" stroke-width="3" stroke-dasharray="">V (L)</text><text fill="#000000" stroke="none" font-family="Arial" font-size="17px" font-style="normal" font-weight="normal" text-decoration="normal" x="0" y="0" text-anchor="start">V (L)</text></g></g></g><g id="expressions-0e05f504"><g id="sketch-0e05f504"><title>Expression 1</title><path fill="#c74440" stroke="none" paint-order="stroke fill markers" d="" fill-opacity="0.4"/><g><path fill="none" stroke="#c74440" class="dcg-svg-curve" paint-order="fill stroke markers" d=" M 66.66666666666666 66.66666666666669 L 66.66666666666666 66.66666666666669 L 333.33333333333337 333.33333333333337" stroke-linecap="round" stroke-linejoin="round" stroke-miterlimit="10" stroke-width="2.5" stroke-dasharray=""/></g></g><g id="sketch-0e05f504"><title>Expression 2</title><path fill="#c74440" stroke="none" class="dcg-svg-point" paint-order="stroke fill markers" d=" M 70.41666666666666 66.66666666666669 A 3.75 3.75 0 1 1 70.41666479166682 66.66291666729168 Z"/></g><g id="sketch-0e05f504"><title>Expression 3</title><path fill="#c74440" stroke="none" class="dcg-svg-point" paint-order="stroke fill markers" d=" M 337.08333333333337 333.33333333333337 A 3.75 3.75 0 1 1 337.08333145833353 333.3295833339584 Z"/></g><g id="sketch-0e05f504"><title>Expression 4</title><path fill="#000000" stroke="none" paint-order="stroke fill markers" d="" fill-opacity="0.4"/><g><path fill="none" stroke="#000000" class="dcg-svg-curve" paint-order="fill stroke markers" d=" M 133.33333333333331 333.33333333333337 L 133.33333333333331 333.2773333333334 M 133.33333333333331 328.79733333333337 L 133.33333333333331 328.7413333333334 M 133.33333333333331 324.26133333333337 L 133.33333333333331 324.2053333333334 M 133.33333333333331 319.72533333333337 L 133.33333333333331 319.6693333333334 M 133.33333333333331 315.18933333333337 L 133.33333333333331 315.1333333333334 M 133.33333333333331 310.65333333333336 L 133.33333333333331 310.5973333333334 M 133.33333333333331 306.11733333333336 L 133.33333333333331 306.0613333333334 M 133.33333333333331 301.58133333333336 L 133.33333333333331 301.5253333333334 M 133.33333333333331 297.04533333333336 L 133.33333333333331 296.9893333333334 M 133.33333333333331 292.50933333333336 L 133.33333333333331 292.4533333333334 M 133.33333333333331 287.97333333333336 L 133.33333333333331 287.9173333333334 M 133.33333333333331 283.43733333333336 L 133.33333333333331 283.3813333333334 M 133.33333333333331 278.90133333333335 L 133.33333333333331 278.8453333333334 M 133.33333333333331 274.36533333333335 L 133.33333333333331 274.30933333333337 M 133.33333333333331 269.82933333333335 L 133.33333333333331 269.77333333333337 M 133.33333333333331 265.29333333333335 L 133.33333333333331 265.23733333333337 M 133.33333333333331 260.75733333333335 L 133.33333333333331 260.70133333333337 M 133.33333333333331 256.22133333333335 L 133.33333333333331 256.16533333333336 M 133.33333333333331 251.68533333333338 L 133.33333333333331 251.62933333333336 M 133.33333333333331 247.14933333333337 L 133.33333333333331 247.09333333333336 M 133.33333333333331 242.61333333333337 L 133.33333333333331 242.55733333333336 M 133.33333333333331 238.07733333333337 L 133.33333333333331 238.02133333333336 M 133.33333333333331 233.54133333333337 L 133.33333333333331 233.48533333333336 M 133.33333333333331 229.00533333333337 L 133.33333333333331 228.94933333333336 M 133.33333333333331 224.46933333333337 L 133.33333333333331 224.41333333333336 M 133.33333333333331 219.93333333333337 L 133.33333333333331 219.87733333333335 M 133.33333333333331 215.39733333333336 L 133.33333333333331 215.34133333333335 M 133.33333333333331 210.86133333333336 L 133.33333333333331 210.80533333333335 M 133.33333333333331 206.32533333333336 L 133.33333333333331 206.26933333333335 M 133.33333333333331 201.78933333333336 L 133.33333333333331 201.73333333333335 M 133.33333333333331 197.25333333333336 L 133.33333333333331 197.19733333333335 M 133.33333333333331 192.71733333333336 L 133.33333333333331 192.66133333333335 M 133.33333333333331 188.18133333333336 L 133.33333333333331 188.12533333333334 M 133.33333333333331 183.64533333333335 L 133.33333333333331 183.58933333333334 M 133.33333333333331 179.10933333333335 L 133.33333333333331 179.05333333333334 M 133.33333333333331 174.57333333333335 L 133.33333333333331 174.51733333333334 M 133.33333333333331 170.03733333333335 L 133.33333333333331 169.98133333333334 M 133.33333333333331 165.50133333333335 L 133.33333333333331 165.44533333333334 M 133.33333333333331 160.96533333333335 L 133.33333333333331 160.90933333333334 M 133.33333333333331 156.42933333333335 L 133.33333333333331 156.37333333333333 M 133.33333333333331 151.89333333333335 L 133.33333333333331 151.83733333333333 M 133.33333333333331 147.35733333333334 L 133.33333333333331 147.30133333333333 M 133.33333333333331 142.82133333333334 L 133.33333333333331 142.76533333333333 M 133.33333333333331 138.28533333333334 L 133.33333333333331 138.22933333333333 M 133.33333333333331 133.74933333333337 L 133.33333333333331 133.69333333333336 M 129.2133333333333 133.33333333333337 L 129.1573333333333 133.33333333333337 M 124.6773333333333 133.33333333333337 L 124.6213333333333 133.33333333333337 M 120.1413333333333 133.33333333333337 L 120.0853333333333 133.33333333333337 M 115.6053333333333 133.33333333333337 L 115.54933333333331 133.33333333333337 M 111.0693333333333 133.33333333333337 L 111.0133333333333 133.33333333333337 M 106.5333333333333 133.33333333333337 L 106.4773333333333 133.33333333333337 M 101.99733333333332 133.33333333333337 L 101.94133333333332 133.33333333333337 M 97.46133333333333 133.33333333333337 L 97.40533333333333 133.33333333333337 M 92.92533333333333 133.33333333333337 L 92.86933333333333 133.33333333333337 M 88.38933333333333 133.33333333333337 L 88.33333333333333 133.33333333333337 M 83.85333333333332 133.33333333333337 L 83.79733333333333 133.33333333333337 M 79.31733333333334 133.33333333333337 L 79.26133333333334 133.33333333333337 M 74.78133333333334 133.33333333333337 L 74.72533333333334 133.33333333333337 M 70.24533333333335 133.33333333333337 L 70.18933333333335 133.33333333333337" stroke-linecap="round" stroke-linejoin="round" stroke-miterlimit="10" stroke-width="2.8" stroke-dasharray=""/></g><path fill="#000000" stroke="none" class="dcg-svg-point" paint-order="stroke fill markers" d=" M 137.08333333333331 333.33333333333337 A 3.75 3.75 0 1 1 137.08333145833348 333.3295833339584 Z"/><path fill="#000000" stroke="none" class="dcg-svg-point" paint-order="stroke fill markers" d=" M 137.08333333333331 133.33333333333337 A 3.75 3.75 0 1 1 137.08333145833348 133.32958333395837 Z"/><path fill="#000000" stroke="none" class="dcg-svg-point" paint-order="stroke fill markers" d=" M 70.41666666666666 133.33333333333337 A 3.75 3.75 0 1 1 70.41666479166682 133.32958333395837 Z"/></g></g><g id="labels-0e05f504"/><g id="labels-0e05f504"/></g></svg>