<svg version="1.1" xmlns="http://www.w3.org/2000/svg" xmlns:xlink="http://www.w3.org/1999/xlink" width="800" height="800"><defs/><g transform="scale(2,2)"><g id="background-a791fd62"><rect fill="white" stroke="none" x="0" y="0" width="400" height="400" class="dcg-svg-background"/></g><g id="graphpaper-a791fd62"><g id="grid-a791fd62"><g><path fill="none" stroke="rgb(0,0,0)" class="dcg-svg-minor-gridline" paint-order="fill stroke markers" d=" M 9.5 0 L 9.5 400" stroke-opacity="0.2" stroke-miterlimit="10" stroke-dasharray=""/><path fill="none" stroke="rgb(0,0,0)" class="dcg-svg-minor-gridline" paint-order="fill stroke markers" d=" M 33.5 0 L 33.5 400" stroke-opacity="0.2" stroke-miterlimit="10" stroke-dasharray=""/><path fill="none" stroke="rgb(0,0,0)" class="dcg-svg-minor-gridline" paint-order="fill stroke markers" d=" M 58.5 0 L 58.5 400" stroke-opacity="0.2" stroke-miterlimit="10" stroke-dasharray=""/><path fill="none" stroke="rgb(0,0,0)" class="dcg-svg-minor-gridline" paint-order="fill stroke markers" d=" M 82.5 0 L 82.5 400" stroke-opacity="0.2" stroke-miterlimit="10" stroke-dasharray=""/><path fill="none" stroke="rgb(0,0,0)" class="dcg-svg-minor-gridline" paint-order="fill stroke markers" d=" M 106.5 0 L 106.5 400" stroke-opacity="0.2" stroke-miterlimit="10" stroke-dasharray=""/><path fill="none" stroke="rgb(0,0,0)" class="dcg-svg-minor-gridline" paint-order="fill stroke markers" d=" M 131.5 0 L 131.5 400" stroke-opacity="0.2" stroke-miterlimit="10" stroke-dasharray=""/><path fill="none" stroke="rgb(0,0,0)" class="dcg-svg-minor-gridline" paint-order="fill stroke markers" d=" M 155.5 0 L 155.5 400" stroke-opacity="0.2" stroke-miterlimit="10" stroke-dasharray=""/><path fill="none" stroke="rgb(0,0,0)" class="dcg-svg-minor-gridline" paint-order="fill stroke markers" d=" M 180.5 0 L 180.5 400" stroke-opacity="0.2" stroke-miterlimit="10" stroke-dasharray=""/><path fill="none" stroke="rgb(0,0,0)" class="dcg-svg-minor-gridline" paint-order="fill stroke markers" d=" M 204.5 0 L 204.5 400" stroke-opacity="0.2" stroke-miterlimit="10" stroke-dasharray=""/><path fill="none" stroke="rgb(0,0,0)" class="dcg-svg-minor-gridline" paint-order="fill stroke markers" d=" M 229.5 0 L 229.5 400" stroke-opacity="0.2" stroke-miterlimit="10" stroke-dasharray=""/><path fill="none" stroke="rgb(0,0,0)" class="dcg-svg-minor-gridline" paint-order="fill stroke markers" d=" M 253.5 0 L 253.5 400" stroke-opacity="0.2" stroke-miterlimit="10" stroke-dasharray=""/><path fill="none" stroke="rgb(0,0,0)" class="dcg-svg-minor-gridline" paint-order="fill stroke markers" d=" M 278.5 0 L 278.5 400" stroke-opacity="0.2" stroke-miterlimit="10" stroke-dasharray=""/><path fill="none" stroke="rgb(0,0,0)" class="dcg-svg-minor-gridline" paint-order="fill stroke markers" d=" M 302.5 0 L 302.5 400" stroke-opacity="0.2" stroke-miterlimit="10" stroke-dasharray=""/><path fill="none" stroke="rgb(0,0,0)" class="dcg-svg-minor-gridline" paint-order="fill stroke markers" d=" M 327.5 0 L 327.5 400" stroke-opacity="0.2" stroke-miterlimit="10" stroke-dasharray=""/><path fill="none" stroke="rgb(0,0,0)" class="dcg-svg-minor-gridline" paint-order="fill stroke markers" d=" M 351.5 0 L 351.5 400" stroke-opacity="0.2" stroke-miterlimit="10" stroke-dasharray=""/><path fill="none" stroke="rgb(0,0,0)" class="dcg-svg-minor-gridline" paint-order="fill stroke markers" d=" M 375.5 0 L 375.5 400" stroke-opacity="0.2" stroke-miterlimit="10" stroke-dasharray=""/><path fill="none" stroke="rgb(0,0,0)" class="dcg-svg-minor-gridline" paint-order="fill stroke markers" d=" M 0 383.5 L 400 383.5" stroke-opacity="0.2" stroke-miterlimit="10" stroke-dasharray=""/><path fill="none" stroke="rgb(0,0,0)" class="dcg-svg-minor-gridline" paint-order="fill stroke markers" d=" M 0 359.5 L 400 359.5" stroke-opacity="0.2" stroke-miterlimit="10" stroke-dasharray=""/><path fill="none" stroke="rgb(0,0,0)" class="dcg-svg-minor-gridline" paint-order="fill stroke markers" d=" M 0 335.5 L 400 335.5" stroke-opacity="0.2" stroke-miterlimit="10" stroke-dasharray=""/><path fill="none" stroke="rgb(0,0,0)" class="dcg-svg-minor-gridline" paint-order="fill stroke markers" d=" M 0 310.5 L 400 310.5" stroke-opacity="0.2" stroke-miterlimit="10" stroke-dasharray=""/><path fill="none" stroke="rgb(0,0,0)" class="dcg-svg-minor-gridline" paint-order="fill stroke markers" d=" M 0 286.5 L 400 286.5" stroke-opacity="0.2" stroke-miterlimit="10" stroke-dasharray=""/><path fill="none" stroke="rgb(0,0,0)" class="dcg-svg-minor-gridline" paint-order="fill stroke markers" d=" M 0 261.5 L 400 261.5" stroke-opacity="0.2" stroke-miterlimit="10" stroke-dasharray=""/><path fill="none" stroke="rgb(0,0,0)" class="dcg-svg-minor-gridline" paint-order="fill stroke markers" d=" M 0 237.5 L 400 237.5" stroke-opacity="0.2" stroke-miterlimit="10" stroke-dasharray=""/><path fill="none" stroke="rgb(0,0,0)" class="dcg-svg-minor-gridline" paint-order="fill stroke markers" d=" M 0 212.5 L 400 212.5" stroke-opacity="0.2" stroke-miterlimit="10" stroke-dasharray=""/><path fill="none" stroke="rgb(0,0,0)" class="dcg-svg-minor-gridline" paint-order="fill stroke markers" d=" M 0 188.5 L 400 188.5" stroke-opacity="0.2" stroke-miterlimit="10" stroke-dasharray=""/><path fill="none" stroke="rgb(0,0,0)" class="dcg-svg-minor-gridline" paint-order="fill stroke markers" d=" M 0 163.5 L 400 163.5" stroke-opacity="0.2" stroke-miterlimit="10" stroke-dasharray=""/><path fill="none" stroke="rgb(0,0,0)" class="dcg-svg-minor-gridline" paint-order="fill stroke markers" d=" M 0 139.5 L 400 139.5" stroke-opacity="0.2" stroke-miterlimit="10" stroke-dasharray=""/><path fill="none" stroke="rgb(0,0,0)" class="dcg-svg-minor-gridline" paint-order="fill stroke markers" d=" M 0 114.5 L 400 114.5" stroke-opacity="0.2" stroke-miterlimit="10" stroke-dasharray=""/><path fill="none" stroke="rgb(0,0,0)" class="dcg-svg-minor-gridline" paint-order="fill stroke markers" d=" M 0 90.5 L 400 90.5" stroke-opacity="0.2" stroke-miterlimit="10" stroke-dasharray=""/><path fill="none" stroke="rgb(0,0,0)" class="dcg-svg-minor-gridline" paint-order="fill stroke markers" d=" M 0 65.5 L 400 65.5" stroke-opacity="0.2" stroke-miterlimit="10" stroke-dasharray=""/><path fill="none" stroke="rgb(0,0,0)" class="dcg-svg-minor-gridline" paint-order="fill stroke markers" d=" M 0 41.5 L 400 41.5" stroke-opacity="0.2" stroke-miterlimit="10" stroke-dasharray=""/><path fill="none" stroke="rgb(0,0,0)" class="dcg-svg-minor-gridline" paint-order="fill stroke markers" d=" M 0 17.5 L 400 17.5" stroke-opacity="0.2" stroke-miterlimit="10" stroke-dasharray=""/><path fill="none" stroke="rgb(0,0,0)" class="dcg-svg-major-gridline" paint-order="fill stroke markers" d=" M 82.5 0 L 82.5 400" stroke-opacity="0.2500000000000001" stroke-miterlimit="10" stroke-dasharray=""/><path fill="none" stroke="rgb(0,0,0)" class="dcg-svg-major-gridline" paint-order="fill stroke markers" d=" M 204.5 0 L 204.5 400" stroke-opacity="0.2500000000000001" stroke-miterlimit="10" stroke-dasharray=""/><path fill="none" stroke="rgb(0,0,0)" class="dcg-svg-major-gridline" paint-order="fill stroke markers" d=" M 327.5 0 L 327.5 400" stroke-opacity="0.2500000000000001" stroke-miterlimit="10" stroke-dasharray=""/><path fill="none" stroke="rgb(0,0,0)" class="dcg-svg-major-gridline" paint-order="fill stroke markers" d=" M 0 383.5 L 400 383.5" stroke-opacity="0.2500000000000001" stroke-miterlimit="10" stroke-dasharray=""/><path fill="none" stroke="rgb(0,0,0)" class="dcg-svg-major-gridline" paint-order="fill stroke markers" d=" M 0 261.5 L 400 261.5" stroke-opacity="0.2500000000000001" stroke-miterlimit="10" stroke-dasharray=""/><path fill="none" stroke="rgb(0,0,0)" class="dcg-svg-major-gridline" paint-order="fill stroke markers" d=" M 0 139.5 L 400 139.5" stroke-opacity="0.2500000000000001" stroke-miterlimit="10" stroke-dasharray=""/><path fill="none" stroke="rgb(0,0,0)" class="dcg-svg-major-gridline" paint-order="fill stroke markers" d=" M 0 17.5 L 400 17.5" stroke-opacity="0.2500000000000001" stroke-miterlimit="10" stroke-dasharray=""/></g></g><g id="axis-a791fd62"><g/></g></g><g id="expressions-a791fd62"><g id="sketch-a791fd62"><title>Expression 1</title><path fill="#000000" stroke="none" paint-order="stroke fill markers" d="" fill-opacity="0.4"/><g><path fill="none" stroke="#000000" class="dcg-svg-curve" paint-order="fill stroke markers" d=" M -1.4210854715202004e-14 261.65165857847325 L -1.4210854715202004e-14 261.65165857847325 L 400 261.65165857847325" stroke-linecap="round" stroke-linejoin="round" stroke-miterlimit="10" stroke-width="1.5" stroke-dasharray=""/></g></g><g id="sketch-a791fd62"><title>Expression 2</title><path fill="#000000" stroke="none" paint-order="stroke fill markers" d="" fill-opacity="0.4"/><g><path fill="none" stroke="#000000" class="dcg-svg-curve" paint-order="fill stroke markers" d=" M -1.4210854715202004e-14 139.36120436962202 L -1.4210854715202004e-14 139.36120436962202 L 400 139.36120436962202" stroke-linecap="round" stroke-linejoin="round" stroke-miterlimit="10" stroke-width="1.5" stroke-dasharray=""/></g></g><g id="sketch-a791fd62"><title>2</title><path fill="#000000" stroke="none" class="dcg-svg-point" paint-order="stroke fill markers" d=" M 331.06557594301523 139.36120436962202 A 4 4 0 1 1 331.0655739430154 139.35720437028868 Z"/></g><g id="sketch-a791fd62"><title>1</title><path fill="#000000" stroke="none" class="dcg-svg-point" paint-order="stroke fill markers" d=" M 208.7751217341647 139.36120436962202 A 4 4 0 1 1 208.7751197341649 139.35720437028868 Z"/></g><g id="sketch-a791fd62"><title>0</title><path fill="#000000" stroke="none" class="dcg-svg-point" paint-order="stroke fill markers" d=" M 86.48466752531417 139.36120436962202 A 4 4 0 1 1 86.48466552531433 139.35720437028868 Z"/></g><g id="sketch-a791fd62"><title>0</title><path fill="#000000" stroke="none" class="dcg-svg-point" paint-order="stroke fill markers" d=" M 86.48466752531417 261.65165857847325 A 4 4 0 1 1 86.48466552531433 261.6476585791399 Z"/></g><g id="sketch-a791fd62"><title>1</title><path fill="#000000" stroke="none" class="dcg-svg-point" paint-order="stroke fill markers" d=" M 208.7751217341647 261.65165857847325 A 4 4 0 1 1 208.7751197341649 261.6476585791399 Z"/></g><g id="sketch-a791fd62"><title>2</title><path fill="#000000" stroke="none" class="dcg-svg-point" paint-order="stroke fill markers" d=" M 331.06557594301523 261.65165857847325 A 4 4 0 1 1 331.0655739430154 261.6476585791399 Z"/></g><g id="sketch-a791fd62"><title>Expression 13</title><path fill="#c74440" stroke="none" paint-order="stroke fill markers" d="" fill-opacity="0.4"/><g><path fill="none" stroke="#c74440" class="dcg-svg-curve" paint-order="fill stroke markers" d=" M -2 249.69948977248475 L 67.0048631950799 261.65165857847325 M 67.00486319507995 261.65165857847325 L 56.76837587076169 263.48859277954625 L 57.98250041896894 256.4789445967953 L 67.00486319507995 261.65165857847325 L 58.60490167587556 261.67708446853635 L 59.10278517403443 258.80259505701406 L 67.00486319507995 261.65165857847325" stroke-linecap="round" stroke-linejoin="round" stroke-miterlimit="10" stroke-width="2" stroke-dasharray=""/></g><path fill="#c74440" stroke="none" paint-order="stroke fill markers" d="" fill-opacity="0.4"/><g><path fill="none" stroke="#c74440" class="dcg-svg-curve" paint-order="fill stroke markers" d=" M -2 249.33546632535896 L 66.60279035533358 261.65165857847325 M 66.60279035533354 261.65165857847325 L 56.35523381514652 263.42580202128454 L 57.61230918933003 256.42372893054034 L 66.60279035533354 261.65165857847325 L 58.20283081589538 261.6255868351107 L 58.71832742262492 258.754203788016 L 66.60279035533354 261.65165857847325" stroke-linecap="round" stroke-linejoin="round" stroke-miterlimit="10" stroke-width="2" stroke-dasharray=""/></g><path fill="#c74440" stroke="none" paint-order="stroke fill markers" d="" fill-opacity="0.4"/><g><path fill="none" stroke="#c74440" class="dcg-svg-curve" paint-order="fill stroke markers" d=" M -2 248.9474461006842 L 66.17927363080071 261.65165857847325 M 66.17927363080071 261.65165857847325 L 55.92025497974911 263.35827403526935 L 57.223418131180594 256.3646317892538 L 66.17927363080071 261.65165857847325 L 57.77966797049418 261.57026600297326 L 58.31406407463727 258.702340244072 L 66.17927363080071 261.65165857847325" stroke-linecap="round" stroke-linejoin="round" stroke-miterlimit="10" stroke-width="2" stroke-dasharray=""/></g><path fill="#c74440" stroke="none" paint-order="stroke fill markers" d="" fill-opacity="0.4"/><g><path fill="none" stroke="#c74440" class="dcg-svg-curve" paint-order="fill stroke markers" d=" M -2 248.5328573387294 L 65.73255051040314 261.65165857847325 M 65.73255051040317 261.65165857847325 L 55.461683726085525 263.2854564542218 L 56.814425052998004 256.3012344526696 L 65.73255051040317 261.65165857847325 L 57.33373356708856 261.5106835711442 L 57.88846049765079 258.64662082965236 L 65.73255051040317 261.65165857847325" stroke-linecap="round" stroke-linejoin="round" stroke-miterlimit="10" stroke-width="2" stroke-dasharray=""/></g><path fill="#c74440" stroke="none" paint-order="stroke fill markers" d="" fill-opacity="0.4"/><g><path fill="none" stroke="#c74440" class="dcg-svg-curve" paint-order="fill stroke markers" d=" M -2 248.08873085280203 L 65.26065989026483 261.65165857847325 M 65.26065989026482 261.65165857847325 L 54.977575759662535 263.2067086622183 L 56.383793507618655 256.2330569853824 L 65.26065989026482 261.65165857847325 L 56.86316972148565 261.44633233743906 L 57.43982605592785 258.586604233818 L 65.26065989026482 261.65165857847325" stroke-linecap="round" stroke-linejoin="round" stroke-miterlimit="10" stroke-width="2" stroke-dasharray=""/></g><path fill="#c74440" stroke="none" paint-order="stroke fill markers" d="" fill-opacity="0.4"/><g><path fill="none" stroke="#c74440" class="dcg-svg-curve" paint-order="fill stroke markers" d=" M -2 247.61161738018552 L 64.7614132921475 261.65165857847325 M 64.76141329214745 261.65165857847325 L 54.465773346030424 263.1212837347357 L 55.92983868174159 256.1595469717381 L 64.76141329214745 261.65165857847325 L 56.36591716909628 261.3766224938721 L 56.96629541855458 258.5217804120276 L 64.76141329214745 261.65165857847325" stroke-linecap="round" stroke-linejoin="round" stroke-miterlimit="10" stroke-width="2" stroke-dasharray=""/></g><path fill="#c74440" stroke="none" paint-order="stroke fill markers" d="" fill-opacity="0.4"/><g><path fill="none" stroke="#c74440" class="dcg-svg-curve" paint-order="fill stroke markers" d=" M -2 247.09748284181347 L 64.23236092697823 261.65165857847325 M 64.23236092697826 261.65165857847325 L 53.923876931264594 263.0283058499685 L 55.450712236054976 256.0800657838403 L 64.23236092697826 261.65165857847325 L 55.839688916743874 261.300864438516 L 56.46580763231056 258.4515570299148 L 64.23236092697826 261.65165857847325" stroke-linecap="round" stroke-linejoin="round" stroke-miterlimit="10" stroke-width="2" stroke-dasharray=""/></g><path fill="#c74440" stroke="none" paint-order="stroke fill markers" d="" fill-opacity="0.4"/><g><path fill="none" stroke="#c74440" class="dcg-svg-curve" paint-order="fill stroke markers" d=" M -2.000000000000057 246.54157416411238 L 63.670751493183275 261.65165857847325 M 63.670751493183275 261.65165857847325 L 53.349212716778254 262.9267418256252 L 54.944386356493 255.9938717760958 L 63.670751493183275 261.65165857847325 L 55.281940218664474 261.21824722593817 L 55.93608285426534 258.3752426942883 L 63.670751493183275 261.65165857847325" stroke-linecap="round" stroke-linejoin="round" stroke-miterlimit="10" stroke-width="2" stroke-dasharray=""/></g><path fill="#c74440" stroke="none" paint-order="stroke fill markers" d="" fill-opacity="0.4"/><g><path fill="none" stroke="#c74440" class="dcg-svg-curve" paint-order="fill stroke markers" d=" M -2 245.93824534732602 L 63.07348431756009 261.65165857847325 M 63.07348431756007 261.65165857847325 L 52.73879576770711 262.8153649750949 L 54.40863752951852 255.90009964721244 L 63.07348431756007 261.65165857847325 L 54.689834510503836 261.12781135585396 L 55.37459676077713 258.29202610035713 L 63.07348431756007 261.65165857847325" stroke-linecap="round" stroke-linejoin="round" stroke-miterlimit="10" stroke-width="2" stroke-dasharray=""/></g><path fill="#c74440" stroke="none" paint-order="stroke fill markers" d="" fill-opacity="0.4"/><g><path fill="none" stroke="#c74440" class="dcg-svg-curve" paint-order="fill stroke markers" d=" M -2 245.28072906178986 L 62.43705208124027 261.65165857847325 M 62.43705208124028 261.65165857847325 L 52.08928834451483 262.6927088409052 L 53.84103096226149 255.797735029086 L 62.43705208124028 261.65165857847325 L 54.06020503742749 261.0284141604759 L 54.77855287388752 258.2009499713931 L 62.43705208124028 261.65165857847325" stroke-linecap="round" stroke-linejoin="round" stroke-miterlimit="10" stroke-width="2" stroke-dasharray=""/></g><path fill="#c74440" stroke="none" paint-order="stroke fill markers" d="" fill-opacity="0.4"/><g><path fill="none" stroke="#c74440" class="dcg-svg-curve" paint-order="fill stroke markers" d=" M -2 244.5608323998951 L 61.75747189669545 261.65165857847325 M 61.757471896695435 261.65165857847325 L 51.396953407443824 262.55700748020973 L 53.23890722369327 255.68558315891312 L 61.757471896695435 261.65165857847325 L 53.38951214561878 260.91868545184366 L 54.144853441398936 258.1008783467384 L 61.757471896695435 261.65165857847325" stroke-linecap="round" stroke-linejoin="round" stroke-miterlimit="10" stroke-width="2" stroke-dasharray=""/></g><path fill="#c74440" stroke="none" paint-order="stroke fill markers" d="" fill-opacity="0.4"/><g><path fill="none" stroke="#c74440" class="dcg-svg-curve" paint-order="fill stroke markers" d=" M -2 243.76852514465332 L 61.030201874638635 261.65165857847325 M 61.03020187463862 261.65165857847325 L 50.65760377370311 262.4061177466653 L 52.59937373338225 255.56223029228747 L 61.03020187463862 261.65165857847325 L 52.67379667250036 260.7969702740741 L 53.47007018626168 257.9904553808347 L 61.03020187463862 261.65165857847325" stroke-linecap="round" stroke-linejoin="round" stroke-miterlimit="10" stroke-width="2" stroke-dasharray=""/></g><path fill="#c74440" stroke="none" paint-order="stroke fill markers" d="" fill-opacity="0.4"/><g><path fill="none" stroke="#c74440" class="dcg-svg-curve" paint-order="fill stroke markers" d=" M -2 242.89137270557575 L 60.25003948734138 261.65165857847325 M 60.25003948734136 261.65165857847325 L 49.86654842118839 262.2374172993826 L 51.919305407872926 255.42599638902038 L 60.25003948734136 261.65165857847325 L 51.908630747568424 260.6612545013211 L 52.75041739203556 257.86805336286193 L 60.25003948734136 261.65165857847325" stroke-linecap="round" stroke-linejoin="round" stroke-miterlimit="10" stroke-width="2" stroke-dasharray=""/></g><path fill="#c74440" stroke="none" paint-order="stroke fill markers" d="" fill-opacity="0.4"/><g><path fill="none" stroke="#c74440" class="dcg-svg-curve" paint-order="fill stroke markers" d=" M -2 241.91373961696223 L 59.41099691987068 261.65165857847325 M 59.41099691987067 261.65165857847325 L 49.01853930899803 262.0476696972758 L 51.195361476247754 255.27487770898378 L 59.41099691987067 261.65165857847325 L 51.08906891293858 260.5090675547735 L 51.981731726733415 257.73170721524957 L 59.41099691987067 261.65165857847325" stroke-linecap="round" stroke-linejoin="round" stroke-miterlimit="10" stroke-width="2" stroke-dasharray=""/></g><path fill="#c74440" stroke="none" paint-order="stroke fill markers" d="" fill-opacity="0.4"/><g><path fill="none" stroke="#c74440" class="dcg-svg-curve" paint-order="fill stroke markers" d=" M -2 240.81564573780793 L 58.50614709220622 261.65165857847325 M 58.50614709220619 261.65165857847325 L 48.10772550108536 261.83284470739096 L 50.424029816404314 255.10647864663142 L 58.50614709220619 261.65165857847325 L 50.209605334293165 260.3373546337156 L 51.15946644781266 257.5790324589659 L 58.50614709220619 261.65165857847325" stroke-linecap="round" stroke-linejoin="round" stroke-miterlimit="10" stroke-width="2" stroke-dasharray=""/></g><path fill="#c74440" stroke="none" paint-order="stroke fill markers" d="" fill-opacity="0.4"/><g><path fill="none" stroke="#c74440" class="dcg-svg-curve" paint-order="fill stroke markers" d=" M -2 239.5710819951886 L 57.52743197248748 261.65165857847325 M 57.5274319724875 261.65165857847325 L 47.12762755113852 261.5878777217037 L 49.601717130455604 254.91793418236114 L 57.5274319724875 261.65165857847325 L 49.26414795392796 260.1423086427 L 50.27871303815072 257.40712399727505 L 57.5274319724875 261.65165857847325" stroke-linecap="round" stroke-linejoin="round" stroke-miterlimit="10" stroke-width="2" stroke-dasharray=""/></g><path fill="#c74440" stroke="none" paint-order="stroke fill markers" d="" fill-opacity="0.4"/><g><path fill="none" stroke="#c74440" class="dcg-svg-curve" paint-order="fill stroke markers" d=" M -2 238.14545813705942 L 56.465421948962984 261.65165857847325 M 56.46542194896298 261.65165857847325 L 46.071156223494015 261.3063470838178 L 48.724914399912294 254.7058294067264 L 56.46542194896298 261.65165857847325 L 48.246029410798855 259.91914990502545 L 49.33427229831298 257.2124351486339 L 56.46542194896298 261.65165857847325" stroke-linecap="round" stroke-linejoin="round" stroke-miterlimit="10" stroke-width="2" stroke-dasharray=""/></g><path fill="#c74440" stroke="none" paint-order="stroke fill markers" d="" fill-opacity="0.4"/><g><path fill="none" stroke="#c74440" class="dcg-svg-curve" paint-order="fill stroke markers" d=" M -2 236.49160495358888 L 55.30901103445851 261.65165857847325 M 55.30901103445848 261.65165857847325 L 44.93071960892848 260.98004329665594 L 47.79048454049017 254.4661342858766 L 55.30901103445848 261.65165857847325 L 47.14809030864595 259.6618412735421 L 48.32081164941811 256.9906426640055 L 55.30901103445848 261.65165857847325" stroke-linecap="round" stroke-linejoin="round" stroke-miterlimit="10" stroke-width="2" stroke-dasharray=""/></g><path fill="#c74440" stroke="none" paint-order="stroke fill markers" d="" fill-opacity="0.4"/><g><path fill="none" stroke="#c74440" class="dcg-svg-curve" paint-order="fill stroke markers" d=" M -2 234.5432653107565 L 54.04502701162798 261.65165857847325 M 54.045027011627994 261.65165857847325 L 43.69849843203682 260.5984034566233 L 46.79614562982451 254.19419797096464 L 54.045027011627994 261.65165857847325 L 45.96289776863801 259.36273155918974 L 47.23316894894965 256.736519746871 L 54.045027011627994 261.65165857847325" stroke-linecap="round" stroke-linejoin="round" stroke-miterlimit="10" stroke-width="2" stroke-dasharray=""/></g><path fill="#c74440" stroke="none" paint-order="stroke fill markers" d="" fill-opacity="0.4"/><g><path fill="none" stroke="#c74440" class="dcg-svg-curve" paint-order="fill stroke markers" d=" M -2 232.20399988662845 L 52.65772747437501 261.65165857847325 M 52.65772747437501 261.65165857847325 L 42.36703227656657 260.14779942755445 L 45.741259631187035 253.88490426446623 L 52.65772747437501 261.65165857847325 L 44.683208463339945 259.01214223212486 L 46.066898564476936 256.4438784102584 L 52.65772747437501 261.65165857847325" stroke-linecap="round" stroke-linejoin="round" stroke-miterlimit="10" stroke-width="2" stroke-dasharray=""/></g><path fill="#c74440" stroke="none" paint-order="stroke fill markers" d="" fill-opacity="0.4"/><g><path fill="none" stroke="#c74440" class="dcg-svg-curve" paint-order="fill stroke markers" d=" M -2 229.32720473449885 L 51.12814080509608 261.65165857847325 M 51.12814080509608 261.65165857847325 L 40.930365870678024 259.61073075344984 L 44.62807510259667 253.53321378509128 L 51.12814080509608 261.65165857847325 L 43.302858772488705 258.59797864924815 L 44.81920107055066 256.10573400038226 L 51.12814080509608 261.65165857847325" stroke-linecap="round" stroke-linejoin="round" stroke-miterlimit="10" stroke-width="2" stroke-dasharray=""/></g><path fill="#c74440" stroke="none" paint-order="stroke fill markers" d="" fill-opacity="0.4"/><g><path fill="none" stroke="#c74440" class="dcg-svg-curve" paint-order="fill stroke markers" d=" M -1.9999999999999858 225.67759135072032 L 49.43319341481401 261.65165857847325 M 49.433193414814006 261.65165857847325 L 39.38616652801797 258.9651644437323 L 43.46356944162398 253.1355802780632 L 49.433193414814006 261.65165857847325 L 41.818363091637394 258.10562429363756 L 43.490408705925404 255.71505096942582 L 49.433193414814006 261.65165857847325" stroke-linecap="round" stroke-linejoin="round" stroke-miterlimit="10" stroke-width="2" stroke-dasharray=""/></g><path fill="#c74440" stroke="none" paint-order="stroke fill markers" d="" fill-opacity="0.4"/><g><path fill="none" stroke="#c74440" class="dcg-svg-curve" paint-order="fill stroke markers" d=" M -2.000000000000014 220.85027454794383 L 47.54453775135687 261.65165857847325 M 47.544537751356884 261.65165857847325 L 37.73939869951796 258.1847798419001 L 42.26183216284176 252.69325349357834 L 47.544537751356884 261.65165857847325 L 40.231562542159686 257.5188152969457 L 42.086104562774565 255.26687141477052 L 47.544537751356884 261.65165857847325" stroke-linecap="round" stroke-linejoin="round" stroke-miterlimit="10" stroke-width="2" stroke-dasharray=""/></g><path fill="#c74440" stroke="none" paint-order="stroke fill markers" d="" fill-opacity="0.4"/><g><path fill="none" stroke="#c74440" class="dcg-svg-curve" paint-order="fill stroke markers" d=" M -2 214.08054957400907 L 45.4269541286928 261.65165857847325 M 45.4269541286928 261.65165857847325 L 36.00803353242172 257.24213084852977 L 41.04603213511733 252.2193989082666 L 45.4269541286928 261.65165857847325 L 38.5533960116047 256.8231806805211 L 40.61935899022444 254.76347819577597 L 45.4269541286928 261.65165857847325" stroke-linecap="round" stroke-linejoin="round" stroke-miterlimit="10" stroke-width="2" stroke-dasharray=""/></g><path fill="#c74440" stroke="none" paint-order="stroke fill markers" d="" fill-opacity="0.4"/><g><path fill="none" stroke="#c74440" class="dcg-svg-curve" paint-order="fill stroke markers" d=" M -2 203.72136184833874 L 43.03613390955593 261.65165857847325 M 43.036133909555936 261.65165857847325 L 34.22971526331266 256.1193000735408 L 39.846157341136475 251.75296929691 L 43.036133909555936 261.65165857847325 L 36.80725494352865 256.0159628071791 L 39.110423784849424 254.2254347724749 L 43.036133909555936 261.65165857847325" stroke-linecap="round" stroke-linejoin="round" stroke-miterlimit="10" stroke-width="2" stroke-dasharray=""/></g><path fill="#c74440" stroke="none" paint-order="stroke fill markers" d="" fill-opacity="0.4"/><g><path fill="none" stroke="#c74440" class="dcg-svg-curve" paint-order="fill stroke markers" d=" M -2 185.43111099178924 L 40.31554538433123 261.65165857847325 M 40.31554538433122 261.65165857847325 L 32.462062937422026 254.83382802498417 L 38.681845801469095 251.3807761590822 L 40.31554538433122 261.65165857847325 L 35.0249454780724 255.12712391062956 L 37.57552997511838 253.7111097588213 L 40.31554538433122 261.65165857847325" stroke-linecap="round" stroke-linejoin="round" stroke-miterlimit="10" stroke-width="2" stroke-dasharray=""/></g><path fill="#c74440" stroke="none" paint-order="stroke fill markers" d="" fill-opacity="0.4"/><g><path fill="none" stroke="#c74440" class="dcg-svg-curve" paint-order="fill stroke markers" d=" M -2 142.75486294982346 L 37.19190670722138 261.65165857847325 M 37.19190670722138 261.65165857847325 L 30.754220421377905 253.48366033624382 L 37.510640967454236 251.25654393401868 L 37.19190670722138 261.65165857847325 L 33.21682853522165 254.25174280013553 L 35.98747533705104 253.338455521014 L 37.19190670722138 261.65165857847325" stroke-linecap="round" stroke-linejoin="round" stroke-miterlimit="10" stroke-width="2" stroke-dasharray=""/></g><path fill="#c74440" stroke="none" paint-order="stroke fill markers" d="" fill-opacity="0.4"/><g><path fill="none" stroke="#c74440" class="dcg-svg-curve" paint-order="fill stroke markers" d=" M 21.3394404208889 139.36120436962202 L 33.56848584177395 261.65165857847325 M 33.56848584177395 261.65165857847325 L 29.05669884346026 252.28129155888178 L 36.135412301588076 251.573420213069 L 33.56848584177395 261.65165857847325 L 31.293947040389746 253.56546829868154 L 34.196758472874976 253.27518715543303 L 33.56848584177395 261.65165857847325" stroke-linecap="round" stroke-linejoin="round" stroke-miterlimit="10" stroke-width="2" stroke-dasharray=""/></g><path fill="#c74440" stroke="none" paint-order="stroke fill markers" d="" fill-opacity="0.4"/><g><path fill="none" stroke="#c74440" class="dcg-svg-curve" paint-order="fill stroke markers" d=" M 45.79753126265901 139.36120436962202 L 29.314904825813933 261.65165857847325 M 29.314904825813933 261.65165857847325 L 27.095170741137444 251.49130520896264 L 34.14543912100401 252.44155877320551 L 29.314904825813933 261.65165857847325 L 28.974313507656504 253.25856632626991 L 31.8654602924818 253.6482426320507 L 29.314904825813933 261.65165857847325" stroke-linecap="round" stroke-linejoin="round" stroke-miterlimit="10" stroke-width="2" stroke-dasharray=""/></g><path fill="#c74440" stroke="none" paint-order="stroke fill markers" d="" fill-opacity="0.4"/><g><path fill="none" stroke="#c74440" class="dcg-svg-curve" paint-order="fill stroke markers" d=" M 70.25562210442911 139.36120436962202 L 24.25111790205201 261.65165857847325 M 24.25111790205201 261.65165857847325 L 24.362896159517238 251.25225928711234 L 31.021350027714547 253.75710621848177 L 24.25111790205201 261.65165857847325 L 25.79858918810033 253.39542865078494 L 28.529062193627325 254.4226065909594 L 24.25111790205201 261.65165857847325" stroke-linecap="round" stroke-linejoin="round" stroke-miterlimit="10" stroke-width="2" stroke-dasharray=""/></g><path fill="#c74440" stroke="none" paint-order="stroke fill markers" d="" fill-opacity="0.4"/><g><path fill="none" stroke="#c74440" class="dcg-svg-curve" paint-order="fill stroke markers" d=" M 94.71371294619922 139.36120436962202 L 18.121270573287575 261.65165857847325 M 18.121270573287575 261.65165857847325 L 20.294126368534904 251.48117689405632 L 26.323234292222743 255.25730238310288 L 18.121270573287575 261.65165857847325 L 21.276060870227973 253.86658965248867 L 23.748454125314908 255.41508858593784 L 18.121270573287575 261.65165857847325" stroke-linecap="round" stroke-linejoin="round" stroke-miterlimit="10" stroke-width="2" stroke-dasharray=""/></g><path fill="#c74440" stroke="none" paint-order="stroke fill markers" d="" fill-opacity="0.4"/><g><path fill="none" stroke="#c74440" class="dcg-svg-curve" paint-order="fill stroke markers" d=" M 119.17180378796932 139.36120436962202 L 10.549106225990329 261.65165857847325 M 10.549106225990329 261.65165857847325 L 14.379730180626856 251.98282617129166 L 19.698540091590083 256.7071808569119 L 10.549106225990329 261.65165857847325 L 14.952162735165789 254.49812145499317 L 17.133279728824018 256.43546654936017 L 10.549106225990329 261.65165857847325" stroke-linecap="round" stroke-linejoin="round" stroke-miterlimit="10" stroke-width="2" stroke-dasharray=""/></g><path fill="#c74440" stroke="none" paint-order="stroke fill markers" d="" fill-opacity="0.4"/><g><path fill="none" stroke="#c74440" class="dcg-svg-curve" paint-order="fill stroke markers" d=" M 143.62989462973943 139.36120436962202 L 0.9576980527471619 261.65165857847325 M 0.9576980527471619 261.65165857847325 L 6.062892356838895 252.590919584469 L 10.69263454038891 257.9922854652773 L 0.9576980527471619 261.65165857847325 L 6.289287693688879 255.16057608780937 L 8.187834459194276 257.37554731423234 L 0.9576980527471619 261.65165857847325" stroke-linecap="round" stroke-linejoin="round" stroke-miterlimit="10" stroke-width="2" stroke-dasharray=""/></g><path fill="#c74440" stroke="none" paint-order="stroke fill markers" d="" fill-opacity="0.4"/><g><path fill="none" stroke="#c74440" class="dcg-svg-curve" paint-order="fill stroke markers" d=" M 168.08798547150954 139.36120436962202 L -2 255.12789605180194 M -11.584912635340103 261.65165857847325 L -5.50728877299815 253.21231688685467 L -1.5044783749422823 259.0933690870752 L -11.584912635340103 261.65165857847325 L -5.566985115929565 255.79123637771661 L -3.9255281118738576 258.2029155144446 L -11.584912635340103 261.65165857847325" stroke-linecap="round" stroke-linejoin="round" stroke-miterlimit="10" stroke-width="2" stroke-dasharray=""/></g><path fill="#c74440" stroke="none" paint-order="stroke fill markers" d="" fill-opacity="0.4"/><g><path fill="none" stroke="#c74440" class="dcg-svg-curve" paint-order="fill stroke markers" d=" M 192.54607631327963 139.36120436962202 L -2 246.8992365025913 M -28.68847266454995 261.65165857847325 L -21.856179648626792 253.81075479481618 L -18.414596765062342 260.03689110235547 L -28.68847266454995 261.65165857847325 L -22.154198452598116 256.3730924357578 L -20.742887456701617 258.92628232833425 L -28.68847266454995 261.65165857847325" stroke-linecap="round" stroke-linejoin="round" stroke-miterlimit="10" stroke-width="2" stroke-dasharray=""/></g><path fill="#c74440" stroke="none" paint-order="stroke fill markers" d="" fill-opacity="0.4"/><g><path fill="none" stroke="#c74440" class="dcg-svg-curve" paint-order="fill stroke markers" d=" M 217.00416715504977 139.36120436962202 L -2 238.40831514326317 M -53.39361492896421 261.65165857847325 L -45.954899539342144 254.38354236089666 L -43.023373290380576 260.8654726224894 L -53.39361492896421 261.65165857847325 L -46.45731515156043 256.9137534086763 L -45.255166207341574 259.57183829644913 L -53.39361492896421 261.65165857847325" stroke-linecap="round" stroke-linejoin="round" stroke-miterlimit="10" stroke-width="2" stroke-dasharray=""/></g><path fill="#c74440" stroke="none" paint-order="stroke fill markers" d="" fill-opacity="0.4"/><g><path fill="none" stroke="#c74440" class="dcg-svg-curve" paint-order="fill stroke markers" d=" M 241.46225799681986 139.36120436962202 L -2 228.58820991819525 M -92.21598134447231 261.65165857847325 L -84.26401360270789 254.94895695644516 L -81.81600708996677 261.6285175840673 L -92.21598134447231 261.65165857847325 L -84.95073136278147 257.4354822653263 L -83.94686232160367 260.17461064911146 L -92.21598134447231 261.65165857847325" stroke-linecap="round" stroke-linejoin="round" stroke-miterlimit="10" stroke-width="2" stroke-dasharray=""/></g><path fill="#c74440" stroke="none" paint-order="stroke fill markers" d="" fill-opacity="0.4"/><g><path fill="none" stroke="#c74440" class="dcg-svg-curve" paint-order="fill stroke markers" d=" M 265.92034883859 139.36120436962202 L -2 215.90987546636245 M -162.0962408923869 261.65165857847325 L -153.67664218518965 255.54671323803305 L -151.7222708667982 262.38701285240313 L -162.0962408923869 261.65165857847325 L -154.54286500539902 257.97653780360474 L -153.7414239752025 260.7815814092925 L -162.0962408923869 261.65165857847325" stroke-linecap="round" stroke-linejoin="round" stroke-miterlimit="10" stroke-width="2" stroke-dasharray=""/></g><path fill="#c74440" stroke="none" paint-order="stroke fill markers" d="" fill-opacity="0.4"/><g><path fill="none" stroke="#c74440" class="dcg-svg-curve" paint-order="fill stroke markers" d=" M 290.3784396803601 139.36120436962202 L -2 197.4496360941972 M -325.1501798375209 261.65165857847325 L -316.25786722300086 256.2584428062602 L -314.87158089794644 263.23608397570064 L -325.1501798375209 261.65165857847325 L -317.32062020646185 258.6089630656606 L -316.7521372728229 261.4703271649765 L -325.1501798375209 261.65165857847325" stroke-linecap="round" stroke-linejoin="round" stroke-miterlimit="10" stroke-width="2" stroke-dasharray=""/></g><path fill="#c74440" stroke="none" paint-order="stroke fill markers" d="" fill-opacity="0.4"/><g><path fill="none" stroke="#c74440" class="dcg-svg-curve" paint-order="fill stroke markers" d=" M 314.83653052213015 139.36120436962202 L -2 165.9861229008936 M -1140.4198745631913 261.65165857847325 L -1130.9792541975096 257.2887825647553 L -1130.3835371482485 264.3778154509622 L -1140.4198745631913 261.65165857847325 L -1132.2986886566805 259.50542013135464 L -1132.054399313518 262.41246331498814 L -1140.4198745631913 261.65165857847325" stroke-linecap="round" stroke-linejoin="round" stroke-miterlimit="10" stroke-width="2" stroke-dasharray=""/></g></g><g id="sketch-a791fd62"><title>Expression 14</title><path fill="#c74440" stroke="none" paint-order="stroke fill markers" d="" fill-opacity="0.4"/><g><path fill="none" stroke="#c74440" class="dcg-svg-curve" paint-order="fill stroke markers" d=" M 339.2946213639003 139.36120436962202 L 402 147.29859407039416 M 1305.3892096138195 261.65165857847325 L 1295.2470831066314 263.9532384515586 L 1296.1404629364552 256.8955377959508 L 1305.3892096138195 261.65165857847325 L 1296.9991361789141 262.05990820418725 L 1297.3654899236876 259.1657136204761 L 1305.3892096138195 261.65165857847325" stroke-linecap="round" stroke-linejoin="round" stroke-miterlimit="10" stroke-width="2" stroke-dasharray=""/></g><path fill="#c74440" stroke="none" paint-order="stroke fill markers" d="" fill-opacity="0.4"/><g><path fill="none" stroke="#c74440" class="dcg-svg-curve" paint-order="fill stroke markers" d=" M 363.7527122056704 139.36120436962202 L 402 176.3747086867154 M 490.1195148881493 261.65165857847325 L 480.6231369195674 257.4115164254514 L 485.5703781548317 252.29936714901166 L 490.1195148881493 261.65165857847325 L 483.16058844535974 256.94704990570943 L 485.18933399381785 254.85067950563604 L 490.1195148881493 261.65165857847325" stroke-linecap="round" stroke-linejoin="round" stroke-miterlimit="10" stroke-width="2" stroke-dasharray=""/></g><path fill="#c74440" stroke="none" paint-order="stroke fill markers" d="" fill-opacity="0.4"/><g><path fill="none" stroke="#c74440" class="dcg-svg-curve" paint-order="fill stroke markers" d=" M 388.21080304744055 139.36120436962202 L 327.06557594301523 261.65165857847325 M 327.06557594301523 261.65165857847325 L 328.2546204182965 251.31985461034634 L 334.617592432348 254.50134061737205 L 327.06557594301523 261.65165857847325 L 329.4604475633699 253.60028665053326 L 332.0697505131544 254.9049381254255 L 327.06557594301523 261.65165857847325" stroke-linecap="round" stroke-linejoin="round" stroke-miterlimit="10" stroke-width="2" stroke-dasharray=""/></g><path fill="#c74440" stroke="none" paint-order="stroke fill markers" d="" fill-opacity="0.4"/><g><path fill="none" stroke="#c74440" class="dcg-svg-curve" paint-order="fill stroke markers" d=" M 402 147.75246922630456 L 257.18531639510064 261.65165857847325 M 257.18531639510064 261.65165857847325 L 262.66787068249545 252.81414770234025 L 267.0658391327059 258.4058504461792 L 257.18531639510064 261.65165857847325 L 262.78575763252627 255.39106292421297 L 264.5892595220288 257.68408675515184 L 257.18531639510064 261.65165857847325" stroke-linecap="round" stroke-linejoin="round" stroke-miterlimit="10" stroke-width="2" stroke-dasharray=""/></g><path fill="#c74440" stroke="none" paint-order="stroke fill markers" d="" fill-opacity="0.4"/><g><path fill="none" stroke="#c74440" class="dcg-svg-curve" paint-order="fill stroke markers" d=" M 402 158.9974070142697 L 218.36294997959254 261.65165857847325 M 218.36294997959254 261.65165857847325 L 225.1577737884555 253.7782622715096 L 228.62900859261254 259.98791564339047 L 218.36294997959254 261.65165857847325 L 224.87197758919075 256.3419919620567 L 226.29544812998202 258.88842259613887 L 218.36294997959254 261.65165857847325" stroke-linecap="round" stroke-linejoin="round" stroke-miterlimit="10" stroke-width="2" stroke-dasharray=""/></g><path fill="#c74440" stroke="none" paint-order="stroke fill markers" d="" fill-opacity="0.4"/><g><path fill="none" stroke="#c74440" class="dcg-svg-curve" paint-order="fill stroke markers" d=" M 402 166.5577118924545 L 193.6578077151783 261.65165857847325 M 193.6578077151783 261.65165857847325 L 201.07135526813886 254.35787268361776 L 204.02526982284158 260.8296309352846 L 193.6578077151783 261.65165857847325 L 200.57768873305167 256.88980529445917 L 201.78901858708468 259.54371888374965 L 193.6578077151783 261.65165857847325" stroke-linecap="round" stroke-linejoin="round" stroke-miterlimit="10" stroke-width="2" stroke-dasharray=""/></g><path fill="#c74440" stroke="none" paint-order="stroke fill markers" d="" fill-opacity="0.4"/><g><path fill="none" stroke="#c74440" class="dcg-svg-curve" paint-order="fill stroke markers" d=" M 402 172.5697503692809 L 176.55424768596845 261.65165857847325 M 176.55424768596842 261.65165857847325 L 184.33607023562905 254.75214860996147 L 186.95038912814204 261.36838642255196 L 176.55424768596842 261.65165857847325 L 183.71176371513212 257.2550730519237 L 184.78383349366442 259.96823426067084 L 176.55424768596842 261.65165857847325" stroke-linecap="round" stroke-linejoin="round" stroke-miterlimit="10" stroke-width="2" stroke-dasharray=""/></g><path fill="#c74440" stroke="none" paint-order="stroke fill markers" d="" fill-opacity="0.4"/><g><path fill="none" stroke="#c74440" class="dcg-svg-curve" paint-order="fill stroke markers" d=" M 402 177.65576575419556 L 164.01163699788117 261.65165857847325 M 164.01163699788117 261.65165857847325 L 172.04345168301796 255.04484748206517 L 174.41114031790227 261.75329861423734 L 164.01163699788117 261.65165857847325 L 171.3269499084573 257.5229545420524 L 172.29788250497538 260.2739302321869 L 164.01163699788117 261.65165857847325" stroke-linecap="round" stroke-linejoin="round" stroke-miterlimit="10" stroke-width="2" stroke-dasharray=""/></g><path fill="#c74440" stroke="none" paint-order="stroke fill markers" d="" fill-opacity="0.4"/><g><path fill="none" stroke="#c74440" class="dcg-svg-curve" paint-order="fill stroke markers" d=" M 402 182.08916122533188 L 154.420228824638 261.65165857847325 M 154.42022882463803 261.65165857847325 L 162.6361292919932 255.2752191715226 L 164.81266996757893 262.0481016267276 L 154.42022882463803 261.65165857847325 L 161.84965693180035 257.7320159926618 L 162.7422043125825 260.50941343050744 L 154.42022882463803 261.65165857847325" stroke-linecap="round" stroke-linejoin="round" stroke-miterlimit="10" stroke-width="2" stroke-dasharray=""/></g><path fill="#c74440" stroke="none" paint-order="stroke fill markers" d="" fill-opacity="0.4"/><g><path fill="none" stroke="#c74440" class="dcg-svg-curve" paint-order="fill stroke markers" d=" M 402 186.02159968720096 L 146.84806447734076 261.65165857847325 M 146.84806447734076 261.65165857847325 L 155.20704763757146 255.46397722541545 L 157.22878198379462 262.2846704671471 L 146.84806447734076 261.65165857847325 L 154.364829527462 257.902226197262 L 155.1938945275329 260.6992296975011 L 146.84806447734076 261.65165857847325" stroke-linecap="round" stroke-linejoin="round" stroke-miterlimit="10" stroke-width="2" stroke-dasharray=""/></g><path fill="#c74440" stroke="none" paint-order="stroke fill markers" d="" fill-opacity="0.4"/><g><path fill="none" stroke="#c74440" class="dcg-svg-curve" paint-order="fill stroke markers" d=" M 402 189.55024675350705 L 140.71821714857634 261.65165857847325 M 140.71821714857634 261.65165857847325 L 149.19270772069228 255.6231422151283 L 151.08510918276062 262.48084465624254 L 140.71821714857634 261.65165857847325 L 148.3045357206669 258.04502988636284 L 149.080564391899 260.85720997592296 L 140.71821714857634 261.65165857847325" stroke-linecap="round" stroke-linejoin="round" stroke-miterlimit="10" stroke-width="2" stroke-dasharray=""/></g><path fill="#c74440" stroke="none" paint-order="stroke fill markers" d="" fill-opacity="0.4"/><g><path fill="none" stroke="#c74440" class="dcg-svg-curve" paint-order="fill stroke markers" d=" M 402 192.74335593697376 L 135.6544302248144 261.65165857847325 M 135.6544302248144 261.65165857847325 L 144.22479000884 255.7602297897704 L 146.00664414162634 262.6474833725837 L 135.6544302248144 261.65165857847325 L 143.29777812185011 258.1675183796753 L 144.02847397191795 260.9918166871114 L 135.6544302248144 261.65165857847325" stroke-linecap="round" stroke-linejoin="round" stroke-miterlimit="10" stroke-width="2" stroke-dasharray=""/></g><path fill="#c74440" stroke="none" paint-order="stroke fill markers" d="" fill-opacity="0.4"/><g><path fill="none" stroke="#c74440" class="dcg-svg-curve" paint-order="fill stroke markers" d=" M 402 195.6518657025837 L 131.40084920885442 261.65165857847325 M 131.40084920885442 261.65165857847325 L 140.05247095736027 255.8802253837823 L 141.73818172094556 262.791639514482 L 131.40084920885442 261.65165857847325 L 139.09200473376535 258.27436281238585 L 139.7832744829004 261.1085687838395 L 131.40084920885442 261.65165857847325" stroke-linecap="round" stroke-linejoin="round" stroke-miterlimit="10" stroke-width="2" stroke-dasharray=""/></g><path fill="#c74440" stroke="none" paint-order="stroke fill markers" d="" fill-opacity="0.4"/><g><path fill="none" stroke="#c74440" class="dcg-svg-curve" paint-order="fill stroke markers" d=" M 402 198.31539309748047 L 127.77742834340688 261.65165857847325 M 127.77742834340694 261.65165857847325 L 136.4990728128412 255.98659743592705 L 138.1000267346218 262.91813497133995 L 127.77742834340694 261.65165857847325 L 135.50936231887178 258.3687944327839 L 136.16587531018246 261.2112525321994 L 127.77742834340694 261.65165857847325" stroke-linecap="round" stroke-linejoin="round" stroke-miterlimit="10" stroke-width="2" stroke-dasharray=""/></g><path fill="#c74440" stroke="none" paint-order="stroke fill markers" d="" fill-opacity="0.4"/><g><path fill="none" stroke="#c74440" class="dcg-svg-curve" paint-order="fill stroke markers" d=" M 402 200.7656623659265 L 124.65378966629714 261.65165857847325 M 124.65378966629714 261.65165857847325 L 133.4365730724332 256.0818546644291 L 134.9619930340164 263.0304055928822 L 124.65378966629714 261.65165857847325 L 132.42099463981785 258.4531390929433 L 133.04653295691708 261.30257397876414 L 124.65378966629714 261.65165857847325" stroke-linecap="round" stroke-linejoin="round" stroke-miterlimit="10" stroke-width="2" stroke-dasharray=""/></g><path fill="#c74440" stroke="none" paint-order="stroke fill markers" d="" fill-opacity="0.4"/><g><path fill="none" stroke="#c74440" class="dcg-svg-curve" paint-order="fill stroke markers" d=" M 402 203.02862843244486 L 121.93320114107235 261.65165857847325 M 121.93320114107237 261.65165857847325 L 130.76994667170064 256.1678707974845 L 132.22745178983664 263.1309839586438 L 121.93320114107237 261.65165857847325 L 129.73126462421203 258.5291266069918 L 130.32895268502384 261.3845331168701 L 121.93320114107237 261.65165857847325" stroke-linecap="round" stroke-linejoin="round" stroke-miterlimit="10" stroke-width="2" stroke-dasharray=""/></g><path fill="#c74440" stroke="none" paint-order="stroke fill markers" d="" fill-opacity="0.4"/><g><path fill="none" stroke="#c74440" class="dcg-svg-curve" paint-order="fill stroke markers" d=" M 402 205.12587671324474 L 119.54238092193555 261.65165857847325 M 119.5423809219355 261.65165857847325 L 128.42718566095002 256.2460832391051 L 129.8231730718277 263.221790028612 L 119.5423809219355 261.65165857847325 L 127.36770210870385 258.59807898659847 L 127.94016322609072 261.45864984287397 L 119.5423809219355 261.65165857847325" stroke-linecap="round" stroke-linejoin="round" stroke-miterlimit="10" stroke-width="2" stroke-dasharray=""/></g><path fill="#c74440" stroke="none" paint-order="stroke fill markers" d="" fill-opacity="0.4"/><g><path fill="none" stroke="#c74440" class="dcg-svg-curve" paint-order="fill stroke markers" d=" M 402 207.07559230710035 L 117.4247972992714 261.65165857847325 M 117.42479729927145 261.65165857847325 L 126.3527326682256 256.3176197664868 L 127.69264663511613 263.30431402241607 L 117.42479729927145 261.65165857847325 L 125.27439221734551 258.66102994520134 L 125.82385895372973 261.52610649920473 L 117.42479729927145 261.65165857847325" stroke-linecap="round" stroke-linejoin="round" stroke-miterlimit="10" stroke-width="2" stroke-dasharray=""/></g><path fill="#c74440" stroke="none" paint-order="stroke fill markers" d="" fill-opacity="0.4"/><g><path fill="none" stroke="#c74440" class="dcg-svg-curve" paint-order="fill stroke markers" d=" M 402 208.8932575855667 L 115.53614163581426 261.65165857847325 M 115.53614163581429 261.65165857847325 L 124.5030399185192 256.3833822770988 L 125.79156696822223 263.3797359064322 L 115.53614163581429 261.65165857847325 L 123.40750502418518 258.7188035857717 L 123.93589921234796 261.58784121825556 L 115.53614163581429 261.65165857847325" stroke-linecap="round" stroke-linejoin="round" stroke-miterlimit="10" stroke-width="2" stroke-dasharray=""/></g><path fill="#c74440" stroke="none" paint-order="stroke fill markers" d="" fill-opacity="0.4"/><g><path fill="none" stroke="#c74440" class="dcg-svg-curve" paint-order="fill stroke markers" d=" M 402 210.59217005314702 L 113.84119424553228 261.65165857847325 M 113.84119424553225 261.65165857847325 L 122.84349252115527 256.4441038973667 L 124.08470644065325 263.4490060430463 L 113.84119424553225 261.65165857847325 L 121.73219908637753 258.7720678780861 L 122.24119128912614 261.64461105308516 L 113.84119424553225 261.65165857847325" stroke-linecap="round" stroke-linejoin="round" stroke-miterlimit="10" stroke-width="2" stroke-dasharray=""/></g><path fill="#c74440" stroke="none" paint-order="stroke fill markers" d="" fill-opacity="0.4"/><g><path fill="none" stroke="#c74440" class="dcg-svg-curve" paint-order="fill stroke markers" d=" M 402 212.18383646529674 L 112.31160757625332 261.65165857847325 M 112.31160757625335 261.65165857847325 L 121.3462310751222 256.5003890035348 L 122.54370296015966 263.5129011888395 L 112.31160757625335 261.65165857847325 L 120.22043037138494 258.82137202138983 L 120.71148500984826 261.69703589200066 L 112.31160757625335 261.65165857847325" stroke-linecap="round" stroke-linejoin="round" stroke-miterlimit="10" stroke-width="2" stroke-dasharray=""/></g><path fill="#c74440" stroke="none" paint-order="stroke fill markers" d="" fill-opacity="0.4"/><g><path fill="none" stroke="#c74440" class="dcg-svg-curve" paint-order="fill stroke markers" d=" M 401.99999999999994 213.67827891452902 L 110.92430803900038 261.65165857847325 M 110.92430803900038 261.65165857847325 L 119.98858127070292 256.55274195030205 L 121.14546461047132 263.5720643536875 L 110.92430803900038 261.65165857847325 L 118.84937214768283 258.8671731909603 L 119.32378239250994 261.7456297694578 L 110.92430803900038 261.65165857847325" stroke-linecap="round" stroke-linejoin="round" stroke-miterlimit="10" stroke-width="2" stroke-dasharray=""/></g><path fill="#c74440" stroke="none" paint-order="stroke fill markers" d="" fill-opacity="0.4"/><g><path fill="none" stroke="#c74440" class="dcg-svg-curve" paint-order="fill stroke markers" d=" M 402 215.0842765633496 L 109.66032401616985 261.65165857847325 M 109.66032401616985 261.65165857847325 L 118.7519019067562 256.60158813743965 L 119.87099944597753 263.627033800329 L 109.66032401616985 261.65165857847325 L 117.60025595392823 258.9098561013125 L 118.05917114383293 261.79082368238096 L 109.66032401616985 261.65165857847325" stroke-linecap="round" stroke-linejoin="round" stroke-miterlimit="10" stroke-width="2" stroke-dasharray=""/></g><path fill="#c74440" stroke="none" paint-order="stroke fill markers" d="" fill-opacity="0.4"/><g><path fill="none" stroke="#c74440" class="dcg-svg-curve" paint-order="fill stroke markers" d=" M 402 216.40955925337713 L 108.50391310166526 261.65165857847325 M 108.50391310166529 261.65165857847325 L 117.62072683581552 256.6472897534555 L 118.70454387668487 263.67826455688237 L 108.50391310166529 261.65165857847325 L 116.45750832762428 258.949747591486 L 116.90195582723956 261.8329825411178 L 108.50391310166529 261.65165857847325" stroke-linecap="round" stroke-linejoin="round" stroke-miterlimit="10" stroke-width="2" stroke-dasharray=""/></g><path fill="#c74440" stroke="none" paint-order="stroke fill markers" d="" fill-opacity="0.4"/><g><path fill="none" stroke="#c74440" class="dcg-svg-curve" paint-order="fill stroke markers" d=" M 402 217.6609644328738 L 107.44190307814074 261.65165857847325 M 107.44190307814078 261.65165857847325 L 116.58211694059327 256.69015774217064 L 117.63290437941627 263.72614465396305 L 107.44190307814078 261.65165857847325 L 115.4080988530502 258.98712768621186 L 115.83900170122595 261.87241798185397 L 107.44190307814078 261.65165857847325" stroke-linecap="round" stroke-linejoin="round" stroke-miterlimit="10" stroke-width="2" stroke-dasharray=""/></g><path fill="#c74440" stroke="none" paint-order="stroke fill markers" d="" fill-opacity="0.4"/><g><path fill="none" stroke="#c74440" class="dcg-svg-curve" paint-order="fill stroke markers" d=" M 402 218.84456566702605 L 106.46318795842217 261.65165857847325 M 106.46318795842214 261.65165857847325 L 115.62516453352598 256.7304610375033 L 116.64495400592202 263.7710075714375 L 106.46318795842214 261.65165857847325 L 114.44104155569696 259.0222381137226 L 114.85923287770905 261.90939820157473 L 106.46318795842214 261.65165857847325" stroke-linecap="round" stroke-linejoin="round" stroke-miterlimit="10" stroke-width="2" stroke-dasharray=""/></g><path fill="#c74440" stroke="none" paint-order="stroke fill markers" d="" fill-opacity="0.4"/><g><path fill="none" stroke="#c74440" class="dcg-svg-curve" paint-order="fill stroke markers" d=" M 402 219.9657788250375 L 105.55833813075765 261.65165857847325 M 105.5583381307577 261.65165857847325 L 114.74060994368946 256.7684337880874 L 115.73124281883628 263.8131419134238 L 105.5583381307577 261.65165857847325 L 113.54700915807355 259.0552889558416 L 113.95324405547147 261.94415561299775 L 105.5583381307577 261.65165857847325" stroke-linecap="round" stroke-linejoin="round" stroke-miterlimit="10" stroke-width="2" stroke-dasharray=""/></g><path fill="#c74440" stroke="none" paint-order="stroke fill markers" d="" fill-opacity="0.4"/><g><path fill="none" stroke="#c74440" class="dcg-svg-curve" paint-order="fill stroke markers" d=" M 402 221.02945051879794 L 104.719295563287 261.65165857847325 M 104.71929556328698 261.65165857847325 L 113.92054174961461 256.8042810793928 L 114.88369326997517 263.8527990238496 L 104.71929556328698 261.65165857847325 L 112.71803148127997 259.0864639047284 L 113.11299693101265 261.97689287777206 L 104.71929556328698 261.65165857847325" stroke-linecap="round" stroke-linejoin="round" stroke-miterlimit="10" stroke-width="2" stroke-dasharray=""/></g><path fill="#c74440" stroke="none" paint-order="stroke fill markers" d="" fill-opacity="0.4"/><g><path fill="none" stroke="#c74440" class="dcg-svg-curve" paint-order="fill stroke markers" d=" M 402 222.039932281041 L 103.9391331759897 261.65165857847325 M 103.93913317598965 261.65165857847325 L 113.15816012191138 256.8381835166942 L 114.09535966812385 263.89019904951044 L 103.93913317598965 261.65165857847325 L 111.94725733253588 259.11592446517574 L 112.33158049709932 262.00778771572413 L 103.93913317598965 261.65165857847325" stroke-linecap="round" stroke-linejoin="round" stroke-miterlimit="10" stroke-width="2" stroke-dasharray=""/></g><path fill="#c74440" stroke="none" paint-order="stroke fill markers" d="" fill-opacity="0.4"/><g><path fill="none" stroke="#c74440" class="dcg-svg-curve" paint-order="fill stroke markers" d=" M 402 223.00114317852135 L 103.21186315393288 261.65165857847325 M 103.21186315393285 261.65165857847325 L 112.44758830503885 256.87030093307294 L 113.36023653605511 263.92553581725116 L 103.21186315393285 261.65165857847325 L 111.2287648186763 259.14381334843335 L 111.60302007487537 262.03699677813495 L 103.21186315393285 261.65165857847325" stroke-linecap="round" stroke-linejoin="round" stroke-miterlimit="10" stroke-width="2" stroke-dasharray=""/></g><path fill="#c74440" stroke="none" paint-order="stroke fill markers" d="" fill-opacity="0.4"/><g><path fill="none" stroke="#c74440" class="dcg-svg-curve" paint-order="fill stroke markers" d=" M 402 223.91662296833601 L 102.532282969388 261.65165857847325 M 102.53228296938799 261.65165857847325 L 111.78372119213128 256.90077541733734 L 112.67310464182557 263.95898079433744 L 102.53228296938799 261.65165857847325 L 110.55740897406982 259.17025723870984 L 110.92212389873899 262.06465879661715 L 102.53228296938799 261.65165857847325" stroke-linecap="round" stroke-linejoin="round" stroke-miterlimit="10" stroke-width="2" stroke-dasharray=""/></g></g><g id="sketch-a791fd62"><title>A</title><path fill="#c74440" stroke="none" class="dcg-svg-point" paint-order="stroke fill markers" d=" M 0.8813495791187904 139.36120436962202 A 4 4 0 1 1 0.8813475791189571 139.35720437028868 Z"/><path fill="#c74440" stroke="none" class="dcg-svg-point" paint-order="stroke fill markers" d=" M 25.3394404208889 139.36120436962202 A 4 4 0 1 1 25.339438420889067 139.35720437028868 Z"/><path fill="#c74440" stroke="none" class="dcg-svg-point" paint-order="stroke fill markers" d=" M 49.79753126265901 139.36120436962202 A 4 4 0 1 1 49.797529262659175 139.35720437028868 Z"/><path fill="#c74440" stroke="none" class="dcg-svg-point" paint-order="stroke fill markers" d=" M 74.25562210442911 139.36120436962202 A 4 4 0 1 1 74.25562010442927 139.35720437028868 Z"/><path fill="#c74440" stroke="none" class="dcg-svg-point" paint-order="stroke fill markers" d=" M 98.71371294619922 139.36120436962202 A 4 4 0 1 1 98.71371094619938 139.35720437028868 Z"/><path fill="#c74440" stroke="none" class="dcg-svg-point" paint-order="stroke fill markers" d=" M 123.17180378796932 139.36120436962202 A 4 4 0 1 1 123.17180178796949 139.35720437028868 Z"/><path fill="#c74440" stroke="none" class="dcg-svg-point" paint-order="stroke fill markers" d=" M 147.62989462973943 139.36120436962202 A 4 4 0 1 1 147.6298926297396 139.35720437028868 Z"/><path fill="#c74440" stroke="none" class="dcg-svg-point" paint-order="stroke fill markers" d=" M 172.08798547150954 139.36120436962202 A 4 4 0 1 1 172.08798347150972 139.35720437028868 Z"/><path fill="#c74440" stroke="none" class="dcg-svg-point" paint-order="stroke fill markers" d=" M 196.54607631327963 139.36120436962202 A 4 4 0 1 1 196.5460743132798 139.35720437028868 Z"/><path fill="#c74440" stroke="none" class="dcg-svg-point" paint-order="stroke fill markers" d=" M 221.00416715504977 139.36120436962202 A 4 4 0 1 1 221.00416515504995 139.35720437028868 Z"/><path fill="#c74440" stroke="none" class="dcg-svg-point" paint-order="stroke fill markers" d=" M 245.46225799681986 139.36120436962202 A 4 4 0 1 1 245.46225599682003 139.35720437028868 Z"/><path fill="#c74440" stroke="none" class="dcg-svg-point" paint-order="stroke fill markers" d=" M 269.92034883859 139.36120436962202 A 4 4 0 1 1 269.92034683859015 139.35720437028868 Z"/><path fill="#c74440" stroke="none" class="dcg-svg-point" paint-order="stroke fill markers" d=" M 294.3784396803601 139.36120436962202 A 4 4 0 1 1 294.37843768036026 139.35720437028868 Z"/><path fill="#c74440" stroke="none" class="dcg-svg-point" paint-order="stroke fill markers" d=" M 318.83653052213015 139.36120436962202 A 4 4 0 1 1 318.8365285221303 139.35720437028868 Z"/></g><g id="sketch-a791fd62"><title>Expression 16</title><path fill="#c74440" stroke="none" class="dcg-svg-point" paint-order="stroke fill markers" d=" M 343.2946213639003 139.36120436962202 A 4 4 0 1 1 343.2946193639005 139.35720437028868 Z"/><path fill="#c74440" stroke="none" class="dcg-svg-point" paint-order="stroke fill markers" d=" M 367.7527122056704 139.36120436962202 A 4 4 0 1 1 367.75271020567055 139.35720437028868 Z"/><path fill="#c74440" stroke="none" class="dcg-svg-point" paint-order="stroke fill markers" d=" M 392.21080304744055 139.36120436962202 A 4 4 0 1 1 392.2108010474407 139.35720437028868 Z"/><path fill="#c74440" stroke="none" class="dcg-svg-point" paint-order="stroke fill markers" d=" M 416.6688938892106 139.36120436962202 A 4 4 0 1 1 416.6688918892108 139.35720437028868 Z"/></g></g><g id="labels-a791fd62"><g transform="rotate(0,0,0) translate(313,116)"><g class="dcg-svg-label"><text fill="none" stroke="#FFF" font-family="arial, sans-serif" font-size="15.4px" font-style="normal" font-weight="400" text-decoration="normal" x="0" y="13.631658505249023" text-anchor="start" stroke-linecap="round" stroke-linejoin="round" stroke-miterlimit="2" stroke-width="3" stroke-dasharray="">2</text><text fill="rgb(0, 0, 0)" stroke="none" font-family="arial, sans-serif" font-size="15.4px" font-style="normal" font-weight="400" text-decoration="normal" x="0" y="13.631658505249023" text-anchor="start">2</text></g></g><g transform="rotate(0,0,0) translate(191,116)"><g class="dcg-svg-label"><text fill="none" stroke="#FFF" font-family="arial, sans-serif" font-size="15.4px" font-style="normal" font-weight="400" text-decoration="normal" x="0" y="13.631658505249023" text-anchor="start" stroke-linecap="round" stroke-linejoin="round" stroke-miterlimit="2" stroke-width="3" stroke-dasharray="">1</text><text fill="rgb(0, 0, 0)" stroke="none" font-family="arial, sans-serif" font-size="15.4px" font-style="normal" font-weight="400" text-decoration="normal" x="0" y="13.631658505249023" text-anchor="start">1</text></g></g><g transform="rotate(0,0,0) translate(68,116)"><g class="dcg-svg-label"><text fill="none" stroke="#FFF" font-family="arial, sans-serif" font-size="15.4px" font-style="normal" font-weight="400" text-decoration="normal" x="0" y="13.631658505249023" text-anchor="start" stroke-linecap="round" stroke-linejoin="round" stroke-miterlimit="2" stroke-width="3" stroke-dasharray="">0</text><text fill="rgb(0, 0, 0)" stroke="none" font-family="arial, sans-serif" font-size="15.4px" font-style="normal" font-weight="400" text-decoration="normal" x="0" y="13.631658505249023" text-anchor="start">0</text></g></g><g transform="rotate(0,0,0) translate(87,267)"><g class="dcg-svg-label"><text fill="none" stroke="#FFF" font-family="arial, sans-serif" font-size="15.4px" font-style="normal" font-weight="400" text-decoration="normal" x="0" y="13.631658505249023" text-anchor="start" stroke-linecap="round" stroke-linejoin="round" stroke-miterlimit="2" stroke-width="3" stroke-dasharray="">0</text><text fill="rgb(0, 0, 0)" stroke="none" font-family="arial, sans-serif" font-size="15.4px" font-style="normal" font-weight="400" text-decoration="normal" x="0" y="13.631658505249023" text-anchor="start">0</text></g></g><g transform="rotate(0,0,0) translate(210,267)"><g class="dcg-svg-label"><text fill="none" stroke="#FFF" font-family="arial, sans-serif" font-size="15.4px" font-style="normal" font-weight="400" text-decoration="normal" x="0" y="13.631658505249023" text-anchor="start" stroke-linecap="round" stroke-linejoin="round" stroke-miterlimit="2" stroke-width="3" stroke-dasharray="">1</text><text fill="rgb(0, 0, 0)" stroke="none" font-family="arial, sans-serif" font-size="15.4px" font-style="normal" font-weight="400" text-decoration="normal" x="0" y="13.631658505249023" text-anchor="start">1</text></g></g><g transform="rotate(0,0,0) translate(313,239)"><g class="dcg-svg-label"><text fill="none" stroke="#FFF" font-family="arial, sans-serif" font-size="15.4px" font-style="normal" font-weight="400" text-decoration="normal" x="0" y="13.631658505249023" text-anchor="start" stroke-linecap="round" stroke-linejoin="round" stroke-miterlimit="2" stroke-width="3" stroke-dasharray="">2</text><text fill="rgb(0, 0, 0)" stroke="none" font-family="arial, sans-serif" font-size="15.4px" font-style="normal" font-weight="400" text-decoration="normal" x="0" y="13.631658505249023" text-anchor="start">2</text></g></g></g><g id="labels-a791fd62"/></g></svg>