<svg version="1.1" xmlns="http://www.w3.org/2000/svg" xmlns:xlink="http://www.w3.org/1999/xlink" width="800" height="800"><defs/><g transform="scale(2,2)"><g id="background-3e77dcf3"><rect fill="white" stroke="none" x="0" y="0" width="400" height="400" class="dcg-svg-background"/></g><g id="graphpaper-3e77dcf3"><g id="grid-3e77dcf3"><g><path fill="none" stroke="rgb(0,0,0)" class="dcg-svg-minor-gridline" paint-order="fill stroke markers" d=" M 11.5 0 L 11.5 400" stroke-opacity="0.2" stroke-miterlimit="10" stroke-dasharray=""/><path fill="none" stroke="rgb(0,0,0)" class="dcg-svg-minor-gridline" paint-order="fill stroke markers" d=" M 42.5 0 L 42.5 400" stroke-opacity="0.2" stroke-miterlimit="10" stroke-dasharray=""/><path fill="none" stroke="rgb(0,0,0)" class="dcg-svg-minor-gridline" paint-order="fill stroke markers" d=" M 74.5 0 L 74.5 400" stroke-opacity="0.2" stroke-miterlimit="10" stroke-dasharray=""/><path fill="none" stroke="rgb(0,0,0)" class="dcg-svg-minor-gridline" paint-order="fill stroke markers" d=" M 105.5 0 L 105.5 400" stroke-opacity="0.2" stroke-miterlimit="10" stroke-dasharray=""/><path fill="none" stroke="rgb(0,0,0)" class="dcg-svg-minor-gridline" paint-order="fill stroke markers" d=" M 137.5 0 L 137.5 400" stroke-opacity="0.2" stroke-miterlimit="10" stroke-dasharray=""/><path fill="none" stroke="rgb(0,0,0)" class="dcg-svg-minor-gridline" paint-order="fill stroke markers" d=" M 168.5 0 L 168.5 400" stroke-opacity="0.2" stroke-miterlimit="10" stroke-dasharray=""/><path fill="none" stroke="rgb(0,0,0)" class="dcg-svg-minor-gridline" paint-order="fill stroke markers" d=" M 231.5 0 L 231.5 400" stroke-opacity="0.2" stroke-miterlimit="10" stroke-dasharray=""/><path fill="none" stroke="rgb(0,0,0)" class="dcg-svg-minor-gridline" paint-order="fill stroke markers" d=" M 262.5 0 L 262.5 400" stroke-opacity="0.2" stroke-miterlimit="10" stroke-dasharray=""/><path fill="none" stroke="rgb(0,0,0)" class="dcg-svg-minor-gridline" paint-order="fill stroke markers" d=" M 294.5 0 L 294.5 400" stroke-opacity="0.2" stroke-miterlimit="10" stroke-dasharray=""/><path fill="none" stroke="rgb(0,0,0)" class="dcg-svg-minor-gridline" paint-order="fill stroke markers" d=" M 325.5 0 L 325.5 400" stroke-opacity="0.2" stroke-miterlimit="10" stroke-dasharray=""/><path fill="none" stroke="rgb(0,0,0)" class="dcg-svg-minor-gridline" paint-order="fill stroke markers" d=" M 357.5 0 L 357.5 400" stroke-opacity="0.2" stroke-miterlimit="10" stroke-dasharray=""/><path fill="none" stroke="rgb(0,0,0)" class="dcg-svg-minor-gridline" paint-order="fill stroke markers" d=" M 388.5 0 L 388.5 400" stroke-opacity="0.2" stroke-miterlimit="10" stroke-dasharray=""/><path fill="none" stroke="rgb(0,0,0)" class="dcg-svg-minor-gridline" paint-order="fill stroke markers" d=" M 0 388.5 L 400 388.5" stroke-opacity="0.2" stroke-miterlimit="10" stroke-dasharray=""/><path fill="none" stroke="rgb(0,0,0)" class="dcg-svg-minor-gridline" paint-order="fill stroke markers" d=" M 0 357.5 L 400 357.5" stroke-opacity="0.2" stroke-miterlimit="10" stroke-dasharray=""/><path fill="none" stroke="rgb(0,0,0)" class="dcg-svg-minor-gridline" paint-order="fill stroke markers" d=" M 0 325.5 L 400 325.5" stroke-opacity="0.2" stroke-miterlimit="10" stroke-dasharray=""/><path fill="none" stroke="rgb(0,0,0)" class="dcg-svg-minor-gridline" paint-order="fill stroke markers" d=" M 0 294.5 L 400 294.5" stroke-opacity="0.2" stroke-miterlimit="10" stroke-dasharray=""/><path fill="none" stroke="rgb(0,0,0)" class="dcg-svg-minor-gridline" paint-order="fill stroke markers" d=" M 0 262.5 L 400 262.5" stroke-opacity="0.2" stroke-miterlimit="10" stroke-dasharray=""/><path fill="none" stroke="rgb(0,0,0)" class="dcg-svg-minor-gridline" paint-order="fill stroke markers" d=" M 0 231.5 L 400 231.5" stroke-opacity="0.2" stroke-miterlimit="10" stroke-dasharray=""/><path fill="none" stroke="rgb(0,0,0)" class="dcg-svg-minor-gridline" paint-order="fill stroke markers" d=" M 0 168.5 L 400 168.5" stroke-opacity="0.2" stroke-miterlimit="10" stroke-dasharray=""/><path fill="none" stroke="rgb(0,0,0)" class="dcg-svg-minor-gridline" paint-order="fill stroke markers" d=" M 0 137.5 L 400 137.5" stroke-opacity="0.2" stroke-miterlimit="10" stroke-dasharray=""/><path fill="none" stroke="rgb(0,0,0)" class="dcg-svg-minor-gridline" paint-order="fill stroke markers" d=" M 0 105.5 L 400 105.5" stroke-opacity="0.2" stroke-miterlimit="10" stroke-dasharray=""/><path fill="none" stroke="rgb(0,0,0)" class="dcg-svg-minor-gridline" paint-order="fill stroke markers" d=" M 0 74.5 L 400 74.5" stroke-opacity="0.2" stroke-miterlimit="10" stroke-dasharray=""/><path fill="none" stroke="rgb(0,0,0)" class="dcg-svg-minor-gridline" paint-order="fill stroke markers" d=" M 0 42.5 L 400 42.5" stroke-opacity="0.2" stroke-miterlimit="10" stroke-dasharray=""/><path fill="none" stroke="rgb(0,0,0)" class="dcg-svg-minor-gridline" paint-order="fill stroke markers" d=" M 0 11.5 L 400 11.5" stroke-opacity="0.2" stroke-miterlimit="10" stroke-dasharray=""/><path fill="none" stroke="rgb(0,0,0)" class="dcg-svg-major-gridline" paint-order="fill stroke markers" d=" M 42.5 0 L 42.5 400" stroke-opacity="0.2500000000000001" stroke-miterlimit="10" stroke-dasharray=""/><path fill="none" stroke="rgb(0,0,0)" class="dcg-svg-major-gridline" paint-order="fill stroke markers" d=" M 357.5 0 L 357.5 400" stroke-opacity="0.2500000000000001" stroke-miterlimit="10" stroke-dasharray=""/><path fill="none" stroke="rgb(0,0,0)" class="dcg-svg-major-gridline" paint-order="fill stroke markers" d=" M 0 357.5 L 400 357.5" stroke-opacity="0.2500000000000001" stroke-miterlimit="10" stroke-dasharray=""/><path fill="none" stroke="rgb(0,0,0)" class="dcg-svg-major-gridline" paint-order="fill stroke markers" d=" M 0 42.5 L 400 42.5" stroke-opacity="0.2500000000000001" stroke-miterlimit="10" stroke-dasharray=""/></g></g><g id="axis-3e77dcf3"><g id="yaxis-3e77dcf3"><title>Y axis</title><g><path fill="none" stroke="rgb(0,0,0)" class="dcg-svg-axis-line" paint-order="fill stroke markers" d=" M 200 0 L 200 400" stroke-opacity="0.9" stroke-miterlimit="10" stroke-width="1.5" stroke-dasharray=""/></g></g><g id="xaxis-3e77dcf3"><title>X axis</title><g><path fill="none" stroke="rgb(0,0,0)" class="dcg-svg-axis-line" paint-order="fill stroke markers" d=" M 0 200 L 400 200" stroke-opacity="0.9" stroke-miterlimit="10" stroke-width="1.5" stroke-dasharray=""/></g></g><g><g class="dcg-svg-axis-value"><text fill="none" stroke="#ffffff" font-family="Arial" font-size="14px" font-style="normal" font-weight="normal" text-decoration="normal" x="191.10693359375" y="215.808" text-anchor="middle" stroke-miterlimit="2" stroke-width="3" stroke-dasharray="">0</text><text fill="#000000" stroke="none" font-family="Arial" font-size="14px" font-style="normal" font-weight="normal" text-decoration="normal" x="191.10693359375" y="215.808" text-anchor="middle">0</text></g><g class="dcg-svg-axis-value"><text fill="none" stroke="#ffffff" font-family="Arial" font-size="14px" font-style="normal" font-weight="normal" text-decoration="normal" x="40.58931263301031" y="215.808" text-anchor="middle" stroke-miterlimit="2" stroke-width="3" stroke-dasharray="">-5π</text><text fill="#000000" stroke="none" font-family="Arial" font-size="14px" font-style="normal" font-weight="normal" text-decoration="normal" x="40.58931263301031" y="215.808" text-anchor="middle">-5π</text></g><g class="dcg-svg-axis-value"><text fill="none" stroke="#ffffff" font-family="Arial" font-size="14px" font-style="normal" font-weight="normal" text-decoration="normal" x="357.0796326794897" y="215.808" text-anchor="middle" stroke-miterlimit="2" stroke-width="3" stroke-dasharray="">5π</text><text fill="#000000" stroke="none" font-family="Arial" font-size="14px" font-style="normal" font-weight="normal" text-decoration="normal" x="357.0796326794897" y="215.808" text-anchor="middle">5π</text></g><g class="dcg-svg-axis-value"><text fill="none" stroke="#ffffff" font-family="Arial" font-size="14px" font-style="normal" font-weight="normal" text-decoration="normal" x="183.9462890625" y="360.8876326794897" text-anchor="middle" stroke-miterlimit="2" stroke-width="3" stroke-dasharray="">-5π</text><text fill="#000000" stroke="none" font-family="Arial" font-size="14px" font-style="normal" font-weight="normal" text-decoration="normal" x="183.9462890625" y="360.8876326794897" text-anchor="middle">-5π</text></g><g class="dcg-svg-axis-value"><text fill="none" stroke="#ffffff" font-family="Arial" font-size="14px" font-style="normal" font-weight="normal" text-decoration="normal" x="186.27734375" y="46.72836732051034" text-anchor="middle" stroke-miterlimit="2" stroke-width="3" stroke-dasharray="">5π</text><text fill="#000000" stroke="none" font-family="Arial" font-size="14px" font-style="normal" font-weight="normal" text-decoration="normal" x="186.27734375" y="46.72836732051034" text-anchor="middle">5π</text></g></g></g></g><g id="expressions-3e77dcf3"><g id="sketch-3e77dcf3"><title>Expression 1</title><path fill="#c74440" stroke="none" paint-order="stroke fill markers" d="" fill-opacity="0.4"/><g><path fill="none" stroke="#c74440" class="dcg-svg-curve" paint-order="fill stroke markers" d=" M 0 198.5659489535922 L 0 198.5659489535922 L 4.296875 198.9405869802669 L 9.47265625 199.66728066890647 L 21.77734375 201.5087261287224 L 25.87890625 201.78823931980935 L 29.6875 201.7883915469097 L 33.49609375 201.52639584282176 L 37.6953125 200.96597386683422 L 43.26171875 199.93159431839183 L 51.66015625 198.37585677931568 L 55.6640625 197.91834497589565 L 59.1796875 197.77246714348323 L 62.59765625 197.89134782295068 L 66.11328125 198.28071932386263 L 70.01953125 198.98875334813502 L 75.29296875000001 200.2406360240752 L 82.81250000000001 202.00983629752827 L 86.52343750000001 202.59866634156225 L 89.74609375000001 202.84814969732787 L 92.77343750000001 202.82142540695446 L 95.80078125000001 202.5290834145994 L 98.92578125000001 201.96079995025042 L 102.44140624999999 201.0467808232655 L 107.22656249999999 199.50254936869104 L 114.25781249999999 197.2459577158808 L 117.57812499999999 196.4720218529021 L 120.41015625 196.07451217460815 L 123.046875 195.9688065304185 L 125.5859375 196.1324710410736 L 128.125 196.5644562650913 L 130.76171875 197.28796815948965 L 133.59375 198.34477825176188 L 137.01171875 199.9219833334333 L 148.6328125 205.57355826916273 L 151.07421875 206.3171800248735 L 153.22265625 206.7120237189675 L 155.2734375 206.82312154997902 L 157.2265625 206.66057381812215 L 159.08203125 206.24613927686227 L 160.9375 205.56772471572265 L 162.890625 204.56372788279478 L 164.94140625 203.19247566494423 L 167.08984375 201.42108479953376 L 169.53125 199.0248383852156 L 172.265625 195.92331569554568 L 175.78125 191.44938903112367 L 187.3046875 176.36843368677188 L 189.94140625 173.61997657093355 L 192.1875 171.68374424470824 L 194.140625 170.3510998202389 L 195.8984375 169.45753449347467 L 197.55859375 168.89523387494407 L 199.21875 168.616021645813 L 200.78125 168.616021645813 L 202.34375 168.87090591848624 L 204.00390625 169.4167658920809 L 205.6640625 170.23712206677357 L 207.51953125 171.46209319560438 L 209.5703125 173.16486910580957 L 211.81640625 175.4011935796728 L 214.55078125 178.55385222709307 L 218.1640625 183.22340634576477 L 228.22265625 196.50552772894997 L 231.15234375 199.7342177946649 L 233.69140625 202.10353329357378 L 235.9375 203.81936452284222 L 237.98828125 205.0523342531065 L 239.94140625 205.92240613399423 L 241.89453125 206.49664688893733 L 243.75 206.77594639336456 L 245.703125 206.80465130092534 L 247.75390625 206.56566162995713 L 250 206.02509891326127 L 252.5390625 205.1240303133932 L 255.56640625 203.75574268460286 L 260.9375 200.9707905851326 L 265.52734375 198.72328700124092 L 268.65234375 197.4843554453923 L 271.38671875 196.67787327692733 L 273.92578125 196.194735254441 L 276.46484375 195.97958486977993 L 279.00390625 196.02777857789772 L 281.640625 196.33544373580293 L 284.5703125 196.9404788314452 L 288.18359375 197.9695967658667 L 301.5625 202.06619231472362 L 304.78515625 202.6062030828118 L 307.8125 202.84727101104752 L 310.83984375 202.82328327001025 L 313.96484375 202.53804924711028 L 317.48046875 201.9521257466181 L 322.16796875 200.88074410746003 L 331.54296875 198.67538150055066 L 335.3515625 198.08698451667757 L 338.8671875 197.8082803130803 L 342.28515625 197.80125052429625 L 345.8984375 198.06360499682606 L 350 198.63804033242909 L 355.95703125 199.77433825983258 L 363.28125 201.11818674619178 L 367.48046875 201.61777415536406 L 371.2890625 201.81353364107073 L 375.09765625 201.74653457951516 L 379.19921875 201.40495915684997 L 384.1796875 200.71352544030157 L 397.0703125 198.79451642670395 L 400 198.5659489535922" stroke-linecap="round" stroke-linejoin="round" stroke-miterlimit="10" stroke-width="2.5" stroke-dasharray=""/></g></g></g><g id="labels-3e77dcf3"/><g id="labels-3e77dcf3"/></g></svg>