<svg version="1.1" xmlns="http://www.w3.org/2000/svg" xmlns:xlink="http://www.w3.org/1999/xlink" width="800" height="800"><defs/><g transform="scale(2,2)"><g id="background-b9a29733"><rect fill="white" stroke="none" x="0" y="0" width="400" height="400" class="dcg-svg-background"/></g><g id="graphpaper-b9a29733"><g id="grid-b9a29733"><g><path fill="none" stroke="rgb(0,0,0)" class="dcg-svg-minor-gridline" paint-order="fill stroke markers" d=" M 20.5 0 L 20.5 400" stroke-opacity="0.2" stroke-miterlimit="10" stroke-dasharray=""/><path fill="none" stroke="rgb(0,0,0)" class="dcg-svg-minor-gridline" paint-order="fill stroke markers" d=" M 40.5 0 L 40.5 400" stroke-opacity="0.2" stroke-miterlimit="10" stroke-dasharray=""/><path fill="none" stroke="rgb(0,0,0)" class="dcg-svg-minor-gridline" paint-order="fill stroke markers" d=" M 60.5 0 L 60.5 400" stroke-opacity="0.2" stroke-miterlimit="10" stroke-dasharray=""/><path fill="none" stroke="rgb(0,0,0)" class="dcg-svg-minor-gridline" paint-order="fill stroke markers" d=" M 80.5 0 L 80.5 400" stroke-opacity="0.2" stroke-miterlimit="10" stroke-dasharray=""/><path fill="none" stroke="rgb(0,0,0)" class="dcg-svg-minor-gridline" paint-order="fill stroke markers" d=" M 100.5 0 L 100.5 400" stroke-opacity="0.2" stroke-miterlimit="10" stroke-dasharray=""/><path fill="none" stroke="rgb(0,0,0)" class="dcg-svg-minor-gridline" paint-order="fill stroke markers" d=" M 120.5 0 L 120.5 400" stroke-opacity="0.2" stroke-miterlimit="10" stroke-dasharray=""/><path fill="none" stroke="rgb(0,0,0)" class="dcg-svg-minor-gridline" paint-order="fill stroke markers" d=" M 140.5 0 L 140.5 400" stroke-opacity="0.2" stroke-miterlimit="10" stroke-dasharray=""/><path fill="none" stroke="rgb(0,0,0)" class="dcg-svg-minor-gridline" paint-order="fill stroke markers" d=" M 160.5 0 L 160.5 400" stroke-opacity="0.2" stroke-miterlimit="10" stroke-dasharray=""/><path fill="none" stroke="rgb(0,0,0)" class="dcg-svg-minor-gridline" paint-order="fill stroke markers" d=" M 180.5 0 L 180.5 400" stroke-opacity="0.2" stroke-miterlimit="10" stroke-dasharray=""/><path fill="none" stroke="rgb(0,0,0)" class="dcg-svg-minor-gridline" paint-order="fill stroke markers" d=" M 200.5 0 L 200.5 400" stroke-opacity="0.2" stroke-miterlimit="10" stroke-dasharray=""/><path fill="none" stroke="rgb(0,0,0)" class="dcg-svg-minor-gridline" paint-order="fill stroke markers" d=" M 220.5 0 L 220.5 400" stroke-opacity="0.2" stroke-miterlimit="10" stroke-dasharray=""/><path fill="none" stroke="rgb(0,0,0)" class="dcg-svg-minor-gridline" paint-order="fill stroke markers" d=" M 240.5 0 L 240.5 400" stroke-opacity="0.2" stroke-miterlimit="10" stroke-dasharray=""/><path fill="none" stroke="rgb(0,0,0)" class="dcg-svg-minor-gridline" paint-order="fill stroke markers" d=" M 260.5 0 L 260.5 400" stroke-opacity="0.2" stroke-miterlimit="10" stroke-dasharray=""/><path fill="none" stroke="rgb(0,0,0)" class="dcg-svg-minor-gridline" paint-order="fill stroke markers" d=" M 280.5 0 L 280.5 400" stroke-opacity="0.2" stroke-miterlimit="10" stroke-dasharray=""/><path fill="none" stroke="rgb(0,0,0)" class="dcg-svg-minor-gridline" paint-order="fill stroke markers" d=" M 300.5 0 L 300.5 400" stroke-opacity="0.2" stroke-miterlimit="10" stroke-dasharray=""/><path fill="none" stroke="rgb(0,0,0)" class="dcg-svg-minor-gridline" paint-order="fill stroke markers" d=" M 320.5 0 L 320.5 400" stroke-opacity="0.2" stroke-miterlimit="10" stroke-dasharray=""/><path fill="none" stroke="rgb(0,0,0)" class="dcg-svg-minor-gridline" paint-order="fill stroke markers" d=" M 340.5 0 L 340.5 400" stroke-opacity="0.2" stroke-miterlimit="10" stroke-dasharray=""/><path fill="none" stroke="rgb(0,0,0)" class="dcg-svg-minor-gridline" paint-order="fill stroke markers" d=" M 360.5 0 L 360.5 400" stroke-opacity="0.2" stroke-miterlimit="10" stroke-dasharray=""/><path fill="none" stroke="rgb(0,0,0)" class="dcg-svg-minor-gridline" paint-order="fill stroke markers" d=" M 380.5 0 L 380.5 400" stroke-opacity="0.2" stroke-miterlimit="10" stroke-dasharray=""/><path fill="none" stroke="rgb(0,0,0)" class="dcg-svg-minor-gridline" paint-order="fill stroke markers" d=" M 0 380.5 L 400 380.5" stroke-opacity="0.2" stroke-miterlimit="10" stroke-dasharray=""/><path fill="none" stroke="rgb(0,0,0)" class="dcg-svg-minor-gridline" paint-order="fill stroke markers" d=" M 0 360.5 L 400 360.5" stroke-opacity="0.2" stroke-miterlimit="10" stroke-dasharray=""/><path fill="none" stroke="rgb(0,0,0)" class="dcg-svg-minor-gridline" paint-order="fill stroke markers" d=" M 0 340.5 L 400 340.5" stroke-opacity="0.2" stroke-miterlimit="10" stroke-dasharray=""/><path fill="none" stroke="rgb(0,0,0)" class="dcg-svg-minor-gridline" paint-order="fill stroke markers" d=" M 0 320.5 L 400 320.5" stroke-opacity="0.2" stroke-miterlimit="10" stroke-dasharray=""/><path fill="none" stroke="rgb(0,0,0)" class="dcg-svg-minor-gridline" paint-order="fill stroke markers" d=" M 0 300.5 L 400 300.5" stroke-opacity="0.2" stroke-miterlimit="10" stroke-dasharray=""/><path fill="none" stroke="rgb(0,0,0)" class="dcg-svg-minor-gridline" paint-order="fill stroke markers" d=" M 0 280.5 L 400 280.5" stroke-opacity="0.2" stroke-miterlimit="10" stroke-dasharray=""/><path fill="none" stroke="rgb(0,0,0)" class="dcg-svg-minor-gridline" paint-order="fill stroke markers" d=" M 0 260.5 L 400 260.5" stroke-opacity="0.2" stroke-miterlimit="10" stroke-dasharray=""/><path fill="none" stroke="rgb(0,0,0)" class="dcg-svg-minor-gridline" paint-order="fill stroke markers" d=" M 0 240.5 L 400 240.5" stroke-opacity="0.2" stroke-miterlimit="10" stroke-dasharray=""/><path fill="none" stroke="rgb(0,0,0)" class="dcg-svg-minor-gridline" paint-order="fill stroke markers" d=" M 0 220.5 L 400 220.5" stroke-opacity="0.2" stroke-miterlimit="10" stroke-dasharray=""/><path fill="none" stroke="rgb(0,0,0)" class="dcg-svg-minor-gridline" paint-order="fill stroke markers" d=" M 0 180.5 L 400 180.5" stroke-opacity="0.2" stroke-miterlimit="10" stroke-dasharray=""/><path fill="none" stroke="rgb(0,0,0)" class="dcg-svg-minor-gridline" paint-order="fill stroke markers" d=" M 0 160.5 L 400 160.5" stroke-opacity="0.2" stroke-miterlimit="10" stroke-dasharray=""/><path fill="none" stroke="rgb(0,0,0)" class="dcg-svg-minor-gridline" paint-order="fill stroke markers" d=" M 0 140.5 L 400 140.5" stroke-opacity="0.2" stroke-miterlimit="10" stroke-dasharray=""/><path fill="none" stroke="rgb(0,0,0)" class="dcg-svg-minor-gridline" paint-order="fill stroke markers" d=" M 0 120.5 L 400 120.5" stroke-opacity="0.2" stroke-miterlimit="10" stroke-dasharray=""/><path fill="none" stroke="rgb(0,0,0)" class="dcg-svg-minor-gridline" paint-order="fill stroke markers" d=" M 0 100.5 L 400 100.5" stroke-opacity="0.2" stroke-miterlimit="10" stroke-dasharray=""/><path fill="none" stroke="rgb(0,0,0)" class="dcg-svg-minor-gridline" paint-order="fill stroke markers" d=" M 0 80.5 L 400 80.5" stroke-opacity="0.2" stroke-miterlimit="10" stroke-dasharray=""/><path fill="none" stroke="rgb(0,0,0)" class="dcg-svg-minor-gridline" paint-order="fill stroke markers" d=" M 0 60.5 L 400 60.5" stroke-opacity="0.2" stroke-miterlimit="10" stroke-dasharray=""/><path fill="none" stroke="rgb(0,0,0)" class="dcg-svg-minor-gridline" paint-order="fill stroke markers" d=" M 0 40.5 L 400 40.5" stroke-opacity="0.2" stroke-miterlimit="10" stroke-dasharray=""/><path fill="none" stroke="rgb(0,0,0)" class="dcg-svg-minor-gridline" paint-order="fill stroke markers" d=" M 0 20.5 L 400 20.5" stroke-opacity="0.2" stroke-miterlimit="10" stroke-dasharray=""/><path fill="none" stroke="rgb(0,0,0)" class="dcg-svg-major-gridline" paint-order="fill stroke markers" d=" M 100.5 0 L 100.5 400" stroke-opacity="0.2500000000000001" stroke-miterlimit="10" stroke-dasharray=""/><path fill="none" stroke="rgb(0,0,0)" class="dcg-svg-major-gridline" paint-order="fill stroke markers" d=" M 200.5 0 L 200.5 400" stroke-opacity="0.2500000000000001" stroke-miterlimit="10" stroke-dasharray=""/><path fill="none" stroke="rgb(0,0,0)" class="dcg-svg-major-gridline" paint-order="fill stroke markers" d=" M 300.5 0 L 300.5 400" stroke-opacity="0.2500000000000001" stroke-miterlimit="10" stroke-dasharray=""/><path fill="none" stroke="rgb(0,0,0)" class="dcg-svg-major-gridline" paint-order="fill stroke markers" d=" M 0 300.5 L 400 300.5" stroke-opacity="0.2500000000000001" stroke-miterlimit="10" stroke-dasharray=""/><path fill="none" stroke="rgb(0,0,0)" class="dcg-svg-major-gridline" paint-order="fill stroke markers" d=" M 0 100.5 L 400 100.5" stroke-opacity="0.2500000000000001" stroke-miterlimit="10" stroke-dasharray=""/></g></g><g id="axis-b9a29733"><g id="xaxis-b9a29733"><title>X axis</title><g><path fill="none" stroke="rgb(0,0,0)" class="dcg-svg-axis-line" paint-order="fill stroke markers" d=" M 0 200 L 400 200" stroke-opacity="0.9" stroke-miterlimit="10" stroke-width="1.5" stroke-dasharray=""/></g></g><g><g class="dcg-svg-axis-value dcg-svg-offcenter-axis-value"><text fill="none" stroke="#ffffff" font-family="Arial" font-size="14px" font-style="normal" font-weight="normal" text-decoration="normal" x="13.1171875" y="215.808" text-anchor="middle" stroke-miterlimit="2" stroke-width="3" stroke-dasharray="">-10</text><text fill="#000000" stroke="none" font-family="Arial" font-size="14px" font-style="normal" font-weight="normal" text-decoration="normal" x="13.1171875" y="215.808" text-anchor="middle">-10</text></g><g class="dcg-svg-axis-value"><text fill="none" stroke="#ffffff" font-family="Arial" font-size="14px" font-style="normal" font-weight="normal" text-decoration="normal" x="97.6689453125" y="215.808" text-anchor="middle" stroke-miterlimit="2" stroke-width="3" stroke-dasharray="">-5</text><text fill="#000000" stroke="none" font-family="Arial" font-size="14px" font-style="normal" font-weight="normal" text-decoration="normal" x="97.6689453125" y="215.808" text-anchor="middle">-5</text></g><g class="dcg-svg-axis-value"><text fill="none" stroke="#ffffff" font-family="Arial" font-size="14px" font-style="normal" font-weight="normal" text-decoration="normal" x="200" y="215.808" text-anchor="middle" stroke-miterlimit="2" stroke-width="3" stroke-dasharray="">0</text><text fill="#000000" stroke="none" font-family="Arial" font-size="14px" font-style="normal" font-weight="normal" text-decoration="normal" x="200" y="215.808" text-anchor="middle">0</text></g><g class="dcg-svg-axis-value"><text fill="none" stroke="#ffffff" font-family="Arial" font-size="14px" font-style="normal" font-weight="normal" text-decoration="normal" x="300" y="215.808" text-anchor="middle" stroke-miterlimit="2" stroke-width="3" stroke-dasharray="">5</text><text fill="#000000" stroke="none" font-family="Arial" font-size="14px" font-style="normal" font-weight="normal" text-decoration="normal" x="300" y="215.808" text-anchor="middle">5</text></g><g class="dcg-svg-axis-value dcg-svg-offcenter-axis-value"><text fill="none" stroke="#ffffff" font-family="Arial" font-size="14px" font-style="normal" font-weight="normal" text-decoration="normal" x="389.2138671875" y="215.808" text-anchor="middle" stroke-miterlimit="2" stroke-width="3" stroke-dasharray="">10</text><text fill="#000000" stroke="none" font-family="Arial" font-size="14px" font-style="normal" font-weight="normal" text-decoration="normal" x="389.2138671875" y="215.808" text-anchor="middle">10</text></g></g></g></g><g id="expressions-b9a29733"><g id="sketch-b9a29733"><title>Expression 1</title><path fill="#c74440" stroke="none" paint-order="stroke fill markers" d="" fill-opacity="0.4"/><g><path fill="none" stroke="#c74440" class="dcg-svg-curve" paint-order="fill stroke markers" d=" M 0 200.0045977929081 L 0 200.0045977929081 L 15.8203125 199.9996473718011 L 21.58203125 200.02307320540822 L 33.88671875 200.0064550238733 L 37.20703125 200.0161489501744 L 40.91796875 199.9703426038599 L 44.82421875 200.04157942007112 L 48.828125 199.94250922793034 L 52.9296875 200.07923834930946 L 57.2265625 199.89831294317528 L 61.5234375 200.14329279333455 L 66.30859375 199.83871278777514 L 70.703125 200.25396830456933 L 72.4609375 199.94073489377539 L 74.51171875 199.62504236092457 L 75.87890625 199.70613189734678 L 77.63671875 200.11629745743738 L 79.4921875 200.47576881665418 L 80.6640625 200.44330025730073 L 82.03125 200.12726228420877 L 84.86328125 199.37530496746737 L 85.9375 199.4025613893252 L 87.109375 199.69563435900486 L 90.72265625 200.84739546530457 L 91.69921875 200.77111413208993 L 92.7734375 200.42481593859875 L 96.6796875 198.85869014518883 L 97.55859375 198.9354832370619 L 98.53515625 199.28762636100086 L 99.90234375 200.11236572973024 L 101.85546875 201.2839382760212 L 102.83203125 201.55120626431864 L 103.7109375 201.5047982223083 L 104.58984375 201.17594959244644 L 105.6640625 200.45470828921484 L 108.88671875 198.01443709713556 L 109.765625 197.80868654050587 L 110.546875 197.9110760877095 L 111.328125 198.28488347299472 L 112.3046875 199.08308092797276 L 113.96484375 200.9147175961896 L 115.52734375 202.48117899477646 L 116.40625 203.00498313390327 L 117.15403495836983 203.15436344002555 L 117.87109375 203.01254652984704 L 118.65234375 202.5399865045728 L 119.53125 201.6526443735038 L 120.80078125 199.89831536308324 L 123.2421875 196.42584743053916 L 124.21875 195.58549542891848 L 124.90234375 195.3227443265839 L 125.48828125 195.3387181352233 L 126.171875 195.64896306979617 L 126.85546875 196.26589168725397 L 127.734375 197.4647901659877 L 128.90625 199.60329898998432 L 132.12890625 205.82771253476795 L 133.0078125 206.84375778301114 L 133.69140625 207.2636434318829 L 134.27734375 207.33510773506652 L 134.86328125 207.12776964079706 L 135.44921875 206.6402061549046 L 136.23046875 205.57057046113184 L 137.109375 203.85114027961072 L 138.18359375 201.16425665094275 L 140.234375 195.21457209189347 L 141.69921875 191.3274986356527 L 142.67578125 189.35159500545018 L 143.45703125 188.27753620098528 L 144.140625 187.76956992602013 L 144.7265625 187.68137940000062 L 145.21484375 187.86185643126234 L 145.80078125 188.38622631522054 L 146.484375 189.41617735648504 L 147.265625 191.11810100485707 L 148.14453125 193.63653024046906 L 149.21875 197.4277509180458 L 150.78125 203.841450763571 L 153.41796875 214.74078294509567 L 154.58984375 218.66003098634985 L 155.46875 220.9343070914252 L 156.25 222.37999521315896 L 156.93359375 223.15328338620068 L 157.51953125 223.4289763716181 L 158.0078125 223.377195065524 L 158.49609375 223.06589351598092 L 159.08203125 222.34913528593725 L 159.765625 221.04515523857233 L 160.546875 218.95692880647647 L 161.42578125 215.8889110195475 L 162.40234375 211.67073751994351 L 163.57421875 205.65070408786795 L 165.0390625 197.0115447390445 L 167.578125 180.57345705997173 L 170.1171875 164.584338988914 L 171.6796875 155.97010731878476 L 172.94921875 150.00260195999252 L 174.12109375 145.4560645669789 L 175.09765625 142.43064130272325 L 176.07421875 140.12614531620255 L 176.953125 138.67554978066113 L 177.734375 137.87881163423276 L 178.41796875 137.55512285268688 L 179.00390625 137.54817475396652 L 179.58984375 137.7835135957308 L 180.2734375 138.3532001042111 L 181.15234375 139.5293509716337 L 182.12890625 141.3808007156091 L 183.203125 144.01645637585057 L 184.375 147.51805059676033 L 185.83984375 152.65442686430282 L 187.6953125 160.05173637754922 L 190.91796875 173.99601073572325 L 193.45703125 184.59678037152875 L 195.1171875 190.66694147811026 L 196.38671875 194.55202608684107 L 197.4609375 197.16101601211085 L 198.33984375 198.73172140615208 L 199.12109375 199.6303679394976 L 199.70703125 199.95770871690712 L 200.1953125 199.9811118716741 L 200.78125 199.7065154332213 L 201.46484375 199.0028928089875 L 202.34375 197.55721615610818 L 203.3203125 195.33154399049087 L 204.39453125 192.2518083719001 L 205.76171875 187.57028123462632 L 207.421875 181.05651997851263 L 210.15625 169.3046529743017 L 213.37890625 155.66979604543639 L 215.13671875 149.14544887660688 L 216.50390625 144.83441852319078 L 217.67578125 141.81538435150668 L 218.75 139.6894805052275 L 219.7265625 138.3532001042111 L 220.5078125 137.72780219497324 L 221.19140625 137.52319474722677 L 221.77734375 137.61253982705676 L 222.36328125 137.9533067858663 L 223.046875 138.67554978066113 L 223.828125 139.9357937245427 L 224.70703125 141.91158194566322 L 225.5859375 144.47386377028147 L 226.5625 147.99043300328006 L 227.734375 153.0889812476098 L 229.00390625 159.58405766035392 L 230.56640625 168.7054768861487 L 232.91015625 183.77937270361977 L 235.7421875 201.74622145412994 L 237.20703125 209.77020690958057 L 238.37890625 215.1101815934866 L 239.35546875 218.65260684908915 L 240.234375 221.04515523857233 L 241.015625 222.4944952479609 L 241.69921875 223.22165203590487 L 242.28515625 223.4392598138142 L 242.7734375 223.33670644997488 L 243.359375 222.8802241617626 L 244.04296875 221.9056685894534 L 244.82421875 220.24812271152604 L 245.703125 217.76624323623471 L 246.77734375 214.00790661642716 L 248.33984375 207.61938750401342 L 251.07421875 196.32809464912984 L 252.24609375 192.4440968797564 L 253.125 190.19976857028564 L 253.90625 188.77329921304366 L 254.6875 187.92595042511348 L 255.2734375 187.68137940000062 L 255.76171875 187.73213695902515 L 256.34765625 188.0893779920641 L 257.03125 188.89086256709302 L 257.91015625 190.46227638762502 L 258.88671875 192.78060372742445 L 260.44921875 197.22048857212164 L 262.40234375 202.69676034838366 L 263.4765625 205.0539571566085 L 264.35546875 206.41662203060133 L 265.13671875 207.12776964079706 L 265.72265625 207.33510773506652 L 266.30859375 207.2636434318829 L 266.89453125 206.92486071059804 L 267.578125 206.22048505748003 L 268.5546875 204.73338293904766 L 269.921875 202.04310074790854 L 272.0703125 197.78471445262034 L 273.14453125 196.26589168725397 L 273.92578125 195.5854856119933 L 274.609375 195.32009232461658 L 275.1953125 195.34216448760336 L 275.87890625 195.6463445946785 L 276.66015625 196.3203830824616 L 277.734375 197.678876934337 L 281.15234375 202.37300815936615 L 282.03125 202.97129409043384 L 282.71484375 203.14964722504993 L 283.3984375 203.07218665485746 L 284.1796875 202.69323531412076 L 285.15625 201.86773677177308 L 287.109375 199.6912575543308 L 288.4765625 198.41776585010072 L 289.35546875 197.94328908007344 L 290.13291715043573 197.80637717797072 L 290.91796875 197.94116315532327 L 291.796875 198.3787221114022 L 293.06640625 199.3684088247264 L 295.21484375 201.06774869708778 L 296.19140625 201.48187642007827 L 297.0703125 201.56015867652187 L 297.94921875 201.36139354596236 L 299.0234375 200.82060889395038 L 302.24609375 198.98460617011122 L 303.22265625 198.85547614383165 L 304.19921875 199.01174204788077 L 305.37109375 199.49109321045657 L 308.10546875 200.72704385732132 L 309.1796875 200.85072801968204 L 310.25390625 200.69025885734945 L 311.71875 200.15872232307075 L 313.671875 199.47254023883832 L 314.84375 199.35851418971606 L 316.015625 199.52289406242986 L 318.1640625 200.18600069979567 L 319.62890625 200.47430714874787 L 320.80078125 200.44680017047673 L 322.36328125 200.11629745743738 L 324.609375 199.64568890949542 L 325.9765625 199.66210125356537 L 327.83203125 200.00397638307092 L 329.78515625 200.29026746152283 L 331.25 200.2240285865797 L 335.546875 199.7883354603465 L 337.98828125 200.09277586659812 L 339.84375 200.18028751954589 L 342.08984375 199.96602281493082 L 344.23828125 199.85471578501114 L 346.77734375 200.05674874358007 L 348.92578125 200.10409881289607 L 354.19921875 199.9780971996676 L 357.32421875 200.06259008370913 L 362.3046875 199.99305515465775 L 365.625 200.02586124163182 L 369.82421875 199.9936229941283 L 373.6328125 200.00092764482386 L 377.63671875 200.00945166750088 L 382.03125 199.97958338356523 L 398.2421875 200.0075168584807 L 400 200.0045977929081" stroke-linecap="round" stroke-linejoin="round" stroke-miterlimit="10" stroke-width="2.5" stroke-dasharray=""/></g></g><g id="sketch-b9a29733"><title>Expression 2</title><path fill="#c74440" stroke="none" paint-order="stroke fill markers" d="" fill-opacity="0.4"/><g><path fill="none" stroke="#c74440" class="dcg-svg-curve" paint-order="fill stroke markers" d=" M 200 400 L 200 391.2 M 200 385.59999999999997 L 200 376.79999999999995 M 200 371.19999999999993 L 200 362.3999999999999 M 200 356.7999999999999 L 200 347.9999999999999 M 200 342.39999999999986 L 200 333.59999999999985 M 200 327.99999999999983 L 200 319.1999999999998 M 200 313.5999999999998 L 200 304.7999999999998 M 200 299.19999999999976 L 200 290.39999999999975 M 200 284.7999999999997 L 200 275.9999999999997 M 200 270.3999999999997 L 200 261.5999999999997 M 200 255.9999999999997 L 200 247.19999999999968 M 200 241.59999999999968 L 200 232.79999999999967 M 200 227.19999999999968 L 200 218.39999999999966 M 200 212.79999999999967 L 200 203.99999999999966 M 200 198.39999999999966 L 200 189.59999999999965 M 200 183.99999999999966 L 200 175.19999999999965 M 200 169.59999999999965 L 200 160.79999999999964 M 200 155.19999999999965 L 200 146.39999999999964 M 200 140.79999999999964 L 200 131.99999999999963 M 200 126.39999999999964 L 200 117.59999999999964 M 200 111.99999999999964 L 200 103.19999999999965 M 200 97.59999999999965 L 200 88.79999999999966 M 200 83.19999999999966 L 200 74.39999999999966 M 200 68.79999999999967 L 200 59.99999999999967 M 200 54.39999999999967 L 200 45.59999999999967 M 200 39.999999999999666 L 200 31.199999999999665 M 200 25.599999999999664 L 200 16.799999999999663 M 200 11.199999999999662 L 200 2.399999999999661" stroke-linecap="round" stroke-linejoin="round" stroke-miterlimit="10" stroke-width="2" stroke-dasharray=""/></g></g><g id="sketch-b9a29733"><title>Expression 3</title><path fill="#c74440" stroke="none" class="dcg-svg-point" paint-order="stroke fill markers" d=" M 204.6875 200 A 4.6875 4.6875 0 1 1 204.6874976562502 199.99531250078124 L 202.34375 200 A 2.34375 2.34375 0 1 0 202.3437488281251 200.00234374960937 Z"/><path fill="white" stroke="none" class="dcg-svg-point" paint-order="stroke fill markers" d=" M 202.34375 200 A 2.34375 2.34375 0 1 1 202.3437488281251 199.99765625039063 Z"/></g></g><g id="labels-b9a29733"/><g id="labels-b9a29733"/></g></svg>