<svg version="1.1" xmlns="http://www.w3.org/2000/svg" xmlns:xlink="http://www.w3.org/1999/xlink" width="800" height="800"><defs/><g transform="scale(2,2)"><g id="background-7b018ccf"><rect fill="white" stroke="none" x="0" y="0" width="400" height="400" class="dcg-svg-background"/></g><g id="graphpaper-7b018ccf"><g id="grid-7b018ccf"><g><path fill="none" stroke="rgb(0,0,0)" class="dcg-svg-minor-gridline" paint-order="fill stroke markers" d=" M 11.5 0 L 11.5 400" stroke-opacity="0.2" stroke-miterlimit="10" stroke-dasharray=""/><path fill="none" stroke="rgb(0,0,0)" class="dcg-svg-minor-gridline" paint-order="fill stroke markers" d=" M 42.5 0 L 42.5 400" stroke-opacity="0.2" stroke-miterlimit="10" stroke-dasharray=""/><path fill="none" stroke="rgb(0,0,0)" class="dcg-svg-minor-gridline" paint-order="fill stroke markers" d=" M 74.5 0 L 74.5 400" stroke-opacity="0.2" stroke-miterlimit="10" stroke-dasharray=""/><path fill="none" stroke="rgb(0,0,0)" class="dcg-svg-minor-gridline" paint-order="fill stroke markers" d=" M 105.5 0 L 105.5 400" stroke-opacity="0.2" stroke-miterlimit="10" stroke-dasharray=""/><path fill="none" stroke="rgb(0,0,0)" class="dcg-svg-minor-gridline" paint-order="fill stroke markers" d=" M 137.5 0 L 137.5 400" stroke-opacity="0.2" stroke-miterlimit="10" stroke-dasharray=""/><path fill="none" stroke="rgb(0,0,0)" class="dcg-svg-minor-gridline" paint-order="fill stroke markers" d=" M 168.5 0 L 168.5 400" stroke-opacity="0.2" stroke-miterlimit="10" stroke-dasharray=""/><path fill="none" stroke="rgb(0,0,0)" class="dcg-svg-minor-gridline" paint-order="fill stroke markers" d=" M 231.5 0 L 231.5 400" stroke-opacity="0.2" stroke-miterlimit="10" stroke-dasharray=""/><path fill="none" stroke="rgb(0,0,0)" class="dcg-svg-minor-gridline" paint-order="fill stroke markers" d=" M 262.5 0 L 262.5 400" stroke-opacity="0.2" stroke-miterlimit="10" stroke-dasharray=""/><path fill="none" stroke="rgb(0,0,0)" class="dcg-svg-minor-gridline" paint-order="fill stroke markers" d=" M 294.5 0 L 294.5 400" stroke-opacity="0.2" stroke-miterlimit="10" stroke-dasharray=""/><path fill="none" stroke="rgb(0,0,0)" class="dcg-svg-minor-gridline" paint-order="fill stroke markers" d=" M 325.5 0 L 325.5 400" stroke-opacity="0.2" stroke-miterlimit="10" stroke-dasharray=""/><path fill="none" stroke="rgb(0,0,0)" class="dcg-svg-minor-gridline" paint-order="fill stroke markers" d=" M 357.5 0 L 357.5 400" stroke-opacity="0.2" stroke-miterlimit="10" stroke-dasharray=""/><path fill="none" stroke="rgb(0,0,0)" class="dcg-svg-minor-gridline" paint-order="fill stroke markers" d=" M 388.5 0 L 388.5 400" stroke-opacity="0.2" stroke-miterlimit="10" stroke-dasharray=""/><path fill="none" stroke="rgb(0,0,0)" class="dcg-svg-minor-gridline" paint-order="fill stroke markers" d=" M 0 380.5 L 400 380.5" stroke-opacity="0.2" stroke-miterlimit="10" stroke-dasharray=""/><path fill="none" stroke="rgb(0,0,0)" class="dcg-svg-minor-gridline" paint-order="fill stroke markers" d=" M 0 360.5 L 400 360.5" stroke-opacity="0.2" stroke-miterlimit="10" stroke-dasharray=""/><path fill="none" stroke="rgb(0,0,0)" class="dcg-svg-minor-gridline" paint-order="fill stroke markers" d=" M 0 340.5 L 400 340.5" stroke-opacity="0.2" stroke-miterlimit="10" stroke-dasharray=""/><path fill="none" stroke="rgb(0,0,0)" class="dcg-svg-minor-gridline" paint-order="fill stroke markers" d=" M 0 320.5 L 400 320.5" stroke-opacity="0.2" stroke-miterlimit="10" stroke-dasharray=""/><path fill="none" stroke="rgb(0,0,0)" class="dcg-svg-minor-gridline" paint-order="fill stroke markers" d=" M 0 300.5 L 400 300.5" stroke-opacity="0.2" stroke-miterlimit="10" stroke-dasharray=""/><path fill="none" stroke="rgb(0,0,0)" class="dcg-svg-minor-gridline" paint-order="fill stroke markers" d=" M 0 280.5 L 400 280.5" stroke-opacity="0.2" stroke-miterlimit="10" stroke-dasharray=""/><path fill="none" stroke="rgb(0,0,0)" class="dcg-svg-minor-gridline" paint-order="fill stroke markers" d=" M 0 260.5 L 400 260.5" stroke-opacity="0.2" stroke-miterlimit="10" stroke-dasharray=""/><path fill="none" stroke="rgb(0,0,0)" class="dcg-svg-minor-gridline" paint-order="fill stroke markers" d=" M 0 240.5 L 400 240.5" stroke-opacity="0.2" stroke-miterlimit="10" stroke-dasharray=""/><path fill="none" stroke="rgb(0,0,0)" class="dcg-svg-minor-gridline" paint-order="fill stroke markers" d=" M 0 220.5 L 400 220.5" stroke-opacity="0.2" stroke-miterlimit="10" stroke-dasharray=""/><path fill="none" stroke="rgb(0,0,0)" class="dcg-svg-minor-gridline" paint-order="fill stroke markers" d=" M 0 180.5 L 400 180.5" stroke-opacity="0.2" stroke-miterlimit="10" stroke-dasharray=""/><path fill="none" stroke="rgb(0,0,0)" class="dcg-svg-minor-gridline" paint-order="fill stroke markers" d=" M 0 160.5 L 400 160.5" stroke-opacity="0.2" stroke-miterlimit="10" stroke-dasharray=""/><path fill="none" stroke="rgb(0,0,0)" class="dcg-svg-minor-gridline" paint-order="fill stroke markers" d=" M 0 140.5 L 400 140.5" stroke-opacity="0.2" stroke-miterlimit="10" stroke-dasharray=""/><path fill="none" stroke="rgb(0,0,0)" class="dcg-svg-minor-gridline" paint-order="fill stroke markers" d=" M 0 120.5 L 400 120.5" stroke-opacity="0.2" stroke-miterlimit="10" stroke-dasharray=""/><path fill="none" stroke="rgb(0,0,0)" class="dcg-svg-minor-gridline" paint-order="fill stroke markers" d=" M 0 100.5 L 400 100.5" stroke-opacity="0.2" stroke-miterlimit="10" stroke-dasharray=""/><path fill="none" stroke="rgb(0,0,0)" class="dcg-svg-minor-gridline" paint-order="fill stroke markers" d=" M 0 80.5 L 400 80.5" stroke-opacity="0.2" stroke-miterlimit="10" stroke-dasharray=""/><path fill="none" stroke="rgb(0,0,0)" class="dcg-svg-minor-gridline" paint-order="fill stroke markers" d=" M 0 60.5 L 400 60.5" stroke-opacity="0.2" stroke-miterlimit="10" stroke-dasharray=""/><path fill="none" stroke="rgb(0,0,0)" class="dcg-svg-minor-gridline" paint-order="fill stroke markers" d=" M 0 40.5 L 400 40.5" stroke-opacity="0.2" stroke-miterlimit="10" stroke-dasharray=""/><path fill="none" stroke="rgb(0,0,0)" class="dcg-svg-minor-gridline" paint-order="fill stroke markers" d=" M 0 20.5 L 400 20.5" stroke-opacity="0.2" stroke-miterlimit="10" stroke-dasharray=""/><path fill="none" stroke="rgb(0,0,0)" class="dcg-svg-major-gridline" paint-order="fill stroke markers" d=" M 74.5 0 L 74.5 400" stroke-opacity="0.2500000000000001" stroke-miterlimit="10" stroke-dasharray=""/><path fill="none" stroke="rgb(0,0,0)" class="dcg-svg-major-gridline" paint-order="fill stroke markers" d=" M 325.5 0 L 325.5 400" stroke-opacity="0.2500000000000001" stroke-miterlimit="10" stroke-dasharray=""/><path fill="none" stroke="rgb(0,0,0)" class="dcg-svg-major-gridline" paint-order="fill stroke markers" d=" M 0 300.5 L 400 300.5" stroke-opacity="0.2500000000000001" stroke-miterlimit="10" stroke-dasharray=""/><path fill="none" stroke="rgb(0,0,0)" class="dcg-svg-major-gridline" paint-order="fill stroke markers" d=" M 0 100.5 L 400 100.5" stroke-opacity="0.2500000000000001" stroke-miterlimit="10" stroke-dasharray=""/></g></g><g id="axis-7b018ccf"><g id="yaxis-7b018ccf"><title>Y axis</title><g><path fill="none" stroke="rgb(0,0,0)" class="dcg-svg-axis-line" paint-order="fill stroke markers" d=" M 200 0 L 200 400" stroke-opacity="0.9" stroke-miterlimit="10" stroke-width="1.5" stroke-dasharray=""/></g></g><g id="xaxis-7b018ccf"><title>X axis</title><g><path fill="none" stroke="rgb(0,0,0)" class="dcg-svg-axis-line" paint-order="fill stroke markers" d=" M 0 200 L 400 200" stroke-opacity="0.9" stroke-miterlimit="10" stroke-width="1.5" stroke-dasharray=""/></g></g><g><g class="dcg-svg-axis-value"><text fill="none" stroke="#ffffff" font-family="Arial" font-size="14px" font-style="normal" font-weight="normal" text-decoration="normal" x="191.10693359375" y="215.808" text-anchor="middle" stroke-miterlimit="2" stroke-width="3" stroke-dasharray="">0</text><text fill="#000000" stroke="none" font-family="Arial" font-size="14px" font-style="normal" font-weight="normal" text-decoration="normal" x="191.10693359375" y="215.808" text-anchor="middle">0</text></g><g class="dcg-svg-axis-value"><text fill="none" stroke="#ffffff" font-family="Arial" font-size="14px" font-style="normal" font-weight="normal" text-decoration="normal" x="72.00523916890828" y="215.808" text-anchor="middle" stroke-miterlimit="2" stroke-width="3" stroke-dasharray="">-2π</text><text fill="#000000" stroke="none" font-family="Arial" font-size="14px" font-style="normal" font-weight="normal" text-decoration="normal" x="72.00523916890828" y="215.808" text-anchor="middle">-2π</text></g><g class="dcg-svg-axis-value"><text fill="none" stroke="#ffffff" font-family="Arial" font-size="14px" font-style="normal" font-weight="normal" text-decoration="normal" x="325.66370614359175" y="215.808" text-anchor="middle" stroke-miterlimit="2" stroke-width="3" stroke-dasharray="">2π</text><text fill="#000000" stroke="none" font-family="Arial" font-size="14px" font-style="normal" font-weight="normal" text-decoration="normal" x="325.66370614359175" y="215.808" text-anchor="middle">2π</text></g><g class="dcg-svg-axis-value dcg-svg-offcenter-axis-value"><text fill="none" stroke="#ffffff" font-family="Arial" font-size="14px" font-style="normal" font-weight="normal" text-decoration="normal" x="184.8828125" y="393.808" text-anchor="middle" stroke-miterlimit="2" stroke-width="3" stroke-dasharray="">-10</text><text fill="#000000" stroke="none" font-family="Arial" font-size="14px" font-style="normal" font-weight="normal" text-decoration="normal" x="184.8828125" y="393.808" text-anchor="middle">-10</text></g><g class="dcg-svg-axis-value"><text fill="none" stroke="#ffffff" font-family="Arial" font-size="14px" font-style="normal" font-weight="normal" text-decoration="normal" x="188.77587890625" y="303.808" text-anchor="middle" stroke-miterlimit="2" stroke-width="3" stroke-dasharray="">-5</text><text fill="#000000" stroke="none" font-family="Arial" font-size="14px" font-style="normal" font-weight="normal" text-decoration="normal" x="188.77587890625" y="303.808" text-anchor="middle">-5</text></g><g class="dcg-svg-axis-value"><text fill="none" stroke="#ffffff" font-family="Arial" font-size="14px" font-style="normal" font-weight="normal" text-decoration="normal" x="191.10693359375" y="103.808" text-anchor="middle" stroke-miterlimit="2" stroke-width="3" stroke-dasharray="">5</text><text fill="#000000" stroke="none" font-family="Arial" font-size="14px" font-style="normal" font-weight="normal" text-decoration="normal" x="191.10693359375" y="103.808" text-anchor="middle">5</text></g><g class="dcg-svg-axis-value dcg-svg-offcenter-axis-value"><text fill="none" stroke="#ffffff" font-family="Arial" font-size="14px" font-style="normal" font-weight="normal" text-decoration="normal" x="187.2138671875" y="13.808" text-anchor="middle" stroke-miterlimit="2" stroke-width="3" stroke-dasharray="">10</text><text fill="#000000" stroke="none" font-family="Arial" font-size="14px" font-style="normal" font-weight="normal" text-decoration="normal" x="187.2138671875" y="13.808" text-anchor="middle">10</text></g></g></g></g><g id="expressions-7b018ccf"><g id="sketch-7b018ccf"><title>Expression 1</title><path fill="#c74440" stroke="none" paint-order="stroke fill markers" d="" fill-opacity="0.4"/><g><path fill="none" stroke="#c74440" class="dcg-svg-curve" paint-order="fill stroke markers" d=" M 137.16814692820415 200 L 137.16814692820415 200 L 141.65962360466506 204.68621351359178 L 144.10064353752426 207.68099531843157 L 146.151100281126 210.7014855940531 L 147.81099383547027 213.66562301432313 L 149.27560579518578 216.83235262684497 L 150.54493616027258 220.1484974626689 L 151.716625728045 223.83990228350825 L 152.79067449850302 227.92461622076456 L 153.8647232689611 232.89390404969208 L 154.84113124210475 238.42431521113488 L 155.81753921524844 245.2396091237518 L 156.69630639107777 252.83704827820594 L 157.57507356690707 262.301145214544 L 158.35619994542202 272.8219542877349 L 159.13732632393697 286.040701424027 L 159.9184527024519 302.9748078921124 L 160.6019382836525 322.0356607019942 L 161.28542386485304 346.68511859865 L 161.96890944605363 379.35024563603633 L 162.37990153984381 405.5 L 174.78714370271254 405.5 L 175.34569867812206 371.5103470738191 L 176.02918425932265 340.8280040579075 L 176.81031063783757 314.68234803129417 L 177.59143701635253 295.02535893331606 L 178.37256339486746 279.86966536791505 L 179.25133057069678 266.6221996523285 L 180.1300977465261 256.2641304030093 L 181.10650571966977 247.19265251753242 L 182.08291369281346 239.99298401590016 L 183.05932166595713 234.1749131633838 L 184.1333704364152 228.9673619726016 L 185.3050600041876 224.35316326867922 L 186.47674957196003 220.57319622407266 L 187.7460799370468 217.18466958703604 L 189.21069189676234 213.9560547069151 L 190.77294465379222 211.1035593074391 L 192.6281198027652 208.28113437776184 L 194.87385814099568 205.41842828996386 L 197.70544126311236 202.31993070517356 L 205.8096274402049 193.7598331647172 L 207.957724981121 190.88161357748265 L 209.812900130094 187.8866369936515 L 211.37515288712387 184.82697893327406 L 212.74212404952502 181.5865491408473 L 214.01145441461182 177.9385858100254 L 215.18314398238425 173.83989050421633 L 216.2571927528423 169.26241265958686 L 217.23360072598598 164.20221289209067 L 218.21000869912965 158.0110034330445 L 219.08877587495897 151.16192852051233 L 219.96754305078827 142.70050991012974 L 220.8463102266176 132.06618290121332 L 221.62743660513252 120.13033463208518 L 222.40856298364747 104.97464106668396 L 223.09204856484806 88.07986078217282 L 223.77553414604864 66.4644863416886 L 224.4590197272492 38.18335011394572 L 225.04486451113542 6.363078796446189 L 225.2104977839926 -5.5 L 237.6301986760946 -5.5 L 238.03109055394637 20.64975436396344 L 238.71457613514696 53.31488140135005 L 239.4957025136619 80.98553194872918 L 240.27682889217684 101.67987290881481 L 241.05795527069176 117.56549857261597 L 241.9367224465211 131.3967352241898 L 242.8154896223504 142.17292513338091 L 243.6942567981797 150.73843071909062 L 244.6706647713234 158.352706715883 L 245.6470727444671 164.47948280160963 L 246.72112151492513 169.9415712129239 L 247.79517028538316 174.3981279845243 L 248.9668598531556 178.39722322358898 L 250.23619021824237 181.96429110440852 L 251.60316138064354 185.139855980288 L 253.16541413767342 188.14530655031822 L 254.92294848933204 190.95311721025726 L 257.0710460302481 193.81979277676805 L 259.7073475577361 196.81098763980305 L 262.8318530717959 200" stroke-linecap="round" stroke-linejoin="round" stroke-miterlimit="10" stroke-width="2.5" stroke-dasharray=""/></g></g><g id="sketch-7b018ccf"><title>Expression 2</title><path fill="#c74440" stroke="none" paint-order="stroke fill markers" d="" fill-opacity="0.4"/><g><path fill="none" stroke="#c74440" class="dcg-svg-curve" paint-order="fill stroke markers" d=" M 168.58407346410206 400 L 168.58407346410206 391.2 M 168.58407346410206 385.59999999999997 L 168.58407346410206 376.79999999999995 M 168.58407346410206 371.19999999999993 L 168.58407346410206 362.3999999999999 M 168.58407346410206 356.7999999999999 L 168.58407346410206 347.9999999999999 M 168.58407346410206 342.39999999999986 L 168.58407346410206 333.59999999999985 M 168.58407346410206 327.99999999999983 L 168.58407346410206 319.1999999999998 M 168.58407346410206 313.5999999999998 L 168.58407346410206 304.7999999999998 M 168.58407346410206 299.19999999999976 L 168.58407346410206 290.39999999999975 M 168.58407346410206 284.7999999999997 L 168.58407346410206 275.9999999999997 M 168.58407346410206 270.3999999999997 L 168.58407346410206 261.5999999999997 M 168.58407346410206 255.9999999999997 L 168.58407346410206 247.19999999999968 M 168.58407346410206 241.59999999999968 L 168.58407346410206 232.79999999999967 M 168.58407346410206 227.19999999999968 L 168.58407346410206 218.39999999999966 M 168.58407346410206 212.79999999999967 L 168.58407346410206 203.99999999999966 M 168.58407346410206 198.39999999999966 L 168.58407346410206 189.59999999999965 M 168.58407346410206 183.99999999999966 L 168.58407346410206 175.19999999999965 M 168.58407346410206 169.59999999999965 L 168.58407346410206 160.79999999999964 M 168.58407346410206 155.19999999999965 L 168.58407346410206 146.39999999999964 M 168.58407346410206 140.79999999999964 L 168.58407346410206 131.99999999999963 M 168.58407346410206 126.39999999999964 L 168.58407346410206 117.59999999999964 M 168.58407346410206 111.99999999999964 L 168.58407346410206 103.19999999999965 M 168.58407346410206 97.59999999999965 L 168.58407346410206 88.79999999999966 M 168.58407346410206 83.19999999999966 L 168.58407346410206 74.39999999999966 M 168.58407346410206 68.79999999999967 L 168.58407346410206 59.99999999999967 M 168.58407346410206 54.39999999999967 L 168.58407346410206 45.59999999999967 M 168.58407346410206 39.999999999999666 L 168.58407346410206 31.199999999999665 M 168.58407346410206 25.599999999999664 L 168.58407346410206 16.799999999999663 M 168.58407346410206 11.199999999999662 L 168.58407346410206 2.399999999999661" stroke-linecap="round" stroke-linejoin="round" stroke-miterlimit="10" stroke-width="2" stroke-dasharray=""/></g></g><g id="sketch-7b018ccf"><title>Expression 3</title><path fill="#c74440" stroke="none" paint-order="stroke fill markers" d="" fill-opacity="0.4"/><g><path fill="none" stroke="#c74440" class="dcg-svg-curve" paint-order="fill stroke markers" d=" M 231.41592653589794 400 L 231.41592653589794 391.2 M 231.41592653589794 385.59999999999997 L 231.41592653589794 376.79999999999995 M 231.41592653589794 371.19999999999993 L 231.41592653589794 362.3999999999999 M 231.41592653589794 356.7999999999999 L 231.41592653589794 347.9999999999999 M 231.41592653589794 342.39999999999986 L 231.41592653589794 333.59999999999985 M 231.41592653589794 327.99999999999983 L 231.41592653589794 319.1999999999998 M 231.41592653589794 313.5999999999998 L 231.41592653589794 304.7999999999998 M 231.41592653589794 299.19999999999976 L 231.41592653589794 290.39999999999975 M 231.41592653589794 284.7999999999997 L 231.41592653589794 275.9999999999997 M 231.41592653589794 270.3999999999997 L 231.41592653589794 261.5999999999997 M 231.41592653589794 255.9999999999997 L 231.41592653589794 247.19999999999968 M 231.41592653589794 241.59999999999968 L 231.41592653589794 232.79999999999967 M 231.41592653589794 227.19999999999968 L 231.41592653589794 218.39999999999966 M 231.41592653589794 212.79999999999967 L 231.41592653589794 203.99999999999966 M 231.41592653589794 198.39999999999966 L 231.41592653589794 189.59999999999965 M 231.41592653589794 183.99999999999966 L 231.41592653589794 175.19999999999965 M 231.41592653589794 169.59999999999965 L 231.41592653589794 160.79999999999964 M 231.41592653589794 155.19999999999965 L 231.41592653589794 146.39999999999964 M 231.41592653589794 140.79999999999964 L 231.41592653589794 131.99999999999963 M 231.41592653589794 126.39999999999964 L 231.41592653589794 117.59999999999964 M 231.41592653589794 111.99999999999964 L 231.41592653589794 103.19999999999965 M 231.41592653589794 97.59999999999965 L 231.41592653589794 88.79999999999966 M 231.41592653589794 83.19999999999966 L 231.41592653589794 74.39999999999966 M 231.41592653589794 68.79999999999967 L 231.41592653589794 59.99999999999967 M 231.41592653589794 54.39999999999967 L 231.41592653589794 45.59999999999967 M 231.41592653589794 39.999999999999666 L 231.41592653589794 31.199999999999665 M 231.41592653589794 25.599999999999664 L 231.41592653589794 16.799999999999663 M 231.41592653589794 11.199999999999662 L 231.41592653589794 2.399999999999661" stroke-linecap="round" stroke-linejoin="round" stroke-miterlimit="10" stroke-width="2" stroke-dasharray=""/></g></g><g id="sketch-7b018ccf"><title>Expression 5</title><path fill="#c74440" stroke="none" class="dcg-svg-point" paint-order="stroke fill markers" d=" M 140.91814692820412 200 A 3.75 3.75 0 1 1 140.91814505320428 199.996250000625 Z"/></g><g id="sketch-7b018ccf"><title>Expression 6</title><path fill="#c74440" stroke="none" class="dcg-svg-point" paint-order="stroke fill markers" d=" M 266.5818530717959 200 A 3.75 3.75 0 1 1 266.58185119679604 199.996250000625 Z"/></g></g><g id="labels-7b018ccf"/><g id="labels-7b018ccf"/></g></svg>