<svg version="1.1" xmlns="http://www.w3.org/2000/svg" xmlns:xlink="http://www.w3.org/1999/xlink" width="800" height="800"><defs/><g transform="scale(2,2)"><g id="background-8c59c2ca"><rect fill="white" stroke="none" x="0" y="0" width="400" height="400" class="dcg-svg-background"/></g><g id="graphpaper-8c59c2ca"><g id="grid-8c59c2ca"><g><path fill="none" stroke="rgb(0,0,0)" class="dcg-svg-minor-gridline" paint-order="fill stroke markers" d=" M 80.5 0 L 80.5 400" stroke-opacity="0.2" stroke-miterlimit="10" stroke-dasharray=""/><path fill="none" stroke="rgb(0,0,0)" class="dcg-svg-minor-gridline" paint-order="fill stroke markers" d=" M 133.5 0 L 133.5 400" stroke-opacity="0.2" stroke-miterlimit="10" stroke-dasharray=""/><path fill="none" stroke="rgb(0,0,0)" class="dcg-svg-minor-gridline" paint-order="fill stroke markers" d=" M 186.5 0 L 186.5 400" stroke-opacity="0.2" stroke-miterlimit="10" stroke-dasharray=""/><path fill="none" stroke="rgb(0,0,0)" class="dcg-svg-minor-gridline" paint-order="fill stroke markers" d=" M 240.5 0 L 240.5 400" stroke-opacity="0.2" stroke-miterlimit="10" stroke-dasharray=""/><path fill="none" stroke="rgb(0,0,0)" class="dcg-svg-minor-gridline" paint-order="fill stroke markers" d=" M 293.5 0 L 293.5 400" stroke-opacity="0.2" stroke-miterlimit="10" stroke-dasharray=""/><path fill="none" stroke="rgb(0,0,0)" class="dcg-svg-minor-gridline" paint-order="fill stroke markers" d=" M 346.5 0 L 346.5 400" stroke-opacity="0.2" stroke-miterlimit="10" stroke-dasharray=""/><path fill="none" stroke="rgb(0,0,0)" class="dcg-svg-minor-gridline" paint-order="fill stroke markers" d=" M 0 346.5 L 400 346.5" stroke-opacity="0.2" stroke-miterlimit="10" stroke-dasharray=""/><path fill="none" stroke="rgb(0,0,0)" class="dcg-svg-minor-gridline" paint-order="fill stroke markers" d=" M 0 320.5 L 400 320.5" stroke-opacity="0.2" stroke-miterlimit="10" stroke-dasharray=""/><path fill="none" stroke="rgb(0,0,0)" class="dcg-svg-minor-gridline" paint-order="fill stroke markers" d=" M 0 293.5 L 400 293.5" stroke-opacity="0.2" stroke-miterlimit="10" stroke-dasharray=""/><path fill="none" stroke="rgb(0,0,0)" class="dcg-svg-minor-gridline" paint-order="fill stroke markers" d=" M 0 266.5 L 400 266.5" stroke-opacity="0.2" stroke-miterlimit="10" stroke-dasharray=""/><path fill="none" stroke="rgb(0,0,0)" class="dcg-svg-minor-gridline" paint-order="fill stroke markers" d=" M 0 240.5 L 400 240.5" stroke-opacity="0.2" stroke-miterlimit="10" stroke-dasharray=""/><path fill="none" stroke="rgb(0,0,0)" class="dcg-svg-minor-gridline" paint-order="fill stroke markers" d=" M 0 213.5 L 400 213.5" stroke-opacity="0.2" stroke-miterlimit="10" stroke-dasharray=""/><path fill="none" stroke="rgb(0,0,0)" class="dcg-svg-minor-gridline" paint-order="fill stroke markers" d=" M 0 186.5 L 400 186.5" stroke-opacity="0.2" stroke-miterlimit="10" stroke-dasharray=""/><path fill="none" stroke="rgb(0,0,0)" class="dcg-svg-minor-gridline" paint-order="fill stroke markers" d=" M 0 160.5 L 400 160.5" stroke-opacity="0.2" stroke-miterlimit="10" stroke-dasharray=""/><path fill="none" stroke="rgb(0,0,0)" class="dcg-svg-minor-gridline" paint-order="fill stroke markers" d=" M 0 133.5 L 400 133.5" stroke-opacity="0.2" stroke-miterlimit="10" stroke-dasharray=""/><path fill="none" stroke="rgb(0,0,0)" class="dcg-svg-minor-gridline" paint-order="fill stroke markers" d=" M 0 106.5 L 400 106.5" stroke-opacity="0.2" stroke-miterlimit="10" stroke-dasharray=""/><path fill="none" stroke="rgb(0,0,0)" class="dcg-svg-minor-gridline" paint-order="fill stroke markers" d=" M 0 80.5 L 400 80.5" stroke-opacity="0.2" stroke-miterlimit="10" stroke-dasharray=""/><path fill="none" stroke="rgb(0,0,0)" class="dcg-svg-minor-gridline" paint-order="fill stroke markers" d=" M 0 53.5 L 400 53.5" stroke-opacity="0.2" stroke-miterlimit="10" stroke-dasharray=""/><path fill="none" stroke="rgb(0,0,0)" class="dcg-svg-minor-gridline" paint-order="fill stroke markers" d=" M 0 26.5 L 400 26.5" stroke-opacity="0.2" stroke-miterlimit="10" stroke-dasharray=""/><path fill="none" stroke="rgb(0,0,0)" class="dcg-svg-major-gridline" paint-order="fill stroke markers" d=" M 293.5 0 L 293.5 400" stroke-opacity="0.2500000000000001" stroke-miterlimit="10" stroke-dasharray=""/><path fill="none" stroke="rgb(0,0,0)" class="dcg-svg-major-gridline" paint-order="fill stroke markers" d=" M 0 240.5 L 400 240.5" stroke-opacity="0.2500000000000001" stroke-miterlimit="10" stroke-dasharray=""/><path fill="none" stroke="rgb(0,0,0)" class="dcg-svg-major-gridline" paint-order="fill stroke markers" d=" M 0 106.5 L 400 106.5" stroke-opacity="0.2500000000000001" stroke-miterlimit="10" stroke-dasharray=""/></g></g><g id="axis-8c59c2ca"><g id="yaxis-8c59c2ca"><title>Y axis</title><g><path fill="none" stroke="rgb(0,0,0)" class="dcg-svg-axis-line" paint-order="fill stroke markers" d=" M 27 0 L 27 400" stroke-opacity="0.9" stroke-miterlimit="10" stroke-width="1.5" stroke-dasharray=""/></g></g><g id="xaxis-8c59c2ca"><title>X axis</title><g><path fill="none" stroke="rgb(0,0,0)" class="dcg-svg-axis-line" paint-order="fill stroke markers" d=" M 0 373 L 400 373" stroke-opacity="0.9" stroke-miterlimit="10" stroke-width="1.5" stroke-dasharray=""/></g></g><g><g class="dcg-svg-axis-value"><text fill="none" stroke="#ffffff" font-family="Arial" font-size="14px" font-style="normal" font-weight="normal" text-decoration="normal" x="17.773600260416657" y="389.14133333333336" text-anchor="middle" stroke-miterlimit="2" stroke-width="3" stroke-dasharray="">0</text><text fill="#000000" stroke="none" font-family="Arial" font-size="14px" font-style="normal" font-weight="normal" text-decoration="normal" x="17.773600260416657" y="389.14133333333336" text-anchor="middle">0</text></g><g class="dcg-svg-axis-value"><text fill="none" stroke="#ffffff" font-family="Arial" font-size="14px" font-style="normal" font-weight="normal" text-decoration="normal" x="293.33333333333337" y="389.14133333333336" text-anchor="middle" stroke-miterlimit="2" stroke-width="3" stroke-dasharray="">5</text><text fill="#000000" stroke="none" font-family="Arial" font-size="14px" font-style="normal" font-weight="normal" text-decoration="normal" x="293.33333333333337" y="389.14133333333336" text-anchor="middle">5</text></g><g class="dcg-svg-axis-value"><text fill="none" stroke="#ffffff" font-family="Arial" font-size="14px" font-style="normal" font-weight="normal" text-decoration="normal" x="17.773600260416657" y="243.80800000000002" text-anchor="middle" stroke-miterlimit="2" stroke-width="3" stroke-dasharray="">5</text><text fill="#000000" stroke="none" font-family="Arial" font-size="14px" font-style="normal" font-weight="normal" text-decoration="normal" x="17.773600260416657" y="243.80800000000002" text-anchor="middle">5</text></g><g class="dcg-svg-axis-value"><text fill="none" stroke="#ffffff" font-family="Arial" font-size="14px" font-style="normal" font-weight="normal" text-decoration="normal" x="13.880533854166657" y="110.47466666666669" text-anchor="middle" stroke-miterlimit="2" stroke-width="3" stroke-dasharray="">10</text><text fill="#000000" stroke="none" font-family="Arial" font-size="14px" font-style="normal" font-weight="normal" text-decoration="normal" x="13.880533854166657" y="110.47466666666669" text-anchor="middle">10</text></g></g></g></g><g id="expressions-8c59c2ca"><g id="sketch-8c59c2ca"><title>Expression 1</title><path fill="#c74440" stroke="none" paint-order="stroke fill markers" d="" fill-opacity="0.4"/><g><path fill="none" stroke="#c74440" class="dcg-svg-curve" paint-order="fill stroke markers" d=" M 26.666666666666657 320.00000000000006 L 26.666666666666657 320.00000000000006 L 29.302363218390795 313.73020730582226 L 31.840441379310334 308.2964704290045 L 34.280901149425276 303.63042998013566 L 36.72136091954022 299.5121410489839 L 39.16182068965516 295.9416036355491 L 41.50466206896551 293.02921234651984 L 43.74988505747125 290.71186620705515 L 45.79987126436781 289.0009263494403 L 47.75223908045976 287.7307848140009 L 49.60698850574711 286.84885745503607 L 51.36411954022988 286.30518933413015 L 53.023632183908035 286.05245472015224 L 54.6831448275862 286.0530004079667 L 56.34265747126436 286.30682639757345 L 58.099788505747114 286.85165009267473 L 59.856919540229875 287.68042817456046 L 61.711668965517234 288.8633049367817 L 63.664036781609184 290.4502353177542 L 65.71402298850575 292.4938034631788 L 67.86162758620688 295.04922272604136 L 70.20446896551724 298.32072697142996 L 72.54731034482757 302.09703901554656 L 74.98777011494252 306.5674938821974 L 77.42822988505746 311.58570026656525 L 79.966308045977 317.38568971630195 L 82.50438620689654 323.7781272076014 L 85.14008275862068 331.0434936168179 L 87.87339770114941 339.25277754064746 L 90.70433103448275 348.4795967830714 L 93.63288275862068 358.8001983553558 L 96.56143448275861 369.90956211315273 L 97.44 373.3961798666667" stroke-linecap="round" stroke-linejoin="round" stroke-miterlimit="10" stroke-width="2.5" stroke-opacity="0.5" stroke-dasharray=""/></g></g><g id="sketch-8c59c2ca"><title>Expression 2</title><path fill="#c74440" stroke="none" paint-order="stroke fill markers" d="" fill-opacity="0.4"/><g><path fill="none" stroke="#c74440" class="dcg-svg-curve" paint-order="fill stroke markers" d=" M 26.666666666666657 293.33333333333337 L 26.666666666666657 293.33333333333337 L 28.323239875389397 293.4595252552741 L 29.97981308411214 293.83810102109646 L 31.733831775700928 294.5140356064402 L 33.48785046728971 295.47291955309055 L 35.33931464174454 296.7920399551082 L 37.28822429906541 298.5211749408711 L 39.33457943925232 300.712722540251 L 41.575825545171334 303.55487901053664 L 43.91451713395638 307.0131489820625 L 46.35065420560747 311.15041009067465 L 48.78679127725856 315.8334840104493 L 51.3203738317757 321.2828791170962 L 53.85395638629283 327.32262536029646 L 56.48498442367601 334.2195160421464 L 59.21345794392523 342.0442885029727 L 61.941931464174445 350.5537285541212 L 64.76785046728972 360.0888600400064 L 67.69121495327103 370.7256601039422 L 68.37333333333333 373.3206725333334" stroke-linecap="round" stroke-linejoin="round" stroke-miterlimit="10" stroke-width="2.5" stroke-dasharray=""/></g></g><g id="sketch-8c59c2ca"><title>Expression 3</title><path fill="#000000" stroke="none" paint-order="stroke fill markers" d="" fill-opacity="0.4"/><g><path fill="none" stroke="#000000" class="dcg-svg-curve" paint-order="fill stroke markers" d=" M 26.666666666666657 266.6666666666667 L 26.666666666666657 266.6666666666667 L 39.26410323480686 272.816608005654 L 51.76388525590722 278.6247724791781 L 64.16601272996773 284.0980263028405 L 76.56814020402825 289.2828811904725 L 88.87261313104891 294.14190885929884 L 101.17708605806958 298.7170614268531 L 113.3839044380504 302.97539868357853 L 125.49306827099137 306.9236259181485 L 137.60223210393232 310.596918436344 L 149.71139593687332 313.9952762381652 L 161.72290522277444 317.0946100951041 L 173.73441450867557 319.923425785808 L 185.64826924753683 322.4620148703689 L 197.56212398639812 324.73446657729477 L 209.47597872525938 326.74078090658566 L 221.38983346412067 328.4809578582414 L 233.20603365594212 329.9439969272445 L 245.02223384776352 331.1452436456728 L 256.83843403958497 332.08469801352635 L 268.65463423140636 332.76236003080516 L 280.4708344232278 333.1782296975092 L 292.28703461504927 333.33230701363846 L 304.10323480687066 333.224591979193 L 315.91943499869217 332.8550845941728 L 327.73563519051356 332.22378485857786 L 339.55183538233496 331.33069277240816 L 351.36803557415647 330.17580833566365 L 363.18423576597786 328.75913154834444 L 375.00043595779925 327.0806624104505 L 386.81663614962076 325.1404009219818 L 398.730490888482 322.9190575639226 L 400 322.6666666666667" stroke-linecap="round" stroke-linejoin="round" stroke-miterlimit="10" stroke-width="2.5" stroke-dasharray=""/></g></g><g id="sketch-8c59c2ca"><title>Expression 4</title><path fill="#000000" stroke="none" paint-order="stroke fill markers" d="" fill-opacity="0.4"/><g><path fill="none" stroke="#000000" class="dcg-svg-curve" paint-order="fill stroke markers" d=" M 26.666666666666657 373.33333333333337 L 26.666666666666657 373.33333333333337 L 39.26410323480686 366.8858381041805 L 51.959194349986916 360.0873395323499 L 64.65428546516696 352.9866559509768 L 77.44703112738685 345.52567102663244 L 90.3374313366466 337.6973576167872 L 103.32548609294619 329.4946349366021 L 116.41119539628563 320.9103685589288 L 129.59455924666491 311.93737041430956 L 142.87557764408405 302.5683987909772 L 156.25425058854302 292.7961583348552 L 169.73057808004185 282.6133000495576 L 183.30456011858053 272.0124212963891 L 196.97619670415904 260.9860657943451 L 210.84314238381725 249.4441821551423 L 224.8077426105153 237.45665225873466 L 238.8699973842532 225.01580525488004 L 253.02990670503098 212.1139166510267 L 267.38512511988836 198.650313881633 L 281.8379980817857 184.70478477311966 L 296.48618013776263 170.1711673636176 L 311.2320167407795 155.1343097373997 L 326.17316243787604 139.48245325165107 L 341.2119626820124 123.30561353311535 L 356.4460720202285 106.48632797341293 L 371.8754904525242 89.00786017201534 L 387.4025634318598 70.96814693668551 L 400 56" stroke-linecap="round" stroke-linejoin="round" stroke-miterlimit="10" stroke-width="2.5" stroke-opacity="0.5" stroke-dasharray=""/></g></g></g><g id="labels-8c59c2ca"/><g id="labels-8c59c2ca"/></g></svg>