<svg version="1.1" xmlns="http://www.w3.org/2000/svg" xmlns:xlink="http://www.w3.org/1999/xlink" width="800" height="800"><defs/><g transform="scale(2,2)"><g id="background-8b2f1cf7"><rect fill="white" stroke="none" x="0" y="0" width="400" height="400" class="dcg-svg-background"/></g><g id="graphpaper-8b2f1cf7"><g id="grid-8b2f1cf7"><g><path fill="none" stroke="rgb(0,0,0)" class="dcg-svg-minor-gridline" paint-order="fill stroke markers" d=" M 20.5 0 L 20.5 400" stroke-opacity="0.2" stroke-miterlimit="10" stroke-dasharray=""/><path fill="none" stroke="rgb(0,0,0)" class="dcg-svg-minor-gridline" paint-order="fill stroke markers" d=" M 40.5 0 L 40.5 400" stroke-opacity="0.2" stroke-miterlimit="10" stroke-dasharray=""/><path fill="none" stroke="rgb(0,0,0)" class="dcg-svg-minor-gridline" paint-order="fill stroke markers" d=" M 60.5 0 L 60.5 400" stroke-opacity="0.2" stroke-miterlimit="10" stroke-dasharray=""/><path fill="none" stroke="rgb(0,0,0)" class="dcg-svg-minor-gridline" paint-order="fill stroke markers" d=" M 80.5 0 L 80.5 400" stroke-opacity="0.2" stroke-miterlimit="10" stroke-dasharray=""/><path fill="none" stroke="rgb(0,0,0)" class="dcg-svg-minor-gridline" paint-order="fill stroke markers" d=" M 100.5 0 L 100.5 400" stroke-opacity="0.2" stroke-miterlimit="10" stroke-dasharray=""/><path fill="none" stroke="rgb(0,0,0)" class="dcg-svg-minor-gridline" paint-order="fill stroke markers" d=" M 120.5 0 L 120.5 400" stroke-opacity="0.2" stroke-miterlimit="10" stroke-dasharray=""/><path fill="none" stroke="rgb(0,0,0)" class="dcg-svg-minor-gridline" paint-order="fill stroke markers" d=" M 140.5 0 L 140.5 400" stroke-opacity="0.2" stroke-miterlimit="10" stroke-dasharray=""/><path fill="none" stroke="rgb(0,0,0)" class="dcg-svg-minor-gridline" paint-order="fill stroke markers" d=" M 160.5 0 L 160.5 400" stroke-opacity="0.2" stroke-miterlimit="10" stroke-dasharray=""/><path fill="none" stroke="rgb(0,0,0)" class="dcg-svg-minor-gridline" paint-order="fill stroke markers" d=" M 180.5 0 L 180.5 400" stroke-opacity="0.2" stroke-miterlimit="10" stroke-dasharray=""/><path fill="none" stroke="rgb(0,0,0)" class="dcg-svg-minor-gridline" paint-order="fill stroke markers" d=" M 220.5 0 L 220.5 400" stroke-opacity="0.2" stroke-miterlimit="10" stroke-dasharray=""/><path fill="none" stroke="rgb(0,0,0)" class="dcg-svg-minor-gridline" paint-order="fill stroke markers" d=" M 240.5 0 L 240.5 400" stroke-opacity="0.2" stroke-miterlimit="10" stroke-dasharray=""/><path fill="none" stroke="rgb(0,0,0)" class="dcg-svg-minor-gridline" paint-order="fill stroke markers" d=" M 260.5 0 L 260.5 400" stroke-opacity="0.2" stroke-miterlimit="10" stroke-dasharray=""/><path fill="none" stroke="rgb(0,0,0)" class="dcg-svg-minor-gridline" paint-order="fill stroke markers" d=" M 280.5 0 L 280.5 400" stroke-opacity="0.2" stroke-miterlimit="10" stroke-dasharray=""/><path fill="none" stroke="rgb(0,0,0)" class="dcg-svg-minor-gridline" paint-order="fill stroke markers" d=" M 300.5 0 L 300.5 400" stroke-opacity="0.2" stroke-miterlimit="10" stroke-dasharray=""/><path fill="none" stroke="rgb(0,0,0)" class="dcg-svg-minor-gridline" paint-order="fill stroke markers" d=" M 320.5 0 L 320.5 400" stroke-opacity="0.2" stroke-miterlimit="10" stroke-dasharray=""/><path fill="none" stroke="rgb(0,0,0)" class="dcg-svg-minor-gridline" paint-order="fill stroke markers" d=" M 340.5 0 L 340.5 400" stroke-opacity="0.2" stroke-miterlimit="10" stroke-dasharray=""/><path fill="none" stroke="rgb(0,0,0)" class="dcg-svg-minor-gridline" paint-order="fill stroke markers" d=" M 360.5 0 L 360.5 400" stroke-opacity="0.2" stroke-miterlimit="10" stroke-dasharray=""/><path fill="none" stroke="rgb(0,0,0)" class="dcg-svg-minor-gridline" paint-order="fill stroke markers" d=" M 380.5 0 L 380.5 400" stroke-opacity="0.2" stroke-miterlimit="10" stroke-dasharray=""/><path fill="none" stroke="rgb(0,0,0)" class="dcg-svg-minor-gridline" paint-order="fill stroke markers" d=" M 0 380.5 L 400 380.5" stroke-opacity="0.2" stroke-miterlimit="10" stroke-dasharray=""/><path fill="none" stroke="rgb(0,0,0)" class="dcg-svg-minor-gridline" paint-order="fill stroke markers" d=" M 0 360.5 L 400 360.5" stroke-opacity="0.2" stroke-miterlimit="10" stroke-dasharray=""/><path fill="none" stroke="rgb(0,0,0)" class="dcg-svg-minor-gridline" paint-order="fill stroke markers" d=" M 0 340.5 L 400 340.5" stroke-opacity="0.2" stroke-miterlimit="10" stroke-dasharray=""/><path fill="none" stroke="rgb(0,0,0)" class="dcg-svg-minor-gridline" paint-order="fill stroke markers" d=" M 0 320.5 L 400 320.5" stroke-opacity="0.2" stroke-miterlimit="10" stroke-dasharray=""/><path fill="none" stroke="rgb(0,0,0)" class="dcg-svg-minor-gridline" paint-order="fill stroke markers" d=" M 0 300.5 L 400 300.5" stroke-opacity="0.2" stroke-miterlimit="10" stroke-dasharray=""/><path fill="none" stroke="rgb(0,0,0)" class="dcg-svg-minor-gridline" paint-order="fill stroke markers" d=" M 0 280.5 L 400 280.5" stroke-opacity="0.2" stroke-miterlimit="10" stroke-dasharray=""/><path fill="none" stroke="rgb(0,0,0)" class="dcg-svg-minor-gridline" paint-order="fill stroke markers" d=" M 0 260.5 L 400 260.5" stroke-opacity="0.2" stroke-miterlimit="10" stroke-dasharray=""/><path fill="none" stroke="rgb(0,0,0)" class="dcg-svg-minor-gridline" paint-order="fill stroke markers" d=" M 0 240.5 L 400 240.5" stroke-opacity="0.2" stroke-miterlimit="10" stroke-dasharray=""/><path fill="none" stroke="rgb(0,0,0)" class="dcg-svg-minor-gridline" paint-order="fill stroke markers" d=" M 0 220.5 L 400 220.5" stroke-opacity="0.2" stroke-miterlimit="10" stroke-dasharray=""/><path fill="none" stroke="rgb(0,0,0)" class="dcg-svg-minor-gridline" paint-order="fill stroke markers" d=" M 0 180.5 L 400 180.5" stroke-opacity="0.2" stroke-miterlimit="10" stroke-dasharray=""/><path fill="none" stroke="rgb(0,0,0)" class="dcg-svg-minor-gridline" paint-order="fill stroke markers" d=" M 0 160.5 L 400 160.5" stroke-opacity="0.2" stroke-miterlimit="10" stroke-dasharray=""/><path fill="none" stroke="rgb(0,0,0)" class="dcg-svg-minor-gridline" paint-order="fill stroke markers" d=" M 0 140.5 L 400 140.5" stroke-opacity="0.2" stroke-miterlimit="10" stroke-dasharray=""/><path fill="none" stroke="rgb(0,0,0)" class="dcg-svg-minor-gridline" paint-order="fill stroke markers" d=" M 0 120.5 L 400 120.5" stroke-opacity="0.2" stroke-miterlimit="10" stroke-dasharray=""/><path fill="none" stroke="rgb(0,0,0)" class="dcg-svg-minor-gridline" paint-order="fill stroke markers" d=" M 0 100.5 L 400 100.5" stroke-opacity="0.2" stroke-miterlimit="10" stroke-dasharray=""/><path fill="none" stroke="rgb(0,0,0)" class="dcg-svg-minor-gridline" paint-order="fill stroke markers" d=" M 0 80.5 L 400 80.5" stroke-opacity="0.2" stroke-miterlimit="10" stroke-dasharray=""/><path fill="none" stroke="rgb(0,0,0)" class="dcg-svg-minor-gridline" paint-order="fill stroke markers" d=" M 0 60.5 L 400 60.5" stroke-opacity="0.2" stroke-miterlimit="10" stroke-dasharray=""/><path fill="none" stroke="rgb(0,0,0)" class="dcg-svg-minor-gridline" paint-order="fill stroke markers" d=" M 0 40.5 L 400 40.5" stroke-opacity="0.2" stroke-miterlimit="10" stroke-dasharray=""/><path fill="none" stroke="rgb(0,0,0)" class="dcg-svg-minor-gridline" paint-order="fill stroke markers" d=" M 0 20.5 L 400 20.5" stroke-opacity="0.2" stroke-miterlimit="10" stroke-dasharray=""/><path fill="none" stroke="rgb(0,0,0)" class="dcg-svg-major-gridline" paint-order="fill stroke markers" d=" M 100.5 0 L 100.5 400" stroke-opacity="0.2500000000000001" stroke-miterlimit="10" stroke-dasharray=""/><path fill="none" stroke="rgb(0,0,0)" class="dcg-svg-major-gridline" paint-order="fill stroke markers" d=" M 300.5 0 L 300.5 400" stroke-opacity="0.2500000000000001" stroke-miterlimit="10" stroke-dasharray=""/><path fill="none" stroke="rgb(0,0,0)" class="dcg-svg-major-gridline" paint-order="fill stroke markers" d=" M 0 300.5 L 400 300.5" stroke-opacity="0.2500000000000001" stroke-miterlimit="10" stroke-dasharray=""/><path fill="none" stroke="rgb(0,0,0)" class="dcg-svg-major-gridline" paint-order="fill stroke markers" d=" M 0 100.5 L 400 100.5" stroke-opacity="0.2500000000000001" stroke-miterlimit="10" stroke-dasharray=""/></g></g><g id="axis-8b2f1cf7"><g id="yaxis-8b2f1cf7"><title>Y axis</title><g><path fill="none" stroke="rgb(0,0,0)" class="dcg-svg-axis-line" paint-order="fill stroke markers" d=" M 200 0 L 200 400" stroke-opacity="0.9" stroke-miterlimit="10" stroke-width="1.5" stroke-dasharray=""/></g></g><g id="xaxis-8b2f1cf7"><title>X axis</title><g><path fill="none" stroke="rgb(0,0,0)" class="dcg-svg-axis-line" paint-order="fill stroke markers" d=" M 0 200 L 400 200" stroke-opacity="0.9" stroke-miterlimit="10" stroke-width="1.5" stroke-dasharray=""/></g></g><g><g class="dcg-svg-axis-value"><text fill="none" stroke="#ffffff" font-family="Arial" font-size="14px" font-style="normal" font-weight="normal" text-decoration="normal" x="191.45264673809967" y="215.808" text-anchor="middle" stroke-miterlimit="2" stroke-width="3" stroke-dasharray="">0</text><text fill="#000000" stroke="none" font-family="Arial" font-size="14px" font-style="normal" font-weight="normal" text-decoration="normal" x="191.45264673809967" y="215.808" text-anchor="middle">0</text></g><g class="dcg-svg-axis-value dcg-svg-offcenter-axis-value"><text fill="none" stroke="#ffffff" font-family="Arial" font-size="14px" font-style="normal" font-weight="normal" text-decoration="normal" x="13.1171875" y="215.808" text-anchor="middle" stroke-miterlimit="2" stroke-width="3" stroke-dasharray="">-10</text><text fill="#000000" stroke="none" font-family="Arial" font-size="14px" font-style="normal" font-weight="normal" text-decoration="normal" x="13.1171875" y="215.808" text-anchor="middle">-10</text></g><g class="dcg-svg-axis-value"><text fill="none" stroke="#ffffff" font-family="Arial" font-size="14px" font-style="normal" font-weight="normal" text-decoration="normal" x="98.01465845684967" y="215.808" text-anchor="middle" stroke-miterlimit="2" stroke-width="3" stroke-dasharray="">-5</text><text fill="#000000" stroke="none" font-family="Arial" font-size="14px" font-style="normal" font-weight="normal" text-decoration="normal" x="98.01465845684967" y="215.808" text-anchor="middle">-5</text></g><g class="dcg-svg-axis-value"><text fill="none" stroke="#ffffff" font-family="Arial" font-size="14px" font-style="normal" font-weight="normal" text-decoration="normal" x="300.3457131443497" y="215.808" text-anchor="middle" stroke-miterlimit="2" stroke-width="3" stroke-dasharray="">5</text><text fill="#000000" stroke="none" font-family="Arial" font-size="14px" font-style="normal" font-weight="normal" text-decoration="normal" x="300.3457131443497" y="215.808" text-anchor="middle">5</text></g><g class="dcg-svg-axis-value dcg-svg-offcenter-axis-value"><text fill="none" stroke="#ffffff" font-family="Arial" font-size="14px" font-style="normal" font-weight="normal" text-decoration="normal" x="185.22852564434967" y="393.808" text-anchor="middle" stroke-miterlimit="2" stroke-width="3" stroke-dasharray="">-10</text><text fill="#000000" stroke="none" font-family="Arial" font-size="14px" font-style="normal" font-weight="normal" text-decoration="normal" x="185.22852564434967" y="393.808" text-anchor="middle">-10</text></g><g class="dcg-svg-axis-value"><text fill="none" stroke="#ffffff" font-family="Arial" font-size="14px" font-style="normal" font-weight="normal" text-decoration="normal" x="189.12159205059967" y="303.808" text-anchor="middle" stroke-miterlimit="2" stroke-width="3" stroke-dasharray="">-5</text><text fill="#000000" stroke="none" font-family="Arial" font-size="14px" font-style="normal" font-weight="normal" text-decoration="normal" x="189.12159205059967" y="303.808" text-anchor="middle">-5</text></g><g class="dcg-svg-axis-value"><text fill="none" stroke="#ffffff" font-family="Arial" font-size="14px" font-style="normal" font-weight="normal" text-decoration="normal" x="191.45264673809967" y="103.808" text-anchor="middle" stroke-miterlimit="2" stroke-width="3" stroke-dasharray="">5</text><text fill="#000000" stroke="none" font-family="Arial" font-size="14px" font-style="normal" font-weight="normal" text-decoration="normal" x="191.45264673809967" y="103.808" text-anchor="middle">5</text></g><g class="dcg-svg-axis-value dcg-svg-offcenter-axis-value"><text fill="none" stroke="#ffffff" font-family="Arial" font-size="14px" font-style="normal" font-weight="normal" text-decoration="normal" x="187.55958033184967" y="13.808" text-anchor="middle" stroke-miterlimit="2" stroke-width="3" stroke-dasharray="">10</text><text fill="#000000" stroke="none" font-family="Arial" font-size="14px" font-style="normal" font-weight="normal" text-decoration="normal" x="187.55958033184967" y="13.808" text-anchor="middle">10</text></g></g></g></g><g id="expressions-8b2f1cf7"><g id="sketch-8b2f1cf7"><title>Expression 1</title><path fill="#c74440" stroke="none" paint-order="stroke fill markers" d="" fill-opacity="0.4"/><g><path fill="none" stroke="#c74440" class="dcg-svg-curve" paint-order="fill stroke markers" d=" M 165.48754926676745 405.5 L 165.48754926676745 405.5 L 167.1875 394.4479943793551 L 170.80078125 372.27994571513705 L 174.31640625 351.964161553061 L 177.734375 333.3976450669551 L 181.0546875 316.4802604535968 L 184.27734375 301.1147329327126 L 187.40234375 287.2066487469784 L 190.4296875 274.664455162019 L 193.359375 263.39946046640875 L 196.19140625 253.32583397167105 L 198.92578125 244.36060601227857 L 201.66015625 236.1430587169486 L 204.296875 228.9270984335263 L 206.8359375 222.63547754238283 L 209.27734375 217.1938094468385 L 211.71875 212.34818779904805 L 214.0625 208.2571515152161 L 216.40625 204.71543163763414 L 218.65234375 201.83674438963567 L 220.80078125 199.55528624338868 L 222.75390625 197.88177659605475 L 224.609375 196.64527876531605 L 226.3671875 195.7914333151374 L 228.02734375 195.26874183243285 L 229.6875 195.02166222716974 L 231.34765625 195.050194499348 L 233.0078125 195.35433864896768 L 234.66796875 195.9340946760288 L 236.328125 196.78946258053128 L 238.0859375 197.99555365379013 L 239.94140625 199.60386630889127 L 241.89453125 201.66875998186984 L 244.04296875 204.38074055632597 L 246.2890625 207.70951943381579 L 248.6328125 211.72090014217136 L 250.9765625 216.28159725677688 L 253.3203125 221.39161077763245 L 255.76171875 227.29866704732248 L 258.30078125 234.0742916395774 L 260.9375 241.792871151077 L 263.57421875 250.20667923923673 L 266.30859375 259.66643907281303 L 269.140625 270.252259294384 L 272.0703125 282.0471095694768 L 275.09765625 295.1368205865682 L 278.22265625 309.6100840570839 L 281.4453125 325.55845271539897 L 284.66796875 342.54537270428045 L 287.98828125 361.13328289072683 L 291.40625 381.41945805501166 L 294.921875 403.5040340003575 L 295.222550163605 405.5" stroke-linecap="round" stroke-linejoin="round" stroke-miterlimit="10" stroke-width="2.5" stroke-dasharray=""/></g></g><g id="sketch-8b2f1cf7"><title>Expression 2</title><path fill="#000000" stroke="none" paint-order="stroke fill markers" d="" fill-opacity="0.4"/><g><path fill="none" stroke="#000000" class="dcg-svg-curve" paint-order="fill stroke markers" d=" M 94.14516639985683 -5.5 L 94.14516639985683 -5.5 L 96.6796875 13.66583328830086 L 100.48828125 40.99696045631492 L 104.19921875 66.23206396691342 L 107.91015625 90.09006176462125 L 111.5234375 111.99699440100741 L 115.0390625 132.05871972519287 L 118.45703125 150.37823456334945 L 121.77734375 167.0556747186999 L 125 182.18831497151766 L 128.125 195.87056907912694 L 131.15234375 208.1939897759027 L 134.08203125 219.24726877327083 L 136.9140625 229.11623675970773 L 139.6484375 237.88386340074084 L 142.28515625 245.63025733894824 L 144.921875 252.68142270049555 L 147.4609375 258.814352185389 L 149.90234375 264.1034323903084 L 152.24609375 268.62018888898405 L 154.58984375 272.5876289814098 L 156.93359375 276.00575266758545 L 159.1796875 278.76599356548627 L 161.328125 280.9341552029442 L 163.28125 282.50466802410625 L 165.13671875 283.6433188699817 L 166.89453125 284.40446717660564 L 168.5546875 284.8396113570641 L 170.21484375 284.99914366008113 L 171.875 284.88306408565677 L 173.53515625 284.491372633791 L 175.1953125 283.8240693044838 L 176.953125 282.81710542849055 L 178.7109375 281.5011510739817 L 180.6640625 279.67658332873754 L 182.71484375 277.3502304030182 L 184.9609375 274.31976085170027 L 187.20703125 270.7847975870034 L 189.55078125 266.55826795286663 L 191.89453125 261.78242191247983 L 194.3359375 256.2234567682781 L 196.77734375 250.06844517632243 L 199.31640625 243.03494704891122 L 201.953125 235.04857578936475 L 204.6875 226.0320837780541 L 207.421875 216.26791110268096 L 210.25390625 205.36680615210616 L 213.18359375 193.24579926080236 L 216.2109375 179.81905974029297 L 219.3359375 164.99789587915222 L 222.55859375 148.69075494300517 L 225.87890625 130.80322317452752 L 229.296875 111.23802579344584 L 232.8125 89.89502699653754 L 236.42578125 66.67122995763066 L 240.13671875 41.46077682760421 L 243.9453125 14.154948734387744 L 246.54848262970373 -5.5" stroke-linecap="round" stroke-linejoin="round" stroke-miterlimit="10" stroke-width="2.5" stroke-dasharray=""/></g></g><g id="sketch-8b2f1cf7"><title>Expression 3</title><path fill="#c74440" stroke="none" paint-order="stroke fill markers" d="" fill-opacity="0.4"/><g><path fill="none" stroke="#c74440" class="dcg-svg-curve" paint-order="fill stroke markers" d=" M 105.48523588073047 405.5 L 105.48523588073047 405.5 L 107.91015625 389.9099382353787 L 111.5234375 368.00300559899256 L 115.0390625 347.9412802748071 L 118.45703125 329.62176543665055 L 121.77734375 312.9443252813001 L 125 297.8116850284823 L 128.125 284.12943092087306 L 131.15234375 271.8060102240973 L 134.08203125 260.75273122672917 L 136.9140625 250.88376324029227 L 139.6484375 242.11613659925916 L 142.28515625 234.36974266105176 L 144.921875 227.31857729950445 L 147.4609375 221.18564781461097 L 149.90234375 215.89656760969163 L 152.24609375 211.37981111101593 L 154.58984375 207.41237101859022 L 156.93359375 203.99424733241455 L 159.1796875 201.23400643451373 L 161.328125 199.06584479705577 L 163.28125 197.49533197589375 L 165.13671875 196.3566811300183 L 166.89453125 195.59553282339434 L 168.5546875 195.1603886429359 L 170.21484375 195.00085633991887 L 171.875 195.11693591434326 L 173.53515625 195.50862736620903 L 175.1953125 196.1759306955162 L 176.953125 197.18289457150942 L 178.7109375 198.4988489260183 L 180.6640625 200.3234166712625 L 182.71484375 202.6497695969818 L 184.9609375 205.68023914829973 L 187.20703125 209.21520241299658 L 189.55078125 213.44173204713337 L 191.89453125 218.21757808752017 L 194.3359375 223.77654323172192 L 196.77734375 229.93155482367757 L 199.31640625 236.96505295108878 L 201.953125 244.95142421063525 L 204.6875 253.9679162219459 L 207.421875 263.73208889731904 L 210.25390625 274.63319384789384 L 213.18359375 286.75420073919764 L 216.2109375 300.18094025970703 L 219.3359375 315.0021041208478 L 222.55859375 331.3092450569949 L 225.87890625 349.1967768254725 L 229.296875 368.76197420655416 L 232.8125 390.1049730034624 L 235.20773977481554 405.5" stroke-linecap="round" stroke-linejoin="round" stroke-miterlimit="10" stroke-width="2.5" stroke-opacity="0.6" stroke-dasharray=""/></g></g><g id="sketch-8b2f1cf7"><title>Expression 4</title><path fill="#000000" stroke="none" paint-order="stroke fill markers" d="" fill-opacity="0.4"/><g><path fill="none" stroke="#000000" class="dcg-svg-curve" paint-order="fill stroke markers" d=" M 165.48754926676745 -5.5 L 165.48754926676745 -5.5 L 167.1875 5.552005620644849 L 170.80078125 27.720054284862982 L 174.31640625 48.03583844693904 L 177.734375 66.6023549330449 L 181.0546875 83.51973954640317 L 184.27734375 98.88526706728734 L 187.40234375 112.79335125302161 L 190.4296875 125.33554483798099 L 193.359375 136.60053953359125 L 196.19140625 146.67416602832895 L 198.92578125 155.63939398772143 L 201.66015625 163.8569412830514 L 204.296875 171.0729015664737 L 206.8359375 177.36452245761717 L 209.27734375 182.8061905531615 L 211.71875 187.65181220095195 L 214.0625 191.7428484847839 L 216.40625 195.28456836236586 L 218.65234375 198.16325561036433 L 220.80078125 200.44471375661132 L 222.75390625 202.11822340394525 L 224.609375 203.35472123468395 L 226.3671875 204.2085666848626 L 228.02734375 204.73125816756715 L 229.6875 204.97833777283026 L 231.34765625 204.949805500652 L 233.0078125 204.64566135103232 L 234.66796875 204.0659053239712 L 236.328125 203.21053741946872 L 238.0859375 202.00444634620987 L 239.94140625 200.39613369110873 L 241.89453125 198.33124001813016 L 244.04296875 195.61925944367403 L 246.2890625 192.29048056618421 L 248.6328125 188.27909985782864 L 250.9765625 183.71840274322312 L 253.3203125 178.60838922236755 L 255.76171875 172.70133295267752 L 258.30078125 165.9257083604226 L 260.9375 158.207128848923 L 263.57421875 149.79332076076327 L 266.30859375 140.33356092718694 L 269.140625 129.74774070561605 L 272.0703125 117.95289043052318 L 275.09765625 104.86317941343181 L 278.22265625 90.38991594291609 L 281.4453125 74.44154728460103 L 284.66796875 57.45462729571952 L 287.98828125 38.86671710927314 L 291.40625 18.58054194498837 L 294.921875 -3.5040340003574784 L 295.222550163605 -5.5" stroke-linecap="round" stroke-linejoin="round" stroke-miterlimit="10" stroke-width="2.5" stroke-opacity="0.4" stroke-dasharray=""/></g></g></g><g id="labels-8b2f1cf7"/><g id="labels-8b2f1cf7"/></g></svg>